<?xml version="1.0" encoding="UTF-8" standalone="no"?>
<!DOCTYPE svg PUBLIC "-//W3C//DTD SVG 1.1//EN"
 "http://www.w3.org/Graphics/SVG/1.1/DTD/svg11.dtd">
<!-- Generated by graphviz version 2.40.1 (20161225.0304)
 -->
<!-- Title: %3 Pages: 1 -->
<svg width="1011pt" height="547pt"
 viewBox="0.00 0.00 1010.52 547.00" xmlns="http://www.w3.org/2000/svg" xmlns:xlink="http://www.w3.org/1999/xlink">
<g id="graph0" class="graph" transform="scale(1 1) rotate(0) translate(4 543)">
<title>%3</title>
<polygon fill="#ffffff" stroke="transparent" points="-4,4 -4,-543 1006.5198,-543 1006.5198,4 -4,4"/>
<text text-anchor="middle" x="501.2599" y="-36.8" font-family="Times,serif" font-size="14.00" fill="#000000">Thrift Decoder State Machine.</text>
<text text-anchor="middle" x="501.2599" y="-6.8" font-family="Times,serif" font-size="14.00" fill="#000000">States appear in multiple locations to simplify the graph of transitions.</text>
<!-- Start -->
<g id="node1" class="node">
<title>Start</title>
<ellipse fill="#cccccc" stroke="#000000" cx="198.9884" cy="-521" rx="27" ry="18"/>
<text text-anchor="middle" x="198.9884" y="-516.8" font-family="Times,serif" font-size="14.00" fill="#000000">Start</text>
</g>
<!-- MessageBegin -->
<g id="node2" class="node">
<title>MessageBegin</title>
<ellipse fill="none" stroke="#000000" cx="323.9884" cy="-521" rx="62.3494" ry="18"/>
<text text-anchor="middle" x="323.9884" y="-516.8" font-family="Times,serif" font-size="14.00" fill="#000000">MessageBegin</text>
</g>
<!-- Start&#45;&gt;MessageBegin -->
<g id="edge1" class="edge">
<title>Start&#45;&gt;MessageBegin</title>
<path fill="none" stroke="#000000" d="M226.3322,-521C234.7394,-521 243.1466,-521 251.5539,-521"/>
<polygon fill="#000000" stroke="#000000" points="251.8089,-524.5001 261.8089,-521 251.8088,-517.5001 251.8089,-524.5001"/>
</g>
<!-- MessageEnd -->
<g id="node3" class="node">
<title>MessageEnd</title>
<ellipse fill="none" stroke="#000000" cx="476.9884" cy="-521" rx="55.0922" ry="18"/>
<text text-anchor="middle" x="476.9884" y="-516.8" font-family="Times,serif" font-size="14.00" fill="#000000">MessageEnd</text>
</g>
<!-- MessageBegin&#45;&gt;MessageEnd -->
<!-- StructBegin -->
<g id="node5" class="node">
<title>StructBegin</title>
<ellipse fill="none" stroke="#000000" cx="338.9884" cy="-448" rx="52.2106" ry="18"/>
<text text-anchor="middle" x="338.9884" y="-443.8" font-family="Times,serif" font-size="14.00" fill="#000000">StructBegin</text>
</g>
<!-- MessageBegin&#45;&gt;StructBegin -->
<g id="edge2" class="edge">
<title>MessageBegin&#45;&gt;StructBegin</title>
<path fill="none" stroke="#000000" d="M327.6963,-502.9551C329.373,-494.7951 331.3928,-484.9652 333.2579,-475.8887"/>
<polygon fill="#000000" stroke="#000000" points="336.6868,-476.5902 335.2712,-466.0904 329.83,-475.1812 336.6868,-476.5902"/>
</g>
<!-- Done -->
<g id="node4" class="node">
<title>Done</title>
<ellipse fill="#cccccc" stroke="#000000" cx="596.9884" cy="-521" rx="29.0257" ry="18"/>
<text text-anchor="middle" x="596.9884" y="-516.8" font-family="Times,serif" font-size="14.00" fill="#000000">Done</text>
</g>
<!-- MessageEnd&#45;&gt;Done -->
<g id="edge9" class="edge">
<title>MessageEnd&#45;&gt;Done</title>
<path fill="none" stroke="#000000" d="M532.3009,-521C540.6843,-521 549.0677,-521 557.451,-521"/>
<polygon fill="#000000" stroke="#000000" points="557.6769,-524.5001 567.6769,-521 557.6769,-517.5001 557.6769,-524.5001"/>
</g>
<!-- StructEnd -->
<g id="node6" class="node">
<title>StructEnd</title>
<ellipse fill="none" stroke="#000000" cx="471.9884" cy="-448" rx="45.4527" ry="18"/>
<text text-anchor="middle" x="471.9884" y="-443.8" font-family="Times,serif" font-size="14.00" fill="#000000">StructEnd</text>
</g>
<!-- StructBegin&#45;&gt;StructEnd -->
<!-- FieldBegin -->
<g id="node7" class="node">
<title>FieldBegin</title>
<ellipse fill="none" stroke="#000000" cx="404.9884" cy="-375" rx="49.3205" ry="18"/>
<text text-anchor="middle" x="404.9884" y="-370.8" font-family="Times,serif" font-size="14.00" fill="#000000">FieldBegin</text>
</g>
<!-- StructBegin&#45;&gt;FieldBegin -->
<g id="edge3" class="edge">
<title>StructBegin&#45;&gt;FieldBegin</title>
<path fill="none" stroke="#000000" d="M354.6295,-430.7C363.0134,-421.427 373.4869,-409.8425 382.7079,-399.6436"/>
<polygon fill="#000000" stroke="#000000" points="385.3493,-401.9409 389.4596,-392.1758 380.1569,-397.2463 385.3493,-401.9409"/>
</g>
<!-- StructEnd&#45;&gt;MessageEnd -->
<g id="edge8" class="edge">
<title>StructEnd&#45;&gt;MessageEnd</title>
<path fill="none" stroke="#000000" d="M473.2275,-466.0904C473.7808,-474.1687 474.4457,-483.8769 475.0616,-492.8688"/>
<polygon fill="#000000" stroke="#000000" points="471.5772,-493.2176 475.7525,-502.9551 478.5609,-492.7392 471.5772,-493.2176"/>
</g>
<!-- FieldBegin&#45;&gt;StructEnd -->
<g id="edge5" class="edge">
<title>FieldBegin&#45;&gt;StructEnd</title>
<path fill="none" stroke="#000000" d="M420.6758,-392.0922C429.265,-401.4506 440.0572,-413.2092 449.5252,-423.5251"/>
<polygon fill="#000000" stroke="#000000" points="447.1084,-426.0681 456.4489,-431.0688 452.2656,-421.3348 447.1084,-426.0681"/>
</g>
<!-- FieldEnd -->
<g id="node8" class="node">
<title>FieldEnd</title>
<ellipse fill="none" stroke="#000000" cx="531.9884" cy="-375" rx="42.5629" ry="18"/>
<text text-anchor="middle" x="531.9884" y="-370.8" font-family="Times,serif" font-size="14.00" fill="#000000">FieldEnd</text>
</g>
<!-- FieldBegin&#45;&gt;FieldEnd -->
<!-- Value -->
<g id="node9" class="node">
<title>Value</title>
<ellipse fill="none" stroke="#000000" cx="467.9884" cy="-302" rx="30.4862" ry="18"/>
<text text-anchor="middle" x="467.9884" y="-297.8" font-family="Times,serif" font-size="14.00" fill="#000000">Value</text>
</g>
<!-- FieldBegin&#45;&gt;Value -->
<g id="edge4" class="edge">
<title>FieldBegin&#45;&gt;Value</title>
<path fill="none" stroke="#000000" d="M419.9185,-357.7C428.1533,-348.1582 438.5001,-336.169 447.4829,-325.7604"/>
<polygon fill="#000000" stroke="#000000" points="450.1448,-328.0329 454.0287,-318.1756 444.8454,-323.4594 450.1448,-328.0329"/>
</g>
<!-- FieldEnd&#45;&gt;FieldBegin -->
<g id="edge7" class="edge">
<title>FieldEnd&#45;&gt;FieldBegin</title>
<path fill="none" stroke="#000000" d="M497.4944,-364.3168C482.9207,-361.4863 468.347,-360.789 453.7732,-362.225"/>
<polygon fill="#000000" stroke="#000000" points="453.1382,-358.7784 443.6837,-363.5599 454.0565,-365.7179 453.1382,-358.7784"/>
</g>
<!-- Value&#45;&gt;FieldEnd -->
<g id="edge6" class="edge">
<title>Value&#45;&gt;FieldEnd</title>
<path fill="none" stroke="#000000" d="M482.0929,-318.0879C490.3727,-327.5321 501.0085,-339.6635 510.3317,-350.2979"/>
<polygon fill="#000000" stroke="#000000" points="507.9205,-352.8568 517.1447,-358.0688 513.1841,-348.2421 507.9205,-352.8568"/>
</g>
<!-- ListBegin -->
<g id="node10" class="node">
<title>ListBegin</title>
<ellipse fill="none" stroke="#000000" cx="44.9884" cy="-229" rx="44.9768" ry="18"/>
<text text-anchor="middle" x="44.9884" y="-224.8" font-family="Times,serif" font-size="14.00" fill="#000000">ListBegin</text>
</g>
<!-- Value&#45;&gt;ListBegin -->
<g id="edge10" class="edge">
<title>Value&#45;&gt;ListBegin</title>
<path fill="none" stroke="#000000" d="M438.2442,-298.2546C377.5473,-290.4105 235.1663,-270.9811 116.9884,-247 108.9987,-245.3787 100.56,-243.4592 92.3825,-241.4881"/>
<polygon fill="#000000" stroke="#000000" points="93.1318,-238.0681 82.5849,-239.0746 91.4575,-244.8649 93.1318,-238.0681"/>
</g>
<!-- MapBegin -->
<g id="node12" class="node">
<title>MapBegin</title>
<ellipse fill="none" stroke="#000000" cx="284.9884" cy="-229" rx="47.3823" ry="18"/>
<text text-anchor="middle" x="284.9884" y="-224.8" font-family="Times,serif" font-size="14.00" fill="#000000">MapBegin</text>
</g>
<!-- Value&#45;&gt;MapBegin -->
<g id="edge15" class="edge">
<title>Value&#45;&gt;MapBegin</title>
<path fill="none" stroke="#000000" d="M442.5431,-291.8497C412.8292,-279.9966 363.2155,-260.2054 327.5967,-245.9967"/>
<polygon fill="#000000" stroke="#000000" points="328.5347,-242.6028 317.9496,-242.1484 325.941,-249.1045 328.5347,-242.6028"/>
</g>
<!-- SetBegin -->
<g id="node14" class="node">
<title>SetBegin</title>
<ellipse fill="none" stroke="#000000" cx="527.9884" cy="-229" rx="42.5629" ry="18"/>
<text text-anchor="middle" x="527.9884" y="-224.8" font-family="Times,serif" font-size="14.00" fill="#000000">SetBegin</text>
</g>
<!-- Value&#45;&gt;SetBegin -->
<g id="edge21" class="edge">
<title>Value&#45;&gt;SetBegin</title>
<path fill="none" stroke="#000000" d="M481.3044,-285.7989C488.9321,-276.5185 498.6698,-264.671 507.2761,-254.2"/>
<polygon fill="#000000" stroke="#000000" points="510.2279,-256.1207 513.8737,-246.1729 504.8201,-251.676 510.2279,-256.1207"/>
</g>
<!-- StructValueBegin -->
<g id="node16" class="node">
<title>StructValueBegin</title>
<ellipse fill="none" stroke="#000000" cx="765.9884" cy="-229" rx="52.2106" ry="18"/>
<text text-anchor="middle" x="765.9884" y="-224.8" font-family="Times,serif" font-size="14.00" fill="#000000">StructBegin</text>
</g>
<!-- Value&#45;&gt;StructValueBegin -->
<g id="edge26" class="edge">
<title>Value&#45;&gt;StructValueBegin</title>
<path fill="none" stroke="#000000" d="M496.0235,-295.1323C545.741,-282.9532 650.0769,-257.3944 713.4891,-241.8606"/>
<polygon fill="#000000" stroke="#000000" points="714.4203,-245.236 723.3003,-239.4571 712.7547,-238.4371 714.4203,-245.236"/>
</g>
<!-- ListEnd -->
<g id="node11" class="node">
<title>ListEnd</title>
<ellipse fill="none" stroke="#000000" cx="163.9884" cy="-229" rx="38.2197" ry="18"/>
<text text-anchor="middle" x="163.9884" y="-224.8" font-family="Times,serif" font-size="14.00" fill="#000000">ListEnd</text>
</g>
<!-- ListBegin&#45;&gt;ListEnd -->
<!-- ListValue -->
<g id="node20" class="node">
<title>ListValue</title>
<ellipse fill="none" stroke="#000000" cx="92.9884" cy="-156" rx="30.4862" ry="18"/>
<text text-anchor="middle" x="92.9884" y="-151.8" font-family="Times,serif" font-size="14.00" fill="#000000">Value</text>
</g>
<!-- ListBegin&#45;&gt;ListValue -->
<g id="edge11" class="edge">
<title>ListBegin&#45;&gt;ListValue</title>
<path fill="none" stroke="#000000" d="M56.6079,-211.3287C62.4709,-202.4121 69.6913,-191.4311 76.15,-181.6085"/>
<polygon fill="#000000" stroke="#000000" points="79.2368,-183.2844 81.8065,-173.0059 73.3879,-179.4385 79.2368,-183.2844"/>
</g>
<!-- ListEnd&#45;&gt;Value -->
<g id="edge14" class="edge">
<title>ListEnd&#45;&gt;Value</title>
<path fill="none" stroke="#000000" d="M196.6476,-238.3462C206.9676,-241.2182 218.4323,-244.3251 228.9884,-247 299.3551,-264.8305 381.9992,-283.3055 429.3584,-293.6583"/>
<polygon fill="#000000" stroke="#000000" points="428.6786,-297.0922 439.1946,-295.8025 430.1696,-290.2528 428.6786,-297.0922"/>
</g>
<!-- ListEnd&#45;&gt;MapBegin -->
<!-- MapEnd -->
<g id="node13" class="node">
<title>MapEnd</title>
<ellipse fill="none" stroke="#000000" cx="408.9884" cy="-229" rx="40.6248" ry="18"/>
<text text-anchor="middle" x="408.9884" y="-224.8" font-family="Times,serif" font-size="14.00" fill="#000000">MapEnd</text>
</g>
<!-- MapBegin&#45;&gt;MapEnd -->
<!-- MapKeyValue -->
<g id="node21" class="node">
<title>MapKeyValue</title>
<ellipse fill="none" stroke="#000000" cx="334.9884" cy="-156" rx="53.1525" ry="18"/>
<text text-anchor="middle" x="334.9884" y="-151.8" font-family="Times,serif" font-size="14.00" fill="#000000">Key (Value)</text>
</g>
<!-- MapBegin&#45;&gt;MapKeyValue -->
<g id="edge16" class="edge">
<title>MapBegin&#45;&gt;MapKeyValue</title>
<path fill="none" stroke="#000000" d="M297.092,-211.3287C303.0665,-202.606 310.3942,-191.9075 317.0085,-182.2507"/>
<polygon fill="#000000" stroke="#000000" points="320.0597,-183.9897 322.823,-173.7615 314.2844,-180.034 320.0597,-183.9897"/>
</g>
<!-- MapEnd&#45;&gt;Value -->
<g id="edge20" class="edge">
<title>MapEnd&#45;&gt;Value</title>
<path fill="none" stroke="#000000" d="M422.7329,-246.0059C430.3071,-255.3773 439.8424,-267.1753 448.2051,-277.5223"/>
<polygon fill="#000000" stroke="#000000" points="445.5924,-279.8578 454.6004,-285.4352 451.0366,-275.4577 445.5924,-279.8578"/>
</g>
<!-- MapEnd&#45;&gt;SetBegin -->
<!-- SetEnd -->
<g id="node15" class="node">
<title>SetEnd</title>
<ellipse fill="none" stroke="#000000" cx="641.9884" cy="-229" rx="35.806" ry="18"/>
<text text-anchor="middle" x="641.9884" y="-224.8" font-family="Times,serif" font-size="14.00" fill="#000000">SetEnd</text>
</g>
<!-- SetBegin&#45;&gt;SetEnd -->
<!-- SetValue -->
<g id="node23" class="node">
<title>SetValue</title>
<ellipse fill="none" stroke="#000000" cx="573.9884" cy="-156" rx="30.4862" ry="18"/>
<text text-anchor="middle" x="573.9884" y="-151.8" font-family="Times,serif" font-size="14.00" fill="#000000">Value</text>
</g>
<!-- SetBegin&#45;&gt;SetValue -->
<g id="edge22" class="edge">
<title>SetBegin&#45;&gt;SetValue</title>
<path fill="none" stroke="#000000" d="M539.1237,-211.3287C544.7424,-202.4121 551.662,-191.4311 557.8516,-181.6085"/>
<polygon fill="#000000" stroke="#000000" points="560.9023,-183.3322 563.2724,-173.0059 554.98,-179.6003 560.9023,-183.3322"/>
</g>
<!-- SetEnd&#45;&gt;Value -->
<g id="edge25" class="edge">
<title>SetEnd&#45;&gt;Value</title>
<path fill="none" stroke="#000000" d="M614.5211,-240.5236C584.1011,-253.2861 535.0214,-273.877 502.1466,-287.6693"/>
<polygon fill="#000000" stroke="#000000" points="500.7856,-284.4446 492.9184,-291.5409 503.4938,-290.8996 500.7856,-284.4446"/>
</g>
<!-- SetEnd&#45;&gt;StructValueBegin -->
<!-- StructValueEnd -->
<g id="node17" class="node">
<title>StructValueEnd</title>
<ellipse fill="none" stroke="#000000" cx="898.9884" cy="-229" rx="45.4527" ry="18"/>
<text text-anchor="middle" x="898.9884" y="-224.8" font-family="Times,serif" font-size="14.00" fill="#000000">StructEnd</text>
</g>
<!-- StructValueBegin&#45;&gt;StructValueEnd -->
<!-- StructValueFieldBegin -->
<g id="node18" class="node">
<title>StructValueFieldBegin</title>
<ellipse fill="none" stroke="#000000" cx="832.9884" cy="-156" rx="49.3205" ry="18"/>
<text text-anchor="middle" x="832.9884" y="-151.8" font-family="Times,serif" font-size="14.00" fill="#000000">FieldBegin</text>
</g>
<!-- StructValueBegin&#45;&gt;StructValueFieldBegin -->
<g id="edge27" class="edge">
<title>StructValueBegin&#45;&gt;StructValueFieldBegin</title>
<path fill="none" stroke="#000000" d="M781.8665,-211.7C790.3774,-202.427 801.0097,-190.8425 810.3703,-180.6436"/>
<polygon fill="#000000" stroke="#000000" points="813.0411,-182.9098 817.2243,-173.1758 807.8839,-178.1765 813.0411,-182.9098"/>
</g>
<!-- StructValueEnd&#45;&gt;Value -->
<g id="edge32" class="edge">
<title>StructValueEnd&#45;&gt;Value</title>
<path fill="none" stroke="#000000" d="M861.0244,-239.1926C850.0858,-241.9384 838.1043,-244.7641 826.9884,-247 711.9827,-270.1333 574.5277,-288.6913 507.9945,-297.1061"/>
<polygon fill="#000000" stroke="#000000" points="507.4256,-293.65 497.9396,-298.3687 508.2977,-300.5954 507.4256,-293.65"/>
</g>
<!-- StructValueFieldBegin&#45;&gt;StructValueEnd -->
<g id="edge29" class="edge">
<title>StructValueFieldBegin&#45;&gt;StructValueEnd</title>
<path fill="none" stroke="#000000" d="M848.5172,-173.1758C856.8824,-182.4281 867.3521,-194.0083 876.5842,-204.2195"/>
<polygon fill="#000000" stroke="#000000" points="874.0446,-206.6295 883.3473,-211.7 879.2371,-201.935 874.0446,-206.6295"/>
</g>
<!-- StructValueFieldEnd -->
<g id="node19" class="node">
<title>StructValueFieldEnd</title>
<ellipse fill="none" stroke="#000000" cx="959.9884" cy="-156" rx="42.5629" ry="18"/>
<text text-anchor="middle" x="959.9884" y="-151.8" font-family="Times,serif" font-size="14.00" fill="#000000">FieldEnd</text>
</g>
<!-- StructValueFieldBegin&#45;&gt;StructValueFieldEnd -->
<!-- StructValueValue -->
<g id="node24" class="node">
<title>StructValueValue</title>
<ellipse fill="none" stroke="#000000" cx="869.9884" cy="-70" rx="30.4862" ry="18"/>
<text text-anchor="middle" x="869.9884" y="-65.8" font-family="Times,serif" font-size="14.00" fill="#000000">Value</text>
</g>
<!-- StructValueFieldBegin&#45;&gt;StructValueValue -->
<g id="edge28" class="edge">
<title>StructValueFieldBegin&#45;&gt;StructValueValue</title>
<path fill="none" stroke="#000000" d="M840.6548,-138.1807C845.7988,-126.2246 852.668,-110.2582 858.466,-96.7819"/>
<polygon fill="#000000" stroke="#000000" points="861.7213,-98.0714 862.4584,-87.5022 855.2912,-95.3049 861.7213,-98.0714"/>
</g>
<!-- StructValueFieldEnd&#45;&gt;StructValueFieldBegin -->
<g id="edge31" class="edge">
<title>StructValueFieldEnd&#45;&gt;StructValueFieldBegin</title>
<path fill="none" stroke="#000000" d="M925.4944,-145.3168C910.9207,-142.4863 896.347,-141.789 881.7732,-143.225"/>
<polygon fill="#000000" stroke="#000000" points="881.1382,-139.7784 871.6837,-144.5599 882.0565,-146.7179 881.1382,-139.7784"/>
</g>
<!-- ListValue&#45;&gt;ListEnd -->
<g id="edge13" class="edge">
<title>ListValue&#45;&gt;ListEnd</title>
<path fill="none" stroke="#000000" d="M108.5477,-171.9976C118.0151,-181.7316 130.283,-194.3451 140.8708,-205.2312"/>
<polygon fill="#000000" stroke="#000000" points="138.3962,-207.7068 147.8774,-212.4352 143.4142,-202.8263 138.3962,-207.7068"/>
</g>
<!-- ListValue&#45;&gt;ListValue -->
<g id="edge12" class="edge">
<title>ListValue&#45;&gt;ListValue</title>
<path fill="none" stroke="#000000" d="M121.2332,-162.7236C132.1537,-163.0225 141.2305,-160.7813 141.2305,-156 141.2305,-152.8623 137.3215,-150.8185 131.5476,-149.8686"/>
<polygon fill="#000000" stroke="#000000" points="131.4174,-146.3555 121.2332,-149.2764 131.0161,-153.344 131.4174,-146.3555"/>
<text text-anchor="middle" x="152.1133" y="-151.8" font-family="Times,serif" font-size="14.00" fill="#000000">size</text>
</g>
<!-- MapKeyValue&#45;&gt;MapEnd -->
<g id="edge18" class="edge">
<title>MapKeyValue&#45;&gt;MapEnd</title>
<path fill="none" stroke="#000000" d="M352.4858,-173.261C362.1494,-182.7939 374.2981,-194.7785 384.852,-205.1898"/>
<polygon fill="#000000" stroke="#000000" points="382.6197,-207.904 392.1967,-212.4352 387.5356,-202.9207 382.6197,-207.904"/>
</g>
<!-- MapValueValue -->
<g id="node22" class="node">
<title>MapValueValue</title>
<ellipse fill="none" stroke="#000000" cx="335.9884" cy="-70" rx="30.4862" ry="18"/>
<text text-anchor="middle" x="335.9884" y="-65.8" font-family="Times,serif" font-size="14.00" fill="#000000">Value</text>
</g>
<!-- MapKeyValue&#45;&gt;MapValueValue -->
<g id="edge17" class="edge">
<title>MapKeyValue:sw&#45;&gt;MapValueValue:nw</title>
<path fill="none" stroke="#000000" d="M317.9884,-139C303.9247,-124.9363 303.151,-108.7399 313.2648,-94.0097"/>
<polygon fill="#000000" stroke="#000000" points="316.2398,-95.9095 319.9884,-86 310.8783,-91.4089 316.2398,-95.9095"/>
</g>
<!-- MapValueValue&#45;&gt;MapKeyValue -->
<g id="edge19" class="edge">
<title>MapValueValue:ne&#45;&gt;MapKeyValue:se</title>
<path fill="none" stroke="#000000" d="M351.9884,-86C366.0422,-100.0537 368.2381,-116.2654 358.5761,-130.9935"/>
<polygon fill="#000000" stroke="#000000" points="355.6394,-129.0541 351.9884,-139 361.0449,-133.5017 355.6394,-129.0541"/>
<text text-anchor="middle" x="375.8712" y="-108.8" font-family="Times,serif" font-size="14.00" fill="#000000">size</text>
</g>
<!-- SetValue&#45;&gt;SetEnd -->
<g id="edge24" class="edge">
<title>SetValue&#45;&gt;SetEnd</title>
<path fill="none" stroke="#000000" d="M588.8903,-171.9976C597.8704,-181.638 609.4814,-194.1028 619.5547,-204.9167"/>
<polygon fill="#000000" stroke="#000000" points="617.1811,-207.5036 626.5582,-212.4352 622.3031,-202.7323 617.1811,-207.5036"/>
</g>
<!-- SetValue&#45;&gt;SetValue -->
<g id="edge23" class="edge">
<title>SetValue&#45;&gt;SetValue</title>
<path fill="none" stroke="#000000" d="M602.2332,-162.7236C613.1537,-163.0225 622.2305,-160.7813 622.2305,-156 622.2305,-152.8623 618.3215,-150.8185 612.5476,-149.8686"/>
<polygon fill="#000000" stroke="#000000" points="612.4174,-146.3555 602.2332,-149.2764 612.0161,-153.344 612.4174,-146.3555"/>
<text text-anchor="middle" x="633.1133" y="-151.8" font-family="Times,serif" font-size="14.00" fill="#000000">size</text>
</g>
<!-- StructValueValue&#45;&gt;StructValueFieldEnd -->
<g id="edge30" class="edge">
<title>StructValueValue&#45;&gt;StructValueFieldEnd</title>
<path fill="none" stroke="#000000" d="M886.0786,-85.3751C899.7598,-98.4482 919.6235,-117.4291 935.3137,-132.4219"/>
<polygon fill="#000000" stroke="#000000" points="932.9876,-135.0402 942.6355,-139.4183 937.8236,-129.9792 932.9876,-135.0402"/>
</g>
</g>
</svg>
