<svg xmlns="http://www.w3.org/2000/svg" xmlns:xlink="http://www.w3.org/1999/xlink" width="1348" height="547pt" viewBox="0 0 1010.52 547"><g id="graph0" class="graph" transform="scale(1 1) rotate(0) translate(4 543)"><title>%3</title><polygon fill="#fff" stroke="transparent" points="-4 4 -4 -543 1006.52 -543 1006.52 4 -4 4"/><text x="501.26" y="-36.8" fill="#000" font-family="Times,serif" font-size="14" text-anchor="middle">Thrift Decoder State Machine.</text><text x="501.26" y="-6.8" fill="#000" font-family="Times,serif" font-size="14" text-anchor="middle">States appear in multiple locations to simplify the graph of transitions.</text><g id="node1" class="node"><title>Start</title><ellipse cx="198.988" cy="-521" fill="#ccc" stroke="#000" rx="27" ry="18"/><text x="198.988" y="-516.8" fill="#000" font-family="Times,serif" font-size="14" text-anchor="middle">Start</text></g><g id="node2" class="node"><title>MessageBegin</title><ellipse cx="323.988" cy="-521" fill="none" stroke="#000" rx="62.349" ry="18"/><text x="323.988" y="-516.8" fill="#000" font-family="Times,serif" font-size="14" text-anchor="middle">MessageBegin</text></g><g id="edge1" class="edge"><title>Start-&gt;MessageBegin</title><path fill="none" stroke="#000" d="M226.3322,-521C234.7394,-521 243.1466,-521 251.5539,-521"/><polygon fill="#000" stroke="#000" points="251.809 -524.5 261.809 -521 251.809 -517.5 251.809 -524.5"/></g><g id="node3" class="node"><title>MessageEnd</title><ellipse cx="476.988" cy="-521" fill="none" stroke="#000" rx="55.092" ry="18"/><text x="476.988" y="-516.8" fill="#000" font-family="Times,serif" font-size="14" text-anchor="middle">MessageEnd</text></g><g id="node5" class="node"><title>StructBegin</title><ellipse cx="338.988" cy="-448" fill="none" stroke="#000" rx="52.211" ry="18"/><text x="338.988" y="-443.8" fill="#000" font-family="Times,serif" font-size="14" text-anchor="middle">StructBegin</text></g><g id="edge2" class="edge"><title>MessageBegin-&gt;StructBegin</title><path fill="none" stroke="#000" d="M327.6963,-502.9551C329.373,-494.7951 331.3928,-484.9652 333.2579,-475.8887"/><polygon fill="#000" stroke="#000" points="336.687 -476.59 335.271 -466.09 329.83 -475.181 336.687 -476.59"/></g><g id="node4" class="node"><title>Done</title><ellipse cx="596.988" cy="-521" fill="#ccc" stroke="#000" rx="29.026" ry="18"/><text x="596.988" y="-516.8" fill="#000" font-family="Times,serif" font-size="14" text-anchor="middle">Done</text></g><g id="edge9" class="edge"><title>MessageEnd-&gt;Done</title><path fill="none" stroke="#000" d="M532.3009,-521C540.6843,-521 549.0677,-521 557.451,-521"/><polygon fill="#000" stroke="#000" points="557.677 -524.5 567.677 -521 557.677 -517.5 557.677 -524.5"/></g><g id="node6" class="node"><title>StructEnd</title><ellipse cx="471.988" cy="-448" fill="none" stroke="#000" rx="45.453" ry="18"/><text x="471.988" y="-443.8" fill="#000" font-family="Times,serif" font-size="14" text-anchor="middle">StructEnd</text></g><g id="node7" class="node"><title>FieldBegin</title><ellipse cx="404.988" cy="-375" fill="none" stroke="#000" rx="49.321" ry="18"/><text x="404.988" y="-370.8" fill="#000" font-family="Times,serif" font-size="14" text-anchor="middle">FieldBegin</text></g><g id="edge3" class="edge"><title>StructBegin-&gt;FieldBegin</title><path fill="none" stroke="#000" d="M354.6295,-430.7C363.0134,-421.427 373.4869,-409.8425 382.7079,-399.6436"/><polygon fill="#000" stroke="#000" points="385.349 -401.941 389.46 -392.176 380.157 -397.246 385.349 -401.941"/></g><g id="edge8" class="edge"><title>StructEnd-&gt;MessageEnd</title><path fill="none" stroke="#000" d="M473.2275,-466.0904C473.7808,-474.1687 474.4457,-483.8769 475.0616,-492.8688"/><polygon fill="#000" stroke="#000" points="471.577 -493.218 475.752 -502.955 478.561 -492.739 471.577 -493.218"/></g><g id="edge5" class="edge"><title>FieldBegin-&gt;StructEnd</title><path fill="none" stroke="#000" d="M420.6758,-392.0922C429.265,-401.4506 440.0572,-413.2092 449.5252,-423.5251"/><polygon fill="#000" stroke="#000" points="447.108 -426.068 456.449 -431.069 452.266 -421.335 447.108 -426.068"/></g><g id="node8" class="node"><title>FieldEnd</title><ellipse cx="531.988" cy="-375" fill="none" stroke="#000" rx="42.563" ry="18"/><text x="531.988" y="-370.8" fill="#000" font-family="Times,serif" font-size="14" text-anchor="middle">FieldEnd</text></g><g id="node9" class="node"><title>Value</title><ellipse cx="467.988" cy="-302" fill="none" stroke="#000" rx="30.486" ry="18"/><text x="467.988" y="-297.8" fill="#000" font-family="Times,serif" font-size="14" text-anchor="middle">Value</text></g><g id="edge4" class="edge"><title>FieldBegin-&gt;Value</title><path fill="none" stroke="#000" d="M419.9185,-357.7C428.1533,-348.1582 438.5001,-336.169 447.4829,-325.7604"/><polygon fill="#000" stroke="#000" points="450.145 -328.033 454.029 -318.176 444.845 -323.459 450.145 -328.033"/></g><g id="edge7" class="edge"><title>FieldEnd-&gt;FieldBegin</title><path fill="none" stroke="#000" d="M497.4944,-364.3168C482.9207,-361.4863 468.347,-360.789 453.7732,-362.225"/><polygon fill="#000" stroke="#000" points="453.138 -358.778 443.684 -363.56 454.057 -365.718 453.138 -358.778"/></g><g id="edge6" class="edge"><title>Value-&gt;FieldEnd</title><path fill="none" stroke="#000" d="M482.0929,-318.0879C490.3727,-327.5321 501.0085,-339.6635 510.3317,-350.2979"/><polygon fill="#000" stroke="#000" points="507.921 -352.857 517.145 -358.069 513.184 -348.242 507.921 -352.857"/></g><g id="node10" class="node"><title>ListBegin</title><ellipse cx="44.988" cy="-229" fill="none" stroke="#000" rx="44.977" ry="18"/><text x="44.988" y="-224.8" fill="#000" font-family="Times,serif" font-size="14" text-anchor="middle">ListBegin</text></g><g id="edge10" class="edge"><title>Value-&gt;ListBegin</title><path fill="none" stroke="#000" d="M438.2442,-298.2546C377.5473,-290.4105 235.1663,-270.9811 116.9884,-247 108.9987,-245.3787 100.56,-243.4592 92.3825,-241.4881"/><polygon fill="#000" stroke="#000" points="93.132 -238.068 82.585 -239.075 91.457 -244.865 93.132 -238.068"/></g><g id="node12" class="node"><title>MapBegin</title><ellipse cx="284.988" cy="-229" fill="none" stroke="#000" rx="47.382" ry="18"/><text x="284.988" y="-224.8" fill="#000" font-family="Times,serif" font-size="14" text-anchor="middle">MapBegin</text></g><g id="edge15" class="edge"><title>Value-&gt;MapBegin</title><path fill="none" stroke="#000" d="M442.5431,-291.8497C412.8292,-279.9966 363.2155,-260.2054 327.5967,-245.9967"/><polygon fill="#000" stroke="#000" points="328.535 -242.603 317.95 -242.148 325.941 -249.105 328.535 -242.603"/></g><g id="node14" class="node"><title>SetBegin</title><ellipse cx="527.988" cy="-229" fill="none" stroke="#000" rx="42.563" ry="18"/><text x="527.988" y="-224.8" fill="#000" font-family="Times,serif" font-size="14" text-anchor="middle">SetBegin</text></g><g id="edge21" class="edge"><title>Value-&gt;SetBegin</title><path fill="none" stroke="#000" d="M481.3044,-285.7989C488.9321,-276.5185 498.6698,-264.671 507.2761,-254.2"/><polygon fill="#000" stroke="#000" points="510.228 -256.121 513.874 -246.173 504.82 -251.676 510.228 -256.121"/></g><g id="node16" class="node"><title>StructValueBegin</title><ellipse cx="765.988" cy="-229" fill="none" stroke="#000" rx="52.211" ry="18"/><text x="765.988" y="-224.8" fill="#000" font-family="Times,serif" font-size="14" text-anchor="middle">StructBegin</text></g><g id="edge26" class="edge"><title>Value-&gt;StructValueBegin</title><path fill="none" stroke="#000" d="M496.0235,-295.1323C545.741,-282.9532 650.0769,-257.3944 713.4891,-241.8606"/><polygon fill="#000" stroke="#000" points="714.42 -245.236 723.3 -239.457 712.755 -238.437 714.42 -245.236"/></g><g id="node11" class="node"><title>ListEnd</title><ellipse cx="163.988" cy="-229" fill="none" stroke="#000" rx="38.22" ry="18"/><text x="163.988" y="-224.8" fill="#000" font-family="Times,serif" font-size="14" text-anchor="middle">ListEnd</text></g><g id="node20" class="node"><title>ListValue</title><ellipse cx="92.988" cy="-156" fill="none" stroke="#000" rx="30.486" ry="18"/><text x="92.988" y="-151.8" fill="#000" font-family="Times,serif" font-size="14" text-anchor="middle">Value</text></g><g id="edge11" class="edge"><title>ListBegin-&gt;ListValue</title><path fill="none" stroke="#000" d="M56.6079,-211.3287C62.4709,-202.4121 69.6913,-191.4311 76.15,-181.6085"/><polygon fill="#000" stroke="#000" points="79.237 -183.284 81.806 -173.006 73.388 -179.439 79.237 -183.284"/></g><g id="edge14" class="edge"><title>ListEnd-&gt;Value</title><path fill="none" stroke="#000" d="M196.6476,-238.3462C206.9676,-241.2182 218.4323,-244.3251 228.9884,-247 299.3551,-264.8305 381.9992,-283.3055 429.3584,-293.6583"/><polygon fill="#000" stroke="#000" points="428.679 -297.092 439.195 -295.803 430.17 -290.253 428.679 -297.092"/></g><g id="node13" class="node"><title>MapEnd</title><ellipse cx="408.988" cy="-229" fill="none" stroke="#000" rx="40.625" ry="18"/><text x="408.988" y="-224.8" fill="#000" font-family="Times,serif" font-size="14" text-anchor="middle">MapEnd</text></g><g id="node21" class="node"><title>MapKeyValue</title><ellipse cx="334.988" cy="-156" fill="none" stroke="#000" rx="53.153" ry="18"/><text x="334.988" y="-151.8" fill="#000" font-family="Times,serif" font-size="14" text-anchor="middle">Key (Value)</text></g><g id="edge16" class="edge"><title>MapBegin-&gt;MapKeyValue</title><path fill="none" stroke="#000" d="M297.092,-211.3287C303.0665,-202.606 310.3942,-191.9075 317.0085,-182.2507"/><polygon fill="#000" stroke="#000" points="320.06 -183.99 322.823 -173.762 314.284 -180.034 320.06 -183.99"/></g><g id="edge20" class="edge"><title>MapEnd-&gt;Value</title><path fill="none" stroke="#000" d="M422.7329,-246.0059C430.3071,-255.3773 439.8424,-267.1753 448.2051,-277.5223"/><polygon fill="#000" stroke="#000" points="445.592 -279.858 454.6 -285.435 451.037 -275.458 445.592 -279.858"/></g><g id="node15" class="node"><title>SetEnd</title><ellipse cx="641.988" cy="-229" fill="none" stroke="#000" rx="35.806" ry="18"/><text x="641.988" y="-224.8" fill="#000" font-family="Times,serif" font-size="14" text-anchor="middle">SetEnd</text></g><g id="node23" class="node"><title>SetValue</title><ellipse cx="573.988" cy="-156" fill="none" stroke="#000" rx="30.486" ry="18"/><text x="573.988" y="-151.8" fill="#000" font-family="Times,serif" font-size="14" text-anchor="middle">Value</text></g><g id="edge22" class="edge"><title>SetBegin-&gt;SetValue</title><path fill="none" stroke="#000" d="M539.1237,-211.3287C544.7424,-202.4121 551.662,-191.4311 557.8516,-181.6085"/><polygon fill="#000" stroke="#000" points="560.902 -183.332 563.272 -173.006 554.98 -179.6 560.902 -183.332"/></g><g id="edge25" class="edge"><title>SetEnd-&gt;Value</title><path fill="none" stroke="#000" d="M614.5211,-240.5236C584.1011,-253.2861 535.0214,-273.877 502.1466,-287.6693"/><polygon fill="#000" stroke="#000" points="500.786 -284.445 492.918 -291.541 503.494 -290.9 500.786 -284.445"/></g><g id="node17" class="node"><title>StructValueEnd</title><ellipse cx="898.988" cy="-229" fill="none" stroke="#000" rx="45.453" ry="18"/><text x="898.988" y="-224.8" fill="#000" font-family="Times,serif" font-size="14" text-anchor="middle">StructEnd</text></g><g id="node18" class="node"><title>StructValueFieldBegin</title><ellipse cx="832.988" cy="-156" fill="none" stroke="#000" rx="49.321" ry="18"/><text x="832.988" y="-151.8" fill="#000" font-family="Times,serif" font-size="14" text-anchor="middle">FieldBegin</text></g><g id="edge27" class="edge"><title>StructValueBegin-&gt;StructValueFieldBegin</title><path fill="none" stroke="#000" d="M781.8665,-211.7C790.3774,-202.427 801.0097,-190.8425 810.3703,-180.6436"/><polygon fill="#000" stroke="#000" points="813.041 -182.91 817.224 -173.176 807.884 -178.177 813.041 -182.91"/></g><g id="edge32" class="edge"><title>StructValueEnd-&gt;Value</title><path fill="none" stroke="#000" d="M861.0244,-239.1926C850.0858,-241.9384 838.1043,-244.7641 826.9884,-247 711.9827,-270.1333 574.5277,-288.6913 507.9945,-297.1061"/><polygon fill="#000" stroke="#000" points="507.426 -293.65 497.94 -298.369 508.298 -300.595 507.426 -293.65"/></g><g id="edge29" class="edge"><title>StructValueFieldBegin-&gt;StructValueEnd</title><path fill="none" stroke="#000" d="M848.5172,-173.1758C856.8824,-182.4281 867.3521,-194.0083 876.5842,-204.2195"/><polygon fill="#000" stroke="#000" points="874.045 -206.63 883.347 -211.7 879.237 -201.935 874.045 -206.63"/></g><g id="node19" class="node"><title>StructValueFieldEnd</title><ellipse cx="959.988" cy="-156" fill="none" stroke="#000" rx="42.563" ry="18"/><text x="959.988" y="-151.8" fill="#000" font-family="Times,serif" font-size="14" text-anchor="middle">FieldEnd</text></g><g id="node24" class="node"><title>StructValueValue</title><ellipse cx="869.988" cy="-70" fill="none" stroke="#000" rx="30.486" ry="18"/><text x="869.988" y="-65.8" fill="#000" font-family="Times,serif" font-size="14" text-anchor="middle">Value</text></g><g id="edge28" class="edge"><title>StructValueFieldBegin-&gt;StructValueValue</title><path fill="none" stroke="#000" d="M840.6548,-138.1807C845.7988,-126.2246 852.668,-110.2582 858.466,-96.7819"/><polygon fill="#000" stroke="#000" points="861.721 -98.071 862.458 -87.502 855.291 -95.305 861.721 -98.071"/></g><g id="edge31" class="edge"><title>StructValueFieldEnd-&gt;StructValueFieldBegin</title><path fill="none" stroke="#000" d="M925.4944,-145.3168C910.9207,-142.4863 896.347,-141.789 881.7732,-143.225"/><polygon fill="#000" stroke="#000" points="881.138 -139.778 871.684 -144.56 882.057 -146.718 881.138 -139.778"/></g><g id="edge13" class="edge"><title>ListValue-&gt;ListEnd</title><path fill="none" stroke="#000" d="M108.5477,-171.9976C118.0151,-181.7316 130.283,-194.3451 140.8708,-205.2312"/><polygon fill="#000" stroke="#000" points="138.396 -207.707 147.877 -212.435 143.414 -202.826 138.396 -207.707"/></g><g id="edge12" class="edge"><title>ListValue-&gt;ListValue</title><path fill="none" stroke="#000" d="M121.2332,-162.7236C132.1537,-163.0225 141.2305,-160.7813 141.2305,-156 141.2305,-152.8623 137.3215,-150.8185 131.5476,-149.8686"/><polygon fill="#000" stroke="#000" points="131.417 -146.356 121.233 -149.276 131.016 -153.344 131.417 -146.356"/><text x="152.113" y="-151.8" fill="#000" font-family="Times,serif" font-size="14" text-anchor="middle">size</text></g><g id="edge18" class="edge"><title>MapKeyValue-&gt;MapEnd</title><path fill="none" stroke="#000" d="M352.4858,-173.261C362.1494,-182.7939 374.2981,-194.7785 384.852,-205.1898"/><polygon fill="#000" stroke="#000" points="382.62 -207.904 392.197 -212.435 387.536 -202.921 382.62 -207.904"/></g><g id="node22" class="node"><title>MapValueValue</title><ellipse cx="335.988" cy="-70" fill="none" stroke="#000" rx="30.486" ry="18"/><text x="335.988" y="-65.8" fill="#000" font-family="Times,serif" font-size="14" text-anchor="middle">Value</text></g><g id="edge17" class="edge"><title>MapKeyValue:sw-&gt;MapValueValue:nw</title><path fill="none" stroke="#000" d="M317.9884,-139C303.9247,-124.9363 303.151,-108.7399 313.2648,-94.0097"/><polygon fill="#000" stroke="#000" points="316.24 -95.909 319.988 -86 310.878 -91.409 316.24 -95.909"/></g><g id="edge19" class="edge"><title>MapValueValue:ne-&gt;MapKeyValue:se</title><path fill="none" stroke="#000" d="M351.9884,-86C366.0422,-100.0537 368.2381,-116.2654 358.5761,-130.9935"/><polygon fill="#000" stroke="#000" points="355.639 -129.054 351.988 -139 361.045 -133.502 355.639 -129.054"/><text x="375.871" y="-108.8" fill="#000" font-family="Times,serif" font-size="14" text-anchor="middle">size</text></g><g id="edge24" class="edge"><title>SetValue-&gt;SetEnd</title><path fill="none" stroke="#000" d="M588.8903,-171.9976C597.8704,-181.638 609.4814,-194.1028 619.5547,-204.9167"/><polygon fill="#000" stroke="#000" points="617.181 -207.504 626.558 -212.435 622.303 -202.732 617.181 -207.504"/></g><g id="edge23" class="edge"><title>SetValue-&gt;SetValue</title><path fill="none" stroke="#000" d="M602.2332,-162.7236C613.1537,-163.0225 622.2305,-160.7813 622.2305,-156 622.2305,-152.8623 618.3215,-150.8185 612.5476,-149.8686"/><polygon fill="#000" stroke="#000" points="612.417 -146.356 602.233 -149.276 612.016 -153.344 612.417 -146.356"/><text x="633.113" y="-151.8" fill="#000" font-family="Times,serif" font-size="14" text-anchor="middle">size</text></g><g id="edge30" class="edge"><title>StructValueValue-&gt;StructValueFieldEnd</title><path fill="none" stroke="#000" d="M886.0786,-85.3751C899.7598,-98.4482 919.6235,-117.4291 935.3137,-132.4219"/><polygon fill="#000" stroke="#000" points="932.988 -135.04 942.635 -139.418 937.824 -129.979 932.988 -135.04"/></g></g></svg>