<svg height="64" width="64" xmlns="http://www.w3.org/2000/svg" xmlns:xlink="http://www.w3.org/1999/xlink"><clipPath id="a"><path d="m22.9 13.6h271.8v296.2h-271.8z"/></clipPath><g transform="matrix(.283424 0 0 .283424 -13.064191 3.213972)"><path clip-path="url(#a)" d="m116.7 107.6-14.3-8.9.3 13.6 14.3 8.9zm20.6 47.6-.3-13.3-12.5-7.8c-.2-.1-.4-.3-.5-.4l.3 13.4zm-44.7 17.9-32.7-20.3-.8-34 16-6.9-.3-13.6-25.6 11c-2 .9-3.2 2.7-3.1 4.8l1 40.8c0 2.1 1.3 4.2 3.3 5.4l39.2 24.3c1.8 1.1 4 1.4 5.9.9.2-.1.4-.1.6-.2l24.1-10.4-13.1-8.1z" fill="#b31aab"/><path clip-path="url(#a)" d="m198.3 97.9c-.1-2.4-1.5-4.9-3.9-6.3l-47.6-29.5-1.5.6.3 14.3 37.7 23.4.9 38.2 14.4 8.9.8-.3zm-57 67.1-44.3-27.4-1.1-46 20.2-8.7-.4-15.9-31.3 13.5c-2.3 1-3.7 3.1-3.6 5.6l1.3 54c0 2.5 1.5 4.9 3.9 6.3l51.9 32.2c2.1 1.3 4.7 1.7 6.9 1 .2-.1.4-.2.6-.2l30.6-13.2-15.2-9.4z" fill="#d163ce"/><path clip-path="url(#a)" d="m265.8 60.1-66.5-41.2c-2.5-1.5-5.4-1.9-7.9-1.1-.2.1-.5.2-.7.3l-64.9 28c-2.6 1.1-4.2 3.5-4.1 6.4l1.6 69.2c.1 2.8 1.8 5.6 4.5 7.2l66.5 41.2c2.4 1.5 5.4 1.9 7.9 1.1.2-.1.5-.2.7-.3l64.9-28c2.6-1.1 4.2-3.6 4.1-6.4l-1.6-69.2c-.1-2.8-1.8-5.5-4.5-7.2m-67.6 94.5-57.8-35.8-1.4-60.1 56.4-24.3 57.8 35.8 1.4 60.1z" fill="#e13eaf"/></g></svg>