<?xml version="1.0" standalone="no"?>
<!DOCTYPE svg PUBLIC "-//W3C//DTD SVG 20010904//EN"
 "http://www.w3.org/TR/2001/REC-SVG-20010904/DTD/svg10.dtd">
<svg version="1.0" xmlns="http://www.w3.org/2000/svg"
 width="512.000000pt" height="512.000000pt" viewBox="0 0 512.000000 512.000000"
 preserveAspectRatio="xMidYMid meet">
<metadata>
Created by potrace 1.16, written by Peter Selinger 2001-2019
</metadata>
<g transform="translate(0.000000,512.000000) scale(0.100000,-0.100000)"
fill="#000000" stroke="none">
<path d="M2150 5105 c-8 -9 -21 -13 -33 -9 -11 3 -17 2 -14 -2 3 -5 -11 -10
-31 -10 -34 -2 -87 -10 -87 -14 0 -1 -13 -4 -29 -6 -16 -3 -37 -9 -45 -13 -9
-5 -24 -7 -33 -6 -10 2 -18 -1 -18 -6 0 -4 -7 -6 -15 -3 -8 4 -15 2 -15 -4 0
-5 -12 -8 -26 -6 -15 1 -28 -3 -31 -12 -3 -8 -9 -12 -13 -9 -4 3 -26 -2 -48
-9 -22 -8 -43 -12 -46 -9 -3 3 -8 -2 -12 -11 -3 -9 -10 -13 -15 -10 -5 2 -17
0 -28 -5 -14 -8 -21 -8 -24 2 -3 7 -6 4 -6 -6 -1 -10 -5 -16 -10 -12 -5 3 -12
1 -16 -4 -6 -10 -45 -11 -45 -1 0 3 -12 7 -27 8 -15 1 -30 8 -35 15 -6 9 -8 9
-8 -1 0 -8 -5 -10 -12 -5 -7 4 -29 8 -48 8 -19 0 -40 4 -46 8 -6 3 -14 3 -18
0 -4 -4 -16 -8 -27 -10 -11 -2 -33 -10 -48 -18 -22 -11 -31 -11 -40 -2 -10 9
-11 8 -5 -7 6 -16 4 -18 -14 -14 -15 4 -19 2 -15 -8 3 -8 0 -14 -7 -14 -14 0
-138 -80 -163 -105 -9 -8 -18 -14 -21 -13 -2 2 -16 -7 -30 -19 -14 -13 -26
-21 -26 -18 0 2 -15 -10 -33 -29 -18 -18 -39 -30 -47 -28 -8 3 -12 1 -8 -3 4
-5 -6 -18 -22 -30 -16 -12 -27 -25 -23 -28 3 -4 2 -7 -4 -7 -21 0 -246 -236
-238 -250 5 -8 -24 -25 -38 -21 -5 1 -6 -3 -3 -8 10 -16 -5 -40 -20 -34 -8 3
-14 2 -12 -3 1 -5 -3 -19 -10 -31 -7 -13 -9 -23 -5 -23 4 0 0 -5 -10 -11 -10
-6 -14 -15 -10 -22 5 -9 3 -9 -8 0 -12 10 -15 8 -16 -9 -1 -11 -9 -28 -17 -37
-9 -10 -13 -21 -9 -26 5 -4 3 -5 -3 -2 -7 4 -14 -2 -17 -14 -4 -13 -10 -18
-17 -14 -9 6 -9 2 0 -15 7 -13 8 -20 2 -16 -6 3 -13 -3 -17 -14 -4 -11 -11
-18 -16 -15 -5 3 -6 0 -4 -7 3 -8 -3 -23 -13 -34 -10 -10 -17 -25 -14 -32 2
-6 -1 -12 -8 -12 -6 0 -9 -4 -6 -9 3 -5 -1 -12 -10 -15 -8 -3 -12 -10 -9 -16
3 -5 1 -10 -5 -10 -6 0 -8 -4 -5 -10 3 -5 1 -10 -5 -10 -6 0 -8 -4 -5 -10 3
-5 2 -10 -4 -10 -5 0 -8 -12 -5 -26 3 -16 1 -23 -5 -19 -6 3 -13 -6 -17 -21
-5 -19 -9 -23 -16 -12 -5 8 -6 4 -2 -13 3 -15 1 -30 -5 -33 -6 -4 -11 -16 -11
-27 0 -10 -5 -19 -11 -19 -6 0 -9 -6 -6 -12 2 -7 -3 -19 -12 -25 -13 -10 -13
-14 -3 -21 10 -7 10 -11 -2 -21 -8 -7 -12 -19 -9 -27 3 -8 0 -14 -7 -14 -8 0
-11 -9 -8 -24 4 -17 1 -23 -8 -19 -9 3 -12 -2 -9 -16 2 -11 -1 -23 -6 -26 -5
-4 -7 -11 -4 -16 4 -5 3 -15 -2 -21 -4 -7 -9 -19 -10 -25 -2 -7 -5 -19 -6 -25
-2 -7 -7 -34 -11 -60 -6 -32 -12 -45 -20 -41 -6 4 -5 -1 3 -10 7 -9 9 -17 3
-17 -5 0 -10 -6 -9 -12 1 -40 -4 -59 -15 -52 -7 5 -8 3 -2 -7 12 -20 14 -38 4
-44 -4 -3 -6 -15 -2 -27 3 -11 1 -19 -4 -16 -5 4 -9 -4 -9 -17 0 -13 3 -21 6
-19 4 2 6 -7 5 -21 0 -14 -4 -25 -8 -25 -12 0 -7 -814 6 -822 8 -6 7 -8 -2 -8
-9 0 -10 -5 -2 -19 7 -14 7 -22 0 -26 -8 -5 -7 -12 1 -22 13 -15 17 -37 21
-125 2 -26 8 -50 15 -52 6 -3 9 -14 6 -25 -3 -13 -1 -21 7 -21 10 0 10 -3 0
-15 -7 -9 -8 -15 -2 -15 5 0 9 -14 8 -31 -1 -19 3 -33 12 -36 11 -5 11 -7 0
-14 -10 -7 -10 -9 0 -9 7 0 12 -14 12 -35 0 -22 6 -38 18 -44 11 -7 13 -10 3
-11 -11 0 -11 -3 -1 -15 6 -8 9 -18 6 -24 -3 -5 -1 -11 5 -13 6 -2 11 -20 12
-41 1 -22 4 -32 9 -24 8 12 12 -3 9 -31 -1 -6 3 -12 9 -12 6 0 9 -4 6 -9 -3
-5 1 -14 9 -21 11 -9 12 -17 4 -32 -8 -15 -8 -19 0 -14 6 4 11 2 11 -3 0 -22
2 -26 15 -34 8 -4 12 -14 9 -21 -3 -7 2 -16 10 -19 10 -4 13 -13 9 -23 -3 -9
0 -19 7 -24 6 -4 13 -19 13 -33 1 -14 5 -23 8 -21 10 6 40 -67 33 -78 -4 -7
-2 -8 4 -4 8 5 12 -1 12 -14 0 -12 4 -18 10 -15 6 4 10 3 9 -2 -3 -12 13 -47
25 -55 7 -5 6 -8 -4 -8 -13 -1 -13 -2 1 -13 8 -7 22 -27 30 -44 7 -18 17 -33
21 -33 5 0 8 -7 8 -15 0 -8 9 -24 20 -35 11 -11 20 -22 20 -25 0 -3 0 -12 0
-20 0 -8 8 -15 18 -15 14 0 15 -2 2 -10 -13 -8 -13 -10 2 -10 12 0 16 -6 13
-21 -3 -12 -2 -19 2 -15 9 9 35 -32 28 -44 -4 -6 1 -7 11 -3 14 5 16 2 12 -15
-4 -13 -2 -20 6 -19 6 1 10 -4 9 -10 -2 -7 4 -13 13 -13 8 0 13 -4 10 -9 -3
-4 3 -16 14 -26 11 -10 20 -22 20 -27 0 -5 7 -16 15 -25 8 -8 12 -19 9 -25 -4
-6 -2 -8 3 -5 6 4 21 -9 34 -28 13 -19 28 -35 32 -35 5 0 5 -4 2 -10 -3 -5 -1
-10 5 -10 5 0 18 -13 29 -30 10 -16 21 -27 24 -23 4 3 7 -1 7 -10 0 -10 6 -17
13 -17 6 0 21 -13 32 -29 11 -17 21 -28 23 -26 9 9 33 -26 26 -36 -4 -8 -3 -9
5 -5 6 4 14 0 17 -8 3 -9 10 -16 16 -16 11 0 53 -40 57 -55 1 -5 5 -12 8 -15
4 -3 3 1 -1 8 -4 6 -3 12 2 12 13 0 33 -25 26 -33 -3 -3 2 -4 13 -2 10 2 18 4
18 5 0 1 16 3 35 4 51 5 80 16 80 33 0 8 5 11 10 8 6 -3 10 -1 10 5 0 6 5 8
12 4 6 -4 8 -3 4 4 -3 6 -2 13 4 17 6 4 7 11 4 17 -5 7 -2 9 8 5 12 -4 14 -1
11 14 -3 11 0 19 6 19 7 0 9 5 5 11 -4 7 -1 10 7 7 8 -3 13 -11 11 -18 -2 -10
1 -10 14 1 12 9 15 9 10 2 -4 -8 -1 -13 8 -13 9 0 16 -5 16 -11 0 -5 4 -8 9
-4 6 3 14 -3 20 -12 6 -10 11 -15 11 -10 0 4 19 -2 43 -14 23 -12 44 -22 47
-21 11 1 29 -21 24 -29 -3 -5 0 -9 5 -9 6 0 11 6 11 13 1 8 5 7 13 -4 7 -9 20
-15 30 -13 12 1 17 -2 14 -10 -3 -7 1 -13 9 -13 8 0 14 5 14 11 0 6 5 3 11 -6
6 -11 16 -15 26 -11 11 4 14 3 9 -5 -5 -8 1 -12 18 -12 14 0 28 -4 31 -10 3
-5 21 -10 38 -10 25 0 29 -2 17 -11 -12 -9 -10 -10 8 -6 18 4 22 2 18 -10 -5
-13 -4 -14 8 -4 10 8 16 9 21 1 3 -5 17 -10 31 -10 14 0 23 -3 21 -8 -3 -4 11
-8 30 -8 19 -1 39 -8 44 -15 7 -12 9 -11 9 1 0 9 3 11 8 5 8 -11 33 -18 75
-19 15 -1 27 -4 27 -8 0 -5 13 -8 28 -8 15 0 34 -6 41 -13 11 -10 12 -9 6 2
-6 10 -4 12 6 5 8 -5 28 -10 44 -12 17 -1 38 -4 48 -5 9 -1 17 -6 17 -12 0 -5
5 -3 10 5 6 10 10 11 10 3 0 -7 8 -12 18 -11 52 4 93 -3 86 -14 -5 -8 0 -7 11
2 11 9 16 10 11 3 -4 -7 -2 -13 3 -13 6 0 11 5 11 11 0 8 6 7 17 -2 15 -12 16
-12 8 1 -7 13 -6 13 7 2 11 -9 18 -10 23 -2 3 6 12 7 18 3 6 -4 59 -8 117 -10
58 -2 111 -5 118 -8 6 -2 12 -1 12 3 0 4 31 7 69 7 45 0 67 -3 63 -10 -3 -5 2
-3 13 5 10 8 20 14 22 13 1 -2 4 -3 6 -2 23 7 36 5 30 -4 -4 -7 1 -6 10 2 9 7
24 11 32 7 8 -3 15 0 15 6 0 6 6 5 17 -3 11 -10 14 -10 9 -1 -9 15 -1 15 26 1
15 -8 19 -8 14 0 -7 11 -2 13 47 14 15 1 27 5 27 9 0 5 10 4 21 -3 12 -6 19
-7 15 -1 -3 5 1 12 8 15 8 3 17 1 20 -6 3 -8 10 -6 20 7 9 11 16 15 16 10 0
-6 7 -11 15 -11 8 0 12 4 9 8 -7 12 20 17 40 7 13 -7 16 -7 12 1 -6 10 13 16
37 12 4 0 7 4 7 10 0 8 4 8 14 0 11 -10 17 -8 25 6 6 10 11 14 11 10 0 -4 10
-2 23 5 12 7 29 11 39 10 9 -2 19 2 23 8 3 5 15 10 25 10 10 0 25 6 32 13 15
14 37 15 55 4 9 -6 11 -3 6 9 -5 14 -3 16 11 11 10 -4 15 -3 11 3 -3 6 3 10
14 10 12 0 21 4 21 9 0 6 9 8 19 6 15 -3 18 1 14 12 -4 10 -2 14 5 10 6 -4 36
7 66 23 31 17 61 28 66 25 6 -4 9 -1 8 7 -2 7 3 12 10 11 6 -2 12 2 12 7 0 6
7 10 15 10 8 0 15 4 15 10 0 5 3 9 8 8 4 -1 20 6 35 16 15 10 30 16 34 12 3
-3 0 -6 -7 -6 -10 0 -10 -4 2 -17 8 -10 14 -28 13 -40 -1 -15 3 -19 13 -15 10
3 13 1 8 -6 -4 -7 -1 -12 7 -12 8 0 19 -10 25 -22 6 -13 11 -17 11 -10 1 7 6
10 11 7 6 -4 8 -10 5 -15 -6 -9 34 -5 43 5 3 2 11 0 19 -6 10 -9 13 -8 13 1 0
10 3 10 15 0 11 -9 15 -9 15 -1 0 7 5 9 10 6 6 -3 10 -1 10 6 0 7 3 10 6 6 4
-3 12 -1 19 6 7 7 25 21 41 32 41 29 104 93 104 106 0 6 7 8 16 5 8 -3 12 -2
9 3 -3 6 1 13 9 18 8 4 16 12 18 18 2 5 6 9 11 8 4 -2 7 2 7 8 0 16 62 89 71
83 5 -3 6 2 3 11 -5 11 0 18 14 22 14 3 19 10 15 21 -4 10 -2 13 5 8 6 -3 13
-2 17 4 3 5 1 10 -5 10 -6 0 -8 5 -5 10 4 6 11 8 16 5 5 -4 9 -1 9 5 0 7 7 9
16 6 13 -5 14 -4 6 7 -15 18 14 61 35 52 13 -4 14 -3 4 9 -10 12 -8 19 8 35
12 12 21 23 21 26 0 14 58 93 64 88 4 -4 4 0 0 10 -4 11 0 19 10 23 9 3 14 10
11 14 -3 4 4 19 15 33 11 14 20 30 20 36 0 6 5 11 11 11 5 0 8 4 5 9 -3 5 1
12 10 15 9 4 14 13 10 21 -3 10 1 15 12 15 12 0 13 3 4 8 -9 6 -7 14 9 31 12
12 19 25 15 28 -3 3 2 12 10 20 8 8 12 18 9 23 -3 4 2 11 11 14 9 3 14 13 10
21 -3 8 1 20 8 27 7 7 11 19 8 26 -2 6 1 12 8 12 6 0 8 5 5 10 -3 6 -1 10 5
10 7 0 10 6 7 13 -2 6 3 18 12 25 9 8 10 11 4 7 -16 -8 -6 23 14 47 8 9 12 22
8 27 -3 6 -1 11 5 11 6 0 8 5 5 10 -3 5 0 10 7 10 10 0 10 2 -1 9 -9 6 -10 10
-2 12 7 3 13 14 14 27 0 12 4 22 7 22 3 0 7 14 8 32 2 17 7 37 12 43 5 7 7 15
3 18 -3 4 2 7 13 7 14 0 16 2 5 9 -10 7 -11 13 -2 30 7 12 9 26 6 31 -3 6 -2
10 3 10 5 0 9 6 10 13 9 67 21 99 35 90 9 -5 8 -2 0 8 -10 13 -10 19 1 34 7
10 11 27 8 37 -2 10 1 18 7 18 5 0 8 7 5 15 -4 9 -1 15 7 15 10 0 10 3 1 12
-8 8 -6 18 10 41 12 17 16 27 8 22 -10 -6 -12 -4 -7 9 4 10 7 20 7 22 0 3 4 3
9 0 11 -7 9 13 -2 32 -5 6 -4 12 1 12 4 0 8 16 7 35 -1 20 2 32 8 28 5 -3 6 3
2 17 -6 17 -4 21 6 14 12 -6 12 -5 1 8 -8 10 -9 18 -3 22 6 4 7 14 4 22 -3 9
0 20 8 25 11 7 11 9 1 9 -7 0 -10 5 -7 10 11 18 14 78 14 270 0 232 -2 320 -9
320 -3 0 -6 19 -6 43 -1 69 -8 117 -18 117 -5 0 -6 3 -3 7 4 3 2 12 -4 20 -9
10 -7 13 7 13 16 0 17 2 4 10 -14 9 -18 23 -23 82 -1 14 -6 24 -11 20 -5 -3
-7 2 -3 11 3 9 2 19 -4 23 -6 4 -5 12 3 22 8 9 8 13 2 9 -15 -9 -26 17 -13 30
7 7 6 15 -3 24 -13 14 -15 21 -21 57 -1 9 -7 23 -11 31 -7 10 -5 12 3 6 8 -4
7 2 -3 17 -9 14 -13 28 -9 31 3 4 1 7 -5 7 -6 0 -9 7 -6 15 4 8 1 15 -6 15 -6
0 -8 5 -4 11 3 6 0 15 -7 20 -11 7 -11 9 -1 9 10 0 10 3 -1 15 -9 8 -14 23
-13 32 2 10 -3 24 -11 32 -8 7 -12 20 -9 27 3 8 1 14 -5 14 -6 0 -8 4 -5 9 3
5 -1 14 -9 21 -8 7 -12 16 -9 22 3 5 0 15 -6 23 -6 8 -9 18 -6 24 3 5 -1 12
-10 15 -9 3 -14 13 -11 20 3 8 3 16 -1 18 -13 6 -42 79 -36 90 4 6 3 8 -2 5
-6 -3 -16 3 -23 15 -10 16 -10 19 1 13 7 -3 5 0 -6 9 -10 8 -15 19 -12 24 3 6
-1 13 -10 16 -9 4 -14 9 -11 12 3 4 -1 13 -9 21 -8 9 -13 22 -10 30 3 8 2 12
-2 9 -4 -3 -14 4 -21 16 -10 16 -10 19 1 12 14 -8 -20 36 -37 48 -5 4 -6 8 -2
8 4 0 -1 10 -13 22 -22 24 -27 44 -8 32 7 -4 8 -3 4 4 -4 7 -14 12 -22 12 -8
0 -14 5 -14 10 0 20 -3 25 -21 38 -11 7 -19 20 -19 28 0 8 -4 12 -10 9 -9 -6
-15 17 -10 40 1 6 -1 7 -5 3 -7 -7 -35 15 -35 27 0 13 -28 34 -35 27 -5 -4 -5
-2 -2 4 3 6 -5 22 -19 37 -14 15 -23 27 -20 27 2 0 -17 22 -44 49 -27 27 -46
52 -43 55 4 3 -1 6 -10 6 -8 0 -19 9 -22 20 -3 11 -12 20 -20 20 -8 0 -17 9
-20 20 -3 11 -13 20 -21 20 -11 0 -14 6 -9 23 4 12 3 17 -2 10 -6 -8 -13 -8
-27 3 -17 12 -17 16 -5 31 13 17 13 17 -5 3 -16 -13 -20 -12 -31 3 -6 9 -16
13 -20 9 -5 -4 -5 1 -2 10 4 11 2 15 -6 12 -15 -5 -59 41 -49 51 4 3 -1 3 -11
-1 -10 -3 -17 -1 -17 5 0 6 -6 11 -14 11 -8 0 -16 7 -20 15 -3 8 -12 15 -21
15 -8 0 -15 5 -15 10 0 6 -6 10 -12 10 -7 0 -27 13 -44 30 -18 16 -34 27 -36
24 -3 -2 -11 2 -18 11 -7 8 -19 15 -26 15 -8 0 -14 4 -14 8 0 8 -15 12 -53 13
-12 0 -17 5 -13 15 5 13 3 13 -16 0 -13 -9 -27 -12 -37 -7 -9 5 -25 7 -36 4
-11 -2 -31 -6 -45 -9 -14 -3 -35 -6 -47 -6 -13 -1 -23 -6 -23 -11 0 -4 -4 -6
-9 -3 -5 4 -12 0 -14 -6 -4 -10 -6 -10 -6 0 -1 10 -5 9 -17 -3 -14 -13 -19
-14 -25 -3 -5 7 -9 10 -9 5 0 -4 -13 -1 -29 7 -16 9 -31 12 -35 9 -3 -4 -6 -1
-6 5 0 7 -3 11 -7 11 -5 -1 -11 0 -15 1 -13 4 -27 7 -39 9 -5 0 -8 4 -6 9 3 4
-11 8 -30 9 -19 1 -40 6 -46 11 -7 5 -20 8 -29 7 -10 -2 -20 1 -24 6 -3 5 -10
7 -15 4 -5 -4 -9 -2 -9 2 0 8 -23 13 -67 16 -7 0 -13 4 -13 8 0 4 -9 6 -20 4
-11 -2 -22 1 -25 6 -4 5 -11 7 -16 3 -5 -3 -15 -2 -22 3 -7 4 -21 8 -32 8 -11
0 -26 6 -33 15 -8 8 -11 10 -8 3 6 -11 -4 -12 -57 -4 -5 0 -5 7 -1 14 6 10 4
10 -7 0 -7 -7 -20 -13 -28 -13 -13 0 -13 2 -2 9 7 5 -143 9 -348 9 -253 1
-361 -2 -361 -10 0 -7 -4 -7 -14 1 -10 9 -16 8 -26 -4z m688 -69 c38 -7 70
-12 135 -21 39 -6 93 -19 272 -68 49 -13 175 -62 175 -68 0 -7 -31 -35 -36
-32 -2 1 -11 0 -21 -4 -9 -4 -54 6 -99 22 -46 15 -87 27 -91 27 -4 0 -12 3
-18 8 -5 4 -26 11 -45 16 -49 11 -49 11 -55 14 -6 3 -9 4 -55 13 -19 4 -46 9
-60 12 -72 15 -99 19 -210 31 -50 5 -203 5 -265 0 -151 -13 -192 -17 -205 -21
-8 -2 -37 -6 -65 -10 -27 -3 -57 -8 -65 -10 -8 -2 -28 -7 -45 -10 -16 -2 -41
-7 -55 -10 -14 -3 -36 -8 -48 -11 -13 -3 -43 -11 -65 -20 -42 -15 -63 -21
-104 -28 -12 -3 -30 -9 -41 -15 -25 -13 -57 -14 -80 -2 -9 5 -26 12 -37 16
-20 6 -20 7 -1 17 23 13 224 73 281 84 51 10 54 11 58 14 6 5 144 30 187 34
14 1 30 4 35 7 6 3 25 5 43 3 17 -1 32 1 32 5 0 3 21 6 48 6 26 0 65 2 87 5
48 7 366 4 413 -4z m-180 -128 c6 -1 12 -6 12 -12 0 -6 4 -5 9 3 6 9 11 10 15
2 5 -8 13 -8 27 -1 14 8 19 7 19 -1 0 -6 7 -9 15 -6 8 4 17 1 21 -5 4 -7 9 -6
14 2 5 8 12 7 24 -5 12 -12 16 -13 16 -3 1 8 6 6 15 -6 8 -11 15 -15 15 -9 0
12 47 5 55 -8 3 -4 12 -6 21 -2 8 3 24 -3 36 -13 12 -11 18 -13 14 -6 -7 11
-4 12 11 3 11 -6 23 -7 27 -4 3 3 6 1 6 -6 0 -7 4 -10 9 -7 4 3 16 -1 27 -8
10 -8 23 -12 29 -10 6 3 20 -4 32 -15 16 -15 23 -17 33 -8 10 9 11 9 6 0 -5
-9 1 -13 17 -13 14 0 30 -7 37 -15 7 -8 16 -12 21 -9 5 3 8 -6 7 -20 -1 -13
-5 -23 -9 -20 -4 2 -12 -10 -19 -26 -7 -17 -16 -30 -21 -30 -5 0 -9 -10 -9
-23 0 -13 -3 -27 -7 -31 -5 -4 -8 -11 -8 -14 -1 -4 -6 -17 -13 -28 -6 -12 -9
-24 -6 -27 3 -3 -3 -3 -15 0 -12 3 -18 10 -14 17 4 6 -1 5 -11 -3 -10 -9 -20
-11 -24 -5 -4 5 -23 10 -42 12 -53 3 -88 9 -99 17 -6 3 -11 2 -11 -4 0 -7 -9
-7 -22 -3 -13 5 -35 7 -51 6 -18 -2 -26 1 -21 9 3 7 -1 4 -9 -6 -11 -13 -17
-15 -22 -7 -5 8 -10 9 -18 1 -7 -7 -14 -7 -24 0 -9 8 -13 8 -13 0 0 -6 -15
-11 -33 -11 -18 0 -38 -5 -45 -12 -9 -9 -12 -9 -12 1 0 11 -3 11 -17 0 -15
-12 -16 -12 -8 1 7 12 6 13 -6 4 -21 -16 -72 -17 -63 -1 5 8 2 7 -9 -2 -14
-11 -17 -11 -17 0 0 8 -6 6 -16 -7 -8 -10 -13 -13 -9 -7 4 9 -2 13 -17 13 -13
0 -76 1 -140 3 -64 1 -114 -1 -111 -6 3 -5 -4 -4 -15 2 -14 7 -23 8 -27 1 -3
-5 -11 -10 -16 -10 -6 0 -7 5 -3 11 5 8 1 8 -14 0 -11 -6 -31 -11 -44 -11 -13
0 -29 -5 -36 -12 -9 -9 -12 -9 -12 3 0 9 -3 10 -8 3 -6 -10 -68 -35 -99 -40
-7 -1 -13 4 -13 12 0 8 -4 14 -10 14 -5 0 -10 9 -10 19 0 11 -4 23 -10 26 -5
3 -10 15 -10 26 0 11 -7 27 -15 36 -8 8 -13 19 -10 24 4 5 1 9 -5 9 -6 0 -9 4
-6 9 3 5 -1 11 -9 15 -8 3 -15 12 -15 21 0 8 -6 15 -14 15 -7 0 -16 9 -19 21
-3 12 -10 18 -16 14 -7 -4 -10 2 -8 16 3 14 12 24 27 26 13 2 29 8 36 14 7 6
26 11 43 11 17 1 28 5 25 9 -2 4 5 6 16 4 11 -2 20 1 20 8 0 8 3 8 11 0 9 -9
18 -7 37 5 21 14 25 14 18 2 -4 -8 0 -6 8 4 9 11 16 16 16 12 0 -5 8 -2 17 5
14 12 16 12 8 0 -6 -11 -4 -13 11 -6 10 4 27 8 36 9 10 1 21 5 24 9 4 4 14 1
22 -6 13 -10 14 -9 7 2 -6 11 -4 13 8 8 10 -3 17 -2 17 3 0 12 22 9 32 -5 5
-6 8 -5 8 4 0 7 6 11 15 7 8 -3 15 0 15 7 0 8 4 6 10 -3 7 -10 10 -11 10 -2 0
8 9 11 24 8 13 -2 27 -2 30 2 11 10 70 10 84 -1 9 -7 11 -6 7 4 -4 11 12 14
92 11 54 -1 104 -3 111 -4z m1132 -102 c0 -5 3 -7 6 -3 14 14 151 -58 195
-102 9 -9 29 -25 45 -36 56 -40 91 -72 199 -180 126 -126 139 -141 221 -250
70 -92 124 -176 145 -222 7 -18 17 -33 21 -33 5 0 8 -5 8 -11 0 -6 29 -69 65
-140 36 -72 65 -136 65 -144 0 -8 4 -15 10 -15 5 0 9 -3 8 -7 -1 -8 5 -26 24
-73 18 -43 98 -287 102 -312 3 -13 5 -23 6 -23 2 0 9 -34 14 -67 3 -15 7 -32
11 -37 3 -6 6 -26 7 -46 1 -19 4 -35 7 -35 3 0 7 -10 7 -22 1 -13 5 -43 8 -68
18 -128 23 -225 20 -430 -1 -124 -5 -236 -7 -250 -3 -14 -8 -42 -11 -63 -14
-88 -18 -114 -22 -146 -2 -19 -9 -55 -15 -80 -6 -25 -12 -54 -14 -64 -9 -44
-38 -149 -62 -227 -15 -47 -27 -87 -28 -90 -14 -73 -151 -380 -244 -545 -147
-261 -446 -606 -538 -619 -18 -3 -42 20 -43 41 0 10 64 83 74 83 21 0 169 150
246 250 19 25 39 48 45 52 6 5 6 8 0 8 -6 0 -6 3 0 8 6 4 22 23 35 42 13 19
29 38 35 42 5 4 6 8 1 8 -5 0 -2 8 8 18 58 65 310 598 329 699 2 10 7 25 10
33 10 26 47 193 52 236 2 12 7 30 12 40 5 11 9 26 8 34 -1 8 2 23 7 32 8 17
21 80 22 111 0 9 4 17 9 17 4 0 6 3 3 8 -2 4 0 30 5 57 25 130 27 435 5 590
-2 17 -7 50 -10 75 -3 25 -8 56 -11 70 -3 14 -7 41 -10 60 -7 53 -14 87 -35
175 -10 44 -21 91 -23 105 -3 14 -16 68 -31 120 -14 52 -28 110 -31 129 -3 19
-8 38 -11 43 -3 4 -7 16 -9 25 -4 21 -43 119 -58 148 -37 71 -59 110 -69 123
-7 8 -13 18 -12 21 2 9 -44 79 -74 114 -138 159 -190 209 -290 278 -72 50
-282 163 -282 152 0 -3 -6 -1 -12 4 -19 15 -78 34 -124 39 -49 7 -66 -9 -69
-64 -4 -52 26 -89 94 -119 31 -13 64 -28 73 -34 10 -5 22 -9 27 -9 20 0 143
-62 207 -105 37 -25 68 -45 70 -45 11 0 146 -131 187 -181 46 -57 199 -320
202 -349 0 -3 6 -14 12 -25 5 -11 16 -38 22 -60 7 -22 15 -47 18 -55 13 -33
26 -117 25 -167 0 -59 -69 -186 -140 -261 -66 -70 -82 -79 -140 -81 -137 -4
-228 121 -362 495 -50 139 -72 185 -128 268 -66 98 -148 206 -212 276 -17 19
-57 64 -88 100 -99 113 -226 229 -308 280 l-22 13 23 67 c25 73 60 134 107
186 39 42 192 117 258 126 48 7 120 3 120 -6z m-2325 -9 c40 -12 49 -14 58
-16 4 0 28 -12 55 -25 115 -59 194 -156 246 -304 l15 -41 -97 -72 c-155 -116
-362 -334 -480 -505 -15 -22 -103 -188 -107 -204 -1 -3 -5 -18 -10 -35 -4 -16
-11 -34 -15 -40 -4 -5 -13 -28 -20 -50 -7 -22 -16 -44 -21 -50 -5 -5 -9 -15
-9 -21 0 -30 -90 -201 -161 -306 -88 -129 -165 -164 -261 -119 -55 26 -66 35
-115 101 -94 126 -127 255 -99 383 24 108 171 380 275 507 39 49 159 170 206
210 53 44 153 108 190 121 19 7 35 16 35 20 0 4 10 9 23 12 12 3 41 13 65 21
24 9 51 17 60 19 9 1 23 6 30 10 6 5 16 6 20 3 11 -7 83 31 100 52 6 9 12 26
12 38 0 25 -38 66 -66 71 -21 3 -121 -20 -184 -42 -22 -8 -40 -12 -40 -10 0 2
-32 -9 -71 -26 -185 -76 -405 -274 -553 -497 -83 -125 -160 -266 -189 -347 -8
-22 -29 -78 -47 -125 -18 -47 -33 -94 -35 -105 -1 -11 -4 -27 -7 -35 -13 -35
-32 -106 -30 -112 1 -4 -2 -18 -7 -31 -5 -13 -12 -41 -15 -63 -4 -21 -8 -46
-11 -54 -2 -8 -6 -35 -9 -60 -3 -25 -8 -54 -10 -65 -4 -20 -12 -95 -22 -195
-6 -66 -6 -384 0 -456 5 -50 12 -107 20 -149 2 -11 7 -40 12 -65 4 -25 8 -47
9 -50 1 -3 7 -32 14 -65 7 -33 18 -68 23 -78 5 -10 11 -26 13 -35 7 -34 56
-188 71 -227 9 -22 18 -47 19 -55 8 -32 31 -85 40 -92 6 -4 6 -8 2 -8 -5 0 -1
-12 7 -27 8 -16 40 -78 70 -140 31 -62 67 -130 81 -153 14 -22 25 -44 25 -50
0 -5 5 -10 10 -10 6 0 10 -7 10 -15 0 -8 5 -15 10 -15 6 0 10 -5 10 -11 0 -13
116 -182 188 -274 30 -38 104 -120 164 -181 125 -126 130 -132 121 -159 -16
-52 -49 -35 -177 91 -55 55 -174 187 -194 216 -9 12 -19 25 -23 28 -15 11
-170 256 -175 277 -4 13 -10 23 -15 23 -5 0 -8 3 -7 8 2 8 -23 64 -32 72 -9 7
-130 261 -136 283 -1 4 -2 8 -4 10 -1 1 -3 11 -5 21 -2 10 -9 22 -15 26 -7 4
-11 9 -9 11 2 4 -33 118 -48 159 -3 8 -7 20 -9 25 -1 6 -12 35 -22 65 -11 30
-29 93 -40 140 -12 47 -24 99 -28 115 -4 17 -7 42 -8 57 0 16 -3 28 -6 28 -3
0 -6 8 -6 18 -1 9 -4 33 -8 52 -12 59 -18 196 -18 395 1 206 6 292 26 414 3
14 8 46 11 71 4 24 8 47 10 50 2 3 6 24 9 46 4 23 11 55 16 72 5 18 7 32 5 32
-2 0 2 18 10 39 7 22 11 42 8 45 -4 3 -1 6 6 6 7 0 10 4 7 9 -3 5 4 37 15 72
12 35 22 69 24 74 2 11 7 23 38 105 12 30 24 57 27 60 3 3 6 12 8 20 7 31 97
215 109 223 8 5 11 11 9 15 -9 15 194 306 246 353 10 9 18 22 18 28 0 7 5 9
10 6 6 -3 10 -2 10 4 0 6 23 32 51 58 72 67 78 72 144 127 33 28 68 58 77 67
10 10 34 30 55 46 21 15 40 30 43 33 5 6 54 35 132 78 21 12 52 26 70 31 40
12 132 11 173 -2z m1445 -400 c79 -12 102 -18 157 -37 63 -22 167 -79 203
-110 14 -12 36 -29 49 -38 61 -41 158 -134 251 -241 30 -35 62 -71 71 -80 52
-53 133 -163 180 -247 20 -36 69 -170 67 -182 -1 -4 2 -15 7 -25 4 -10 5 -20
2 -23 -3 -4 -2 -16 3 -29 17 -44 24 -154 24 -380 0 -207 -8 -367 -18 -384 -3
-4 -7 -25 -10 -47 -4 -23 -11 -55 -16 -73 -10 -35 -11 -41 -15 -56 -12 -52
-49 -139 -102 -239 -34 -67 -82 -158 -104 -204 -23 -45 -44 -80 -46 -78 -4 4
-16 48 -57 216 -3 8 -14 49 -26 90 -11 41 -23 82 -25 90 -2 8 -8 30 -14 48 -5
18 -10 33 -10 35 1 12 -22 56 -35 66 -21 17 -61 17 -82 0 -12 -10 -15 -25 -10
-73 10 -101 31 -203 52 -251 18 -41 54 -162 60 -204 3 -19 10 -44 14 -56 16
-43 3 -160 -24 -214 -60 -118 -167 -170 -364 -175 -48 -1 -103 1 -122 5 -19 4
-48 10 -65 13 -43 8 -145 60 -181 93 -30 27 -104 159 -104 185 0 9 19 13 63
15 82 2 145 30 208 93 78 79 113 167 112 290 0 62 -27 150 -45 150 -5 0 -8 6
-8 13 0 11 -102 92 -118 92 -4 1 -18 7 -31 14 -13 7 -33 14 -45 16 -11 2 -41
7 -66 11 -58 10 -212 10 -270 0 -117 -20 -231 -83 -274 -150 -14 -23 -25 -43
-24 -46 1 -3 -4 -15 -11 -28 -16 -29 -16 -126 -1 -183 7 -24 13 -48 15 -54 16
-72 128 -200 183 -210 9 -2 17 -4 17 -5 0 -5 47 -10 100 -11 33 -1 63 -4 67
-6 5 -2 1 -17 -7 -34 -9 -16 -14 -29 -11 -29 6 0 -51 -112 -66 -130 -17 -20
-98 -83 -98 -76 0 3 -16 -2 -36 -10 -88 -37 -264 -36 -384 2 -98 32 -175 95
-206 171 -20 46 -12 216 14 318 12 44 23 91 26 105 3 14 10 43 15 65 12 49 18
79 36 175 12 65 12 78 0 97 -22 33 -80 16 -102 -29 -12 -23 -80 -265 -89 -314
-3 -15 -10 -36 -15 -46 -6 -11 -8 -22 -5 -25 3 -4 2 -11 -3 -17 -6 -7 -12 -24
-15 -38 -9 -50 -18 -59 -41 -39 -27 23 -179 308 -190 356 -1 6 -8 24 -15 40
-14 32 -20 51 -24 75 -1 9 -5 20 -8 25 -3 6 -9 28 -13 50 -5 22 -9 45 -11 50
-1 6 -5 24 -8 40 -3 17 -8 41 -11 55 -27 128 -21 667 9 790 3 14 8 34 10 45 8
39 44 131 71 185 94 186 367 481 572 619 68 45 208 105 223 96 6 -3 10 -2 10
2 0 5 10 9 23 10 12 1 38 4 57 7 19 4 114 9 210 12 96 3 175 6 176 7 5 5 285
-1 324 -6z m-2524 -1247 c-1 -7 40 -55 92 -107 23 -24 40 -48 37 -53 -3 -6 1
-7 10 -4 16 7 59 -32 50 -46 -2 -3 2 -7 10 -7 11 0 12 4 4 16 -6 9 5 -2 25
-24 24 -25 35 -32 31 -20 -3 11 1 8 10 -7 8 -16 21 -28 28 -28 8 0 6 -4 -3
-10 -8 -5 -11 -10 -6 -10 5 0 -13 -22 -40 -50 -64 -65 -85 -90 -78 -90 4 0 -5
-11 -19 -24 -14 -13 -23 -27 -19 -31 4 -4 -2 -13 -12 -21 -11 -8 -16 -14 -11
-14 5 0 0 -7 -11 -16 -10 -8 -13 -13 -7 -9 9 4 11 1 7 -9 -3 -9 -10 -16 -16
-16 -5 0 -7 -4 -3 -9 3 -5 1 -12 -5 -16 -6 -4 -8 -10 -5 -15 3 -5 -2 -16 -11
-24 -10 -10 -11 -16 -3 -16 7 0 8 -4 2 -12 -9 -13 -16 -64 -16 -120 1 -17 -4
-25 -10 -21 -6 4 -7 1 -3 -6 5 -7 9 -56 11 -109 2 -53 8 -109 13 -123 6 -15 8
-29 6 -32 -11 -11 57 -125 102 -172 60 -63 126 -96 191 -96 61 -1 131 26 163
63 35 39 48 36 65 -12 1 -3 5 -12 8 -20 7 -15 54 -152 62 -180 40 -139 49
-190 48 -265 -3 -124 -33 -178 -103 -181 -62 -2 -89 45 -106 181 -16 130 -103
226 -199 220 -58 -4 -66 -7 -104 -42 -35 -32 -51 -34 -51 -7 0 8 -5 14 -10 14
-6 0 -9 3 -8 8 1 4 -4 21 -11 37 -7 17 -14 37 -16 45 -2 8 -13 38 -23 67 -11
28 -17 54 -14 57 3 3 0 6 -7 6 -7 0 -11 6 -9 12 3 7 -1 24 -8 37 -7 14 -11 28
-8 33 3 4 1 8 -4 8 -5 0 -9 6 -10 13 -1 15 -7 38 -15 57 -4 8 -8 26 -9 40 -2
14 -10 30 -18 37 -13 11 -12 12 5 13 18 1 18 2 -2 10 -13 6 -23 18 -23 30 0
31 -1 34 -13 49 -9 11 -9 13 0 8 8 -5 8 1 -2 20 -7 16 -16 45 -20 66 -5 31 -3
37 7 32 7 -3 6 0 -3 7 -12 10 -14 19 -8 36 6 17 5 21 -3 16 -7 -5 -9 -2 -5 8
3 9 3 19 -1 22 -7 8 -11 43 -15 146 -1 41 -6 81 -10 88 -5 7 -4 12 2 12 6 0 9
10 7 23 -2 12 1 27 6 34 6 7 5 14 -3 19 -8 5 -9 3 -4 -6 5 -9 4 -11 -4 -6 -6
4 -8 12 -4 19 9 15 8 60 -2 77 -5 8 -4 11 3 6 6 -4 10 5 8 26 -1 18 2 41 6 51
6 11 5 17 -4 18 -7 0 -4 4 7 9 11 5 15 9 9 9 -13 1 -15 31 -2 31 5 0 5 7 0 16
-12 22 -3 56 12 47 6 -4 5 1 -3 10 -9 11 -10 17 -2 17 6 0 11 5 11 11 0 5 -4
7 -10 4 -7 -4 -7 3 0 20 5 14 9 29 8 33 -5 20 15 72 25 66 8 -5 8 -3 0 6 -10
11 -9 16 5 27 11 10 12 12 2 7 -12 -6 -13 -4 -2 7 15 16 16 33 0 23 -7 -4 -8
-3 -4 5 6 8 16 4 36 -16 15 -15 27 -30 26 -33z m3709 -52 c32 -62 76 -131 95
-148 4 -3 19 -23 35 -45 17 -22 32 -42 35 -45 34 -33 177 -246 213 -315 54
-105 64 -146 61 -251 -1 -55 -5 -115 -9 -134 -4 -19 -8 -47 -10 -61 -5 -35
-31 -96 -48 -113 -22 -22 -74 -46 -109 -50 -44 -5 -74 11 -99 50 -19 31 -24
63 -33 189 -7 108 -39 255 -82 377 -53 153 -79 245 -90 319 -8 64 -11 308 -2
303 4 -3 23 -37 43 -76z m-3030 -12 c-3 -47 -12 -115 -21 -153 -9 -37 -17 -75
-19 -83 -2 -8 -12 -48 -23 -87 -12 -40 -19 -73 -17 -73 2 0 -2 -15 -10 -34 -8
-18 -16 -44 -18 -57 -3 -13 -10 -42 -15 -64 -13 -46 -22 -96 -27 -140 -2 -16
-7 -48 -10 -70 -4 -22 -8 -99 -9 -171 -3 -141 -14 -185 -49 -201 -50 -22 -144
6 -216 65 -66 54 -82 102 -86 272 -2 76 2 116 13 145 15 39 90 160 124 200 9
11 46 58 82 105 78 101 107 138 122 154 19 19 114 156 109 156 -2 0 7 17 21
37 13 20 27 47 30 60 13 51 23 18 19 -61z m3654 37 c-7 -7 -6 -14 2 -19 8 -5
9 -3 4 6 -5 9 -4 11 4 6 6 -4 9 -16 6 -27 -4 -10 -2 -19 4 -19 7 0 7 -9 1 -27
-9 -26 -9 -26 4 -9 14 17 15 17 12 -6 -1 -13 -6 -29 -10 -36 -4 -8 -3 -11 4
-10 7 2 14 -7 16 -20 3 -16 0 -21 -8 -17 -7 4 -5 0 5 -8 10 -8 15 -21 11 -30
-3 -9 -1 -24 4 -33 6 -11 7 -27 1 -42 -6 -15 -5 -21 1 -17 6 3 10 2 10 -4 0
-5 -5 -13 -11 -16 -7 -5 -4 -14 7 -26 11 -12 13 -19 5 -19 -8 0 -9 -5 -2 -17
7 -12 5 -21 -7 -30 -13 -10 -13 -13 -3 -11 17 3 22 -53 6 -64 -7 -5 -6 -8 1
-8 6 0 10 -16 8 -37 -1 -21 3 -44 9 -51 7 -9 6 -11 -8 -6 -14 6 -16 4 -10 -6
14 -22 11 -74 -5 -88 -8 -8 -9 -11 -2 -7 8 4 12 -2 12 -20 0 -16 -4 -24 -11
-19 -8 5 -8 1 0 -14 8 -15 8 -23 0 -28 -8 -4 -7 -9 2 -15 8 -5 9 -9 3 -9 -6 0
-11 -6 -12 -12 -6 -76 -13 -113 -21 -121 -15 -15 -14 -30 1 -21 7 5 8 3 2 -7
-9 -15 -12 -27 -18 -69 -2 -14 -7 -36 -10 -50 -3 -14 -17 -77 -30 -140 -14
-64 -32 -136 -41 -160 -9 -25 -17 -49 -19 -55 -10 -39 -22 -62 -39 -77 -24
-22 -28 -22 -74 -3 -81 34 -154 13 -205 -59 -32 -46 -39 -63 -42 -103 0 -13
-3 -23 -6 -23 -3 0 -5 -15 -6 -32 -3 -103 -5 -114 -28 -142 -20 -26 -30 -30
-71 -30 -56 0 -77 20 -96 87 -14 50 -16 170 -4 247 4 30 9 64 11 75 1 11 3 20
4 20 1 0 3 7 5 15 13 62 60 229 70 249 l12 23 23 -33 c48 -68 84 -89 163 -94
56 -4 100 12 144 52 33 30 95 123 107 161 4 12 11 22 15 22 4 0 8 6 9 13 0 6
3 22 6 35 3 12 8 32 11 45 5 23 16 136 19 197 1 19 5 41 9 48 5 6 4 12 0 12
-11 0 -11 41 0 57 6 9 3 11 -7 7 -11 -4 -14 0 -11 15 2 12 0 21 -5 21 -5 0 -7
9 -5 20 2 11 -1 20 -6 20 -6 0 -7 5 -4 10 3 6 1 10 -6 10 -7 0 -9 8 -6 21 3
12 3 18 0 15 -10 -10 -55 64 -49 80 3 7 1 13 -3 11 -12 -3 -61 55 -61 71 0 7
-4 10 -10 7 -5 -3 -10 3 -10 15 0 12 -4 18 -10 15 -5 -3 -10 1 -10 9 0 9 -5
16 -11 16 -5 0 -7 5 -4 10 3 6 1 10 -5 10 -22 0 -43 29 -31 44 6 7 9 15 6 18
-3 3 1 11 10 18 8 7 15 19 15 26 0 8 7 14 15 14 9 0 18 7 21 15 4 8 12 15 20
15 8 0 14 3 14 8 0 4 20 20 45 37 24 16 41 33 38 39 -4 5 1 7 11 3 10 -4 15
-3 11 3 -3 6 1 13 9 16 8 3 18 15 22 26 5 16 8 18 15 7 7 -12 9 -11 10 1 1 8
1 19 0 23 -1 5 3 6 9 2 5 -3 10 -1 10 5 0 7 5 6 14 -2 9 -9 11 -17 5 -25z
m-3606 -650 c18 -109 63 -228 133 -353 51 -91 151 -240 168 -252 7 -5 7 -8 1
-8 -6 0 -5 -3 1 -8 15 -9 84 -118 84 -132 0 -5 5 -10 12 -10 6 0 8 -3 5 -6 -4
-4 2 -19 12 -33 37 -55 172 -391 163 -408 -1 -2 5 -18 14 -38 8 -19 12 -35 9
-35 -2 0 0 -12 5 -26 27 -69 31 -203 8 -278 -56 -192 -125 -241 -284 -206 -82
18 -97 42 -98 154 -1 106 6 153 43 285 28 100 18 114 -43 60 -32 -28 -103
-129 -91 -129 3 0 1 -8 -4 -19 -26 -47 -33 -172 -15 -256 25 -118 58 -154 214
-234 149 -77 442 -190 535 -207 6 -1 53 -11 105 -22 168 -36 260 -45 480 -45
209 0 335 12 500 48 14 3 35 7 48 10 13 2 38 9 56 15 18 6 42 12 52 14 10 3
53 16 94 31 41 15 81 27 88 27 6 1 12 6 12 11 0 6 3 8 6 4 8 -7 179 72 274
128 94 55 132 94 166 170 23 51 28 76 30 163 2 101 1 105 -30 158 -48 83 -86
124 -113 124 -13 0 -22 -3 -19 -8 2 -4 7 -26 10 -48 4 -22 9 -51 11 -64 29
-143 20 -293 -18 -327 -37 -31 -67 -42 -142 -49 -45 -5 -54 -2 -87 26 -21 17
-38 38 -38 46 0 8 -5 12 -10 9 -6 -3 -10 -2 -10 3 0 5 -8 27 -17 48 -19 44
-19 45 -28 96 -5 32 -8 135 -4 193 2 39 51 211 89 310 62 164 184 398 355 681
35 57 71 125 81 151 10 27 23 51 28 55 6 4 7 10 3 14 -4 4 -2 13 3 20 6 6 10
16 9 20 -2 5 3 27 9 49 14 50 24 95 25 117 1 13 4 14 15 6 7 -6 11 -17 8 -25
-3 -7 -1 -13 5 -13 6 0 8 -4 4 -9 -3 -5 -1 -12 4 -15 5 -3 12 -27 16 -53 5
-27 10 -55 12 -63 5 -26 6 -154 0 -190 -11 -71 -78 -322 -123 -459 -65 -199
-45 -434 47 -566 77 -109 143 -140 230 -106 80 31 162 166 174 287 3 32 7 68
10 79 2 11 4 25 4 31 1 6 12 16 25 22 18 8 28 7 44 -4 31 -22 17 -63 -78 -224
-25 -43 -48 -99 -43 -104 4 -3 1 -6 -5 -6 -7 0 -12 -7 -12 -15 0 -8 -4 -15 -8
-15 -4 0 -16 -15 -26 -32 -11 -18 -32 -49 -47 -69 -16 -20 -26 -39 -22 -43 3
-3 1 -6 -5 -6 -7 0 -12 -7 -12 -16 0 -8 -4 -12 -10 -9 -5 3 -10 2 -10 -4 0
-28 -275 -278 -365 -331 -22 -13 -42 -27 -45 -30 -3 -4 -12 -9 -20 -13 -8 -4
-37 -20 -65 -37 -59 -35 -229 -119 -255 -124 -4 -1 -132 -46 -180 -64 -22 -8
-32 -10 -62 -17 -15 -3 -39 -10 -53 -15 -14 -5 -25 -7 -25 -5 0 2 -10 1 -23
-4 -13 -5 -40 -12 -60 -15 -20 -3 -53 -9 -73 -12 -20 -3 -46 -8 -58 -10 -101
-21 -535 -20 -661 1 -16 3 -43 7 -60 10 -31 5 -63 11 -105 21 -14 3 -34 7 -45
9 -131 26 -456 136 -532 180 -23 14 -43 23 -43 20 0 -4 -13 3 -29 14 -16 12
-32 21 -35 21 -22 0 -240 147 -297 200 -14 14 -48 45 -74 70 -103 96 -236 272
-311 410 -10 19 -21 37 -24 40 -3 3 -21 36 -39 75 -53 107 -47 164 16 165 38
0 53 -46 49 -147 -3 -87 -3 -88 33 -139 83 -116 130 -153 200 -156 43 -1 116
36 141 72 8 12 22 30 31 40 28 34 79 144 87 190 12 65 6 204 -12 285 -10 41
-32 109 -63 187 -19 51 -36 98 -38 103 -1 6 -7 22 -13 37 -39 95 -53 178 -57
328 -2 85 2 131 15 177 9 34 15 65 12 68 -3 3 0 5 6 5 7 0 11 3 11 8 -1 4 -1
18 0 32 2 24 2 24 16 -7 7 -18 16 -45 18 -60z m1388 -1000 c-2 -117 -15 -176
-58 -262 -54 -107 -144 -196 -253 -250 -61 -29 -100 -42 -138 -44 -30 -1 -56
1 -58 5 -3 4 -13 8 -23 8 -10 0 -30 9 -43 20 -14 10 -28 16 -32 13 -3 -3 -7 2
-8 13 -3 40 -5 50 -12 99 -13 91 -16 110 -27 165 -6 30 -12 66 -15 80 -2 14
-6 34 -9 46 -3 14 0 21 10 21 8 0 15 -4 15 -9 0 -4 8 -8 18 -8 10 0 24 -6 31
-12 11 -11 12 -10 6 2 -8 13 -7 13 8 1 9 -7 17 -10 17 -7 0 4 9 2 20 -4 15 -8
20 -8 20 1 0 8 4 9 13 0 8 -6 17 -8 20 -4 4 3 7 1 7 -6 0 -8 7 -10 19 -6 11 3
22 1 26 -5 3 -6 10 -8 15 -5 5 3 11 1 15 -5 3 -5 1 -10 -6 -10 -8 0 -7 -5 2
-17 8 -9 9 -14 2 -10 -6 4 -13 2 -15 -3 -2 -6 -10 -12 -18 -13 -8 -2 -21 -6
-27 -10 -7 -5 -13 -4 -13 2 0 5 -15 8 -33 7 -29 -3 -81 23 -74 35 1 2 0 3 -2
2 -2 -2 -11 3 -20 9 -12 10 -12 8 2 -8 9 -11 17 -25 17 -31 0 -14 39 -56 70
-75 64 -39 152 -40 203 -1 14 10 44 46 68 80 24 33 68 83 97 110 29 26 77 71
105 100 28 29 53 50 55 48 2 -2 4 -30 3 -62z m272 -52 c14 -14 44 -62 67 -106
50 -95 62 -109 117 -141 59 -35 130 -40 192 -13 28 11 49 25 48 29 -1 5 7 15
17 23 17 12 17 14 3 20 -10 4 -16 2 -14 -5 1 -6 -11 -12 -26 -15 -16 -2 -27 0
-24 4 3 4 -13 9 -34 10 -38 2 -75 24 -61 37 3 4 0 4 -9 1 -24 -9 -56 27 -63
69 l-6 37 37 -4 c25 -2 37 -8 35 -17 -2 -10 0 -11 10 -3 13 11 29 10 68 -2 17
-5 21 -4 16 6 -4 8 0 5 8 -5 9 -11 16 -14 16 -8 0 7 9 12 21 12 11 0 17 -4 14
-10 -3 -6 1 -7 9 -4 9 3 16 11 16 17 0 5 10 2 22 -9 12 -10 18 -14 15 -8 -6
11 11 23 40 30 13 2 10 -50 -4 -69 -19 -25 -34 -69 -22 -61 8 5 9 3 4 -6 -4
-7 -10 -27 -12 -44 -4 -38 -12 -96 -20 -154 -10 -81 -85 -126 -202 -121 -91 3
-156 47 -296 200 -114 122 -140 193 -120 324 11 75 19 80 70 44 24 -17 55 -43
68 -58z m-197 -307 c-3 -8 -2 -12 4 -9 9 6 14 -8 11 -28 -1 -5 3 -6 9 -2 5 3
15 -5 22 -19 6 -14 15 -26 20 -26 4 0 8 -7 8 -16 0 -8 4 -13 8 -10 5 3 15 -6
22 -19 7 -14 17 -25 22 -25 5 0 6 -4 3 -10 -3 -5 -1 -10 5 -10 6 0 16 -11 22
-25 6 -14 17 -25 25 -25 7 0 13 -7 13 -16 0 -8 5 -12 10 -9 6 4 9 3 8 -2 -4
-12 34 -53 49 -53 7 0 13 -4 13 -10 0 -5 7 -10 15 -10 8 0 15 -4 15 -10 0 -5
8 -6 17 -3 13 5 15 2 10 -12 -6 -15 -5 -16 8 -5 12 10 18 10 30 0 9 -7 18 -10
22 -7 3 4 12 -1 20 -11 8 -9 12 -12 9 -5 -4 6 -2 14 3 17 5 3 12 -1 15 -10 3
-9 11 -12 18 -8 11 7 59 14 101 15 9 0 15 5 11 11 -4 6 1 6 14 -1 17 -9 23 -8
30 4 4 9 18 17 30 18 12 1 22 4 22 7 0 16 26 4 27 -12 1 -11 -3 -16 -9 -12 -7
4 -8 2 -4 -4 4 -6 13 -9 21 -5 13 5 21 -14 13 -33 -2 -3 5 -10 14 -15 9 -5 15
-18 13 -29 -2 -12 1 -17 9 -14 7 3 18 -7 24 -21 7 -16 17 -23 24 -19 6 4 8 3
5 -3 -4 -5 5 -16 18 -23 13 -7 22 -17 19 -22 -3 -4 2 -8 10 -8 9 0 16 -3 16
-8 0 -13 -40 -33 -52 -26 -7 4 -8 3 -4 -4 6 -11 -13 -17 -37 -13 -5 1 -6 -3
-2 -9 7 -11 -34 -31 -47 -23 -5 2 -8 -1 -8 -7 0 -6 -4 -8 -10 -5 -5 3 -10 1
-10 -6 0 -7 -3 -10 -6 -6 -4 3 -19 0 -35 -9 -16 -8 -29 -12 -29 -8 0 4 -6 1
-13 -5 -8 -6 -17 -8 -20 -4 -4 3 -7 0 -7 -7 0 -7 -3 -11 -6 -7 -3 3 -23 -1
-44 -8 -21 -7 -41 -11 -44 -8 -3 4 -6 0 -6 -7 0 -7 -3 -11 -6 -7 -3 3 -17 2
-30 -3 -18 -7 -26 -5 -34 8 -10 15 -11 15 -6 0 6 -19 -15 -30 -34 -18 -8 5
-22 2 -35 -6 -12 -8 -25 -11 -28 -7 -4 3 -7 0 -7 -7 0 -9 -5 -7 -16 6 -8 10
-12 13 -8 5 5 -11 2 -13 -14 -9 -14 4 -20 2 -16 -4 4 -6 -1 -8 -15 -3 -11 3
-21 2 -21 -3 0 -10 -42 -8 -61 4 -7 4 -9 3 -5 -4 3 -6 2 -13 -4 -17 -5 -3 -10
-1 -10 5 0 7 -8 9 -22 4 -35 -11 -111 -11 -125 -1 -8 6 -13 6 -13 0 0 -5 -9
-9 -20 -9 -11 0 -20 3 -20 7 0 4 -7 10 -16 13 -8 3 -12 2 -9 -4 3 -5 -13 -6
-42 -3 -26 4 -67 7 -90 7 -24 1 -43 4 -43 9 0 4 -11 5 -25 3 -13 -3 -27 -1
-29 3 -3 4 -19 7 -36 6 -16 -1 -30 1 -30 5 0 3 -12 7 -27 8 -37 1 -61 6 -69
15 -4 4 -20 7 -36 7 -15 0 -28 4 -28 10 0 5 -7 6 -17 3 -10 -4 -14 -2 -10 4 5
7 -1 9 -15 5 -14 -3 -19 -1 -14 6 5 8 2 10 -8 6 -9 -3 -16 -2 -16 4 0 5 -11 7
-24 5 -13 -3 -27 0 -30 6 -4 6 -20 11 -37 11 -16 0 -29 5 -29 10 0 6 -9 10
-20 10 -22 0 -72 20 -81 33 -3 5 -9 8 -13 7 -4 -1 -20 3 -36 10 l-30 12 35 35
c19 19 35 39 35 45 0 5 5 6 10 3 6 -3 11 -1 11 4 3 21 4 26 12 39 5 7 12 10
16 8 4 -3 8 5 8 16 1 12 6 24 11 27 11 7 36 52 37 65 0 5 11 13 24 18 22 8 23
7 10 -9 -7 -10 -9 -15 -5 -11 5 4 16 2 24 -5 13 -10 14 -9 8 1 -7 12 33 -2 88
-30 12 -6 16 -6 12 0 -6 10 6 10 34 -1 35 -13 60 -15 53 -4 -4 6 0 8 9 4 9 -3
21 0 28 6 10 9 11 9 5 -3 -7 -12 -6 -13 7 -3 8 7 18 10 21 6 4 -3 7 -1 7 6 0
7 4 10 9 6 5 -3 12 -1 16 5 3 5 17 10 31 10 14 0 22 4 19 10 -3 5 0 7 8 4 8
-3 21 2 30 10 8 8 17 12 21 9 3 -4 6 -1 6 6 0 8 6 11 17 7 10 -4 14 -4 11 0
-10 9 20 36 32 29 6 -4 9 -3 8 2 -3 9 30 44 58 63 18 11 18 11 0 6 -16 -6 -17
-4 -6 9 7 8 17 12 23 8 7 -4 8 0 4 11 -5 14 -3 17 8 12 8 -3 14 -2 14 2 -4 21
2 42 10 38 5 -3 16 6 25 19 10 14 22 23 28 19 7 -4 8 -3 4 5 -4 6 -13 8 -19 5
-7 -4 2 8 18 26 17 18 24 29 16 25 -9 -5 -12 -4 -7 3 11 19 49 15 42 -4z"/>
<path d="M2306 4842 c-3 -5 1 -9 9 -9 8 0 12 4 9 9 -3 4 -7 8 -9 8 -2 0 -6 -4
-9 -8z"/>
<path d="M1960 4800 c-9 -6 -10 -10 -3 -10 6 0 15 5 18 10 8 12 4 12 -15 0z"/>
<path d="M3010 4799 c0 -5 5 -7 10 -4 6 3 10 8 10 11 0 2 -4 4 -10 4 -5 0 -10
-5 -10 -11z"/>
<path d="M2155 4720 c3 -5 8 -10 11 -10 2 0 4 5 4 10 0 6 -5 10 -11 10 -5 0
-7 -4 -4 -10z"/>
<path d="M1999 4633 c-13 -16 -12 -17 4 -4 9 7 17 15 17 17 0 8 -8 3 -21 -13z"/>
<path d="M3056 3453 c-139 -35 -238 -113 -308 -243 -37 -70 -47 -115 -44 -203
4 -99 9 -124 44 -196 28 -59 141 -181 167 -181 8 0 15 -4 15 -8 0 -5 19 -15
43 -22 23 -8 47 -16 52 -19 16 -9 35 -11 104 -15 115 -6 247 44 331 125 60 59
71 73 103 146 61 135 51 272 -28 407 -30 51 -108 132 -136 141 -10 4 -19 10
-19 14 0 8 -74 40 -108 46 -9 2 -17 4 -17 5 0 4 -46 10 -95 13 -30 1 -77 -3
-104 -10z"/>
<path d="M1875 3439 c-91 -32 -215 -126 -243 -186 -9 -18 -19 -33 -22 -33 -4
0 -7 -6 -8 -12 0 -7 -10 -40 -22 -73 -26 -74 -28 -188 -5 -250 76 -203 243
-321 452 -316 53 1 116 19 191 53 45 22 165 135 157 149 -3 4 -1 10 4 13 12 8
49 107 58 154 8 45 6 115 -3 162 -4 19 -8 37 -8 40 -1 3 -15 32 -31 65 -48 97
-109 159 -200 205 -72 37 -88 41 -185 46 -59 3 -88 0 -135 -17z"/>
<path d="M639 2878 c-5 -18 -6 -38 -1 -34 7 8 12 36 6 36 -2 0 -4 -1 -5 -2z"/>
<path d="M545 2840 c-3 -6 1 -7 9 -4 18 7 21 14 7 14 -6 0 -13 -4 -16 -10z"/>
<path d="M307 2799 c7 -7 15 -10 18 -7 3 3 -2 9 -12 12 -14 6 -15 5 -6 -5z"/>
<path d="M4715 2971 c-3 -5 -2 -12 3 -15 5 -3 9 1 9 9 0 17 -3 19 -12 6z"/>
<path d="M3105 640 c-3 -6 1 -7 9 -4 18 7 21 14 7 14 -6 0 -13 -4 -16 -10z"/>
<path d="M3313 605 c0 -8 4 -12 9 -9 5 3 6 10 3 15 -9 13 -12 11 -12 -6z"/>
<path d="M1836 553 c-6 -14 -5 -15 5 -6 7 7 10 15 7 18 -3 3 -9 -2 -12 -12z"/>
<path d="M870 5080 c0 -5 5 -10 11 -10 5 0 7 5 4 10 -3 6 -8 10 -11 10 -2 0
-4 -4 -4 -10z"/>
<path d="M5076 5013 c-6 -14 -5 -15 5 -6 7 7 10 15 7 18 -3 3 -9 -2 -12 -12z"/>
<path d="M4956 4887 c3 -10 9 -15 12 -12 3 3 0 11 -7 18 -10 9 -11 8 -5 -6z"/>
<path d="M790 4801 c0 -6 4 -13 10 -16 6 -3 7 1 4 9 -7 18 -14 21 -14 7z"/>
<path d="M4716 4638 c3 -5 10 -6 15 -3 13 9 11 12 -6 12 -8 0 -12 -4 -9 -9z"/>
<path d="M233 4395 c0 -8 4 -12 9 -9 5 3 6 10 3 15 -9 13 -12 11 -12 -6z"/>
<path d="M473 4365 c0 -8 4 -12 9 -9 5 3 6 10 3 15 -9 13 -12 11 -12 -6z"/>
<path d="M396 4278 c3 -5 10 -6 15 -3 13 9 11 12 -6 12 -8 0 -12 -4 -9 -9z"/>
<path d="M279 4053 c-13 -16 -12 -17 4 -4 9 7 17 15 17 17 0 8 -8 3 -21 -13z"/>
<path d="M150 3999 c0 -5 5 -7 10 -4 6 3 10 8 10 11 0 2 -4 4 -10 4 -5 0 -10
-5 -10 -11z"/>
<path d="M110 3716 c0 -2 8 -10 18 -17 15 -13 16 -12 3 4 -13 16 -21 21 -21
13z"/>
<path d="M70 1361 c0 -6 4 -13 10 -16 6 -3 7 1 4 9 -7 18 -14 21 -14 7z"/>
<path d="M150 1119 c0 -5 5 -7 10 -4 6 3 10 8 10 11 0 2 -4 4 -10 4 -5 0 -10
-5 -10 -11z"/>
<path d="M4516 727 c3 -10 9 -15 12 -12 3 3 0 11 -7 18 -10 9 -11 8 -5 -6z"/>
<path d="M4720 720 c-9 -6 -10 -10 -3 -10 6 0 15 5 18 10 8 12 4 12 -15 0z"/>
<path d="M635 560 c-3 -5 -1 -10 4 -10 6 0 11 5 11 10 0 6 -2 10 -4 10 -3 0
-8 -4 -11 -10z"/>
<path d="M4553 405 c0 -8 4 -12 9 -9 5 3 6 10 3 15 -9 13 -12 11 -12 -6z"/>
<path d="M4300 406 c0 -2 8 -10 18 -17 15 -13 16 -12 3 4 -13 16 -21 21 -21
13z"/>
<path d="M4070 239 c0 -5 5 -7 10 -4 6 3 10 8 10 11 0 2 -4 4 -10 4 -5 0 -10
-5 -10 -11z"/>
<path d="M4236 242 c-3 -5 1 -9 9 -9 8 0 12 4 9 9 -3 4 -7 8 -9 8 -2 0 -6 -4
-9 -8z"/>
<path d="M4706 242 c-3 -5 1 -9 9 -9 8 0 12 4 9 9 -3 4 -7 8 -9 8 -2 0 -6 -4
-9 -8z"/>
<path d="M316 158 c3 -5 10 -6 15 -3 13 9 11 12 -6 12 -8 0 -12 -4 -9 -9z"/>
<path d="M635 91 c-3 -5 -2 -12 3 -15 5 -3 9 1 9 9 0 17 -3 19 -12 6z"/>
<path d="M4315 89 c-4 -6 -5 -12 -2 -15 2 -3 7 2 10 11 7 17 1 20 -8 4z"/>
<path d="M5033 85 c0 -8 4 -12 9 -9 5 3 6 10 3 15 -9 13 -12 11 -12 -6z"/>
<path d="M3435 81 c-3 -5 -2 -12 3 -15 5 -3 9 1 9 9 0 17 -3 19 -12 6z"/>
<path d="M4393 75 c0 -8 4 -12 9 -9 5 3 6 10 3 15 -9 13 -12 11 -12 -6z"/>
<path d="M2475 61 c-3 -5 -2 -12 3 -15 5 -3 9 1 9 9 0 17 -3 19 -12 6z"/>
</g>
</svg>
