<?xml version="1.0" encoding="utf-8"?>
<!-- Generator: Adobe Illustrator 20.0.0, SVG Export Plug-In . SVG Version: 6.00 Build 0)  -->
<svg version="1.1" id="Layer_1" xmlns="http://www.w3.org/2000/svg" xmlns:xlink="http://www.w3.org/1999/xlink" x="0px" y="0px"
	 width="197px" height="69px" viewBox="0 0 197 69" style="enable-background:new 0 0 197 69;" xml:space="preserve">
<style type="text/css">
	.st0{enable-background:new    ;}
	.st1{fill:#FFFFFF;stroke:#FFFFFF;stroke-width:0.4;stroke-miterlimit:10;}
	.st2{fill:#FFFFFF;}
	.st3{filter:url(#filter-3);}
	.st4{fill:none;stroke:url(#path-2_2_);stroke-width:3.2;}
	.st5{filter:url(#filter-5);}
	.st6{fill:none;stroke:url(#path-4_2_);stroke-width:4.2;}
	.st7{filter:url(#filter-7);}
	.st8{fill:none;stroke:url(#path-6_2_);stroke-width:5;}
</style>
<filter  filterUnits="objectBoundingBox" height="200%" id="filter-7" width="200%" x="-50%" y="-50%">
	<feMorphology  in="SourceAlpha" operator="dilate" radius="2.5" result="shadowSpreadOuter1"></feMorphology>
	<feOffset  dx="0" dy="2" in="shadowSpreadOuter1" result="shadowOffsetOuter1"></feOffset>
	<feMorphology  in="SourceAlpha" operator="erode" radius="2.5" result="shadowInner"></feMorphology>
	<feOffset  dx="0" dy="2" in="shadowInner" result="shadowInner"></feOffset>
	<feComposite  in="shadowOffsetOuter1" in2="shadowInner" operator="out" result="shadowOffsetOuter1"></feComposite>
	<feGaussianBlur  in="shadowOffsetOuter1" result="shadowBlurOuter1" stdDeviation="2"></feGaussianBlur>
	<feColorMatrix  in="shadowBlurOuter1" type="matrix" values="0 0 0 0 0   0 0 0 0 0   0 0 0 0 0  0 0 0 0.5 0"></feColorMatrix>
</filter>
<filter  filterUnits="objectBoundingBox" height="200%" id="filter-5" width="200%" x="-50%" y="-50%">
	<feMorphology  in="SourceAlpha" operator="dilate" radius="2.1" result="shadowSpreadOuter1"></feMorphology>
	<feOffset  dx="0" dy="2" in="shadowSpreadOuter1" result="shadowOffsetOuter1"></feOffset>
	<feMorphology  in="SourceAlpha" operator="erode" radius="2.1" result="shadowInner"></feMorphology>
	<feOffset  dx="0" dy="2" in="shadowInner" result="shadowInner"></feOffset>
	<feComposite  in="shadowOffsetOuter1" in2="shadowInner" operator="out" result="shadowOffsetOuter1"></feComposite>
	<feGaussianBlur  in="shadowOffsetOuter1" result="shadowBlurOuter1" stdDeviation="2"></feGaussianBlur>
	<feColorMatrix  in="shadowBlurOuter1" type="matrix" values="0 0 0 0 0   0 0 0 0 0   0 0 0 0 0  0 0 0 0.5 0"></feColorMatrix>
</filter>
<filter  filterUnits="objectBoundingBox" height="200%" id="filter-3" width="200%" x="-50%" y="-50%">
	<feMorphology  in="SourceAlpha" operator="dilate" radius="1.6" result="shadowSpreadOuter1"></feMorphology>
	<feOffset  dx="0" dy="2" in="shadowSpreadOuter1" result="shadowOffsetOuter1"></feOffset>
	<feMorphology  in="SourceAlpha" operator="erode" radius="1.6" result="shadowInner"></feMorphology>
	<feOffset  dx="0" dy="2" in="shadowInner" result="shadowInner"></feOffset>
	<feComposite  in="shadowOffsetOuter1" in2="shadowInner" operator="out" result="shadowOffsetOuter1"></feComposite>
	<feGaussianBlur  in="shadowOffsetOuter1" result="shadowBlurOuter1" stdDeviation="2"></feGaussianBlur>
	<feColorMatrix  in="shadowBlurOuter1" type="matrix" values="0 0 0 0 0   0 0 0 0 0   0 0 0 0 0  0 0 0 0.5 0"></feColorMatrix>
</filter>
<title>Group 5</title>
<desc>Created with Sketch.</desc>
<g id="Page-1">
	<g id="Artboard" transform="translate(-701.000000, -360.000000)">
		<g id="Group-5" transform="translate(706.000000, 360.000000)">
			<g id="Group-3" transform="translate(100.000000, 40.000000)">
				<g class="st0">
					<path class="st1" d="M1.7,6.1c0.2-0.3,0.5-0.5,0.8-0.7s0.7-0.3,1.1-0.3c0.7,0,1.3,0.3,1.7,0.9s0.6,1.3,0.6,2.2
						c0,0.9-0.2,1.7-0.6,2.4s-1,0.9-1.7,0.9c-0.4,0-0.7-0.1-1.1-0.3s-0.6-0.4-0.8-0.8v0.9H0.8V3.1h0.9V6.1z M1.7,7v2.5
						c0.2,0.3,0.4,0.6,0.7,0.9s0.6,0.3,0.9,0.3c0.5,0,0.9-0.2,1.2-0.7S5,9,5,8.3C5,7.6,4.8,7,4.5,6.6S3.9,5.9,3.4,5.9
						C2.7,5.9,2.2,6.3,1.7,7z"/>
					<path class="st1" d="M12.3,5.3L10,11.4c-0.3,0.9-0.7,1.5-1,1.9s-0.7,0.5-1.1,0.5c-0.4,0-0.7-0.1-1.1-0.2l0.2-0.7
						C7.2,12.9,7.5,13,7.7,13c0.3,0,0.6-0.1,0.8-0.4s0.4-0.7,0.6-1.2L6.9,5.3h1l1.7,4.9l1.7-4.9H12.3z"/>
				</g>
				<path id="vector-fixed-thin-copy" class="st2" d="M19.2,11.2c-0.6-0.5-1-1.4-1-2.4V0.1H21v8.7c0.1,1.5,0.9,2.3,1.2,2.6
					c-0.3,0.2-0.8,0.4-1.4,0.4C20.4,11.7,19.8,11.6,19.2,11.2z M30.2,11.5V4.1c0-2.3,1.7-4.2,4-4.2c1.9,0,3.6,1.4,4,3.3l0,0.3h0.9
					v2.8h-0.8v1.1c0,0.6,0.7,1.2,1.3,1.2v3c-2.1-0.1-4.2-1.9-4.1-4.2V4.1c-0.1-0.7-0.6-1.2-1.3-1.2c-0.7,0-1.1,0.5-1.3,1.1v0.1v1.2
					h1.5V8H33v0.6c0.1,1-0.4,1.9-1,2.4c-0.5,0.4-1,0.6-1.6,0.6C30.2,11.5,30.3,11.5,30.2,11.5z M23.1,14.6v-2.6
					c0.5,0.1,0.9,0.3,1.4,0.3c0.1,0,0.2,0,0.3,0c0.9-0.1,1.5-0.5,1.6-1.2l0.1-0.4l-0.3,0.3c0,0-0.6,0.5-1.5,0.5
					c-0.3,0-0.5,0-0.8-0.1C22.3,10.9,22,9.7,22,8.7V3.4h2.8v4.5c0,0.3,0.4,0.6,0.8,0.6c0.3,0,0.7-0.3,0.8-0.6V3.4h2.8v7.2
					c0.1,2.1-1.2,3.7-3.1,4.1c-0.4,0.1-0.8,0.1-1.1,0.1C24.3,14.9,23.8,14.8,23.1,14.6z"/>
			</g>
			<g id="Group-2" transform="translate(0.000000, 4.000000)">
				<g id="Path-4-Copy-2">
					<g class="st3">
						<polygon points="0.9,35.4 12.9,29.3 27.3,35.4 29.1,50.4 15.1,57.5 0.9,50.4 						"/>
					</g>
					<g>
						
							<linearGradient id="path-2_2_" gradientUnits="userSpaceOnUse" x1="-488.241" y1="413.7014" x2="-487.241" y2="413.7014" gradientTransform="matrix(28.211 0 0 -28.2312 13774.6836 11722.9893)">
							<stop  offset="0" style="stop-color:#E400FF"/>
							<stop  offset="1" style="stop-color:#FF00BF"/>
						</linearGradient>
						<polygon id="path-2_1_" class="st4" points="0.9,35.4 12.9,29.3 27.3,35.4 29.1,50.4 15.1,57.5 0.9,50.4 						"/>
					</g>
				</g>
				<g id="Path-4-Copy">
					<g class="st5">
						<polygon points="14.9,21.2 34.3,13 53.7,23.2 55.7,44.8 36.9,56 14.9,42.8 						"/>
					</g>
					<g>
						
							<linearGradient id="path-4_2_" gradientUnits="userSpaceOnUse" x1="-493.7053" y1="418.0482" x2="-492.7053" y2="418.0482" gradientTransform="matrix(40.7493 0 0 -43 20133.0801 18013)">
							<stop  offset="0" style="stop-color:#E400FF"/>
							<stop  offset="1" style="stop-color:#FF00BF"/>
						</linearGradient>
						<polygon id="path-4_1_" class="st6" points="14.9,21.2 34.3,13 53.7,23.2 55.7,44.8 36.9,56 14.9,42.8 						"/>
					</g>
				</g>
				<g id="Path-4">
					<g class="st7">
						<polygon points="29,10.1 52.6,0.9 76.6,13.7 80.2,38.2 55,50 29,35.6 						"/>
					</g>
					<g>
						
							<linearGradient id="path-6_2_" gradientUnits="userSpaceOnUse" x1="-496.2077" y1="419.125" x2="-495.2077" y2="419.125" gradientTransform="matrix(51.1628 0 0 -49.1589 25416.3594 20630.6953)">
							<stop  offset="0" style="stop-color:#E400FF"/>
							<stop  offset="1" style="stop-color:#FF00BF"/>
						</linearGradient>
						<polygon id="path-6_1_" class="st8" points="29,10.1 52.6,0.9 76.6,13.7 80.2,38.2 55,50 29,35.6 						"/>
					</g>
				</g>
			</g>
			<g class="st0">
				<path class="st1" d="M113,23.8h-12.6c0,2.1,0.6,3.8,1.8,5.1c1.2,1.4,2.7,2.1,4.4,2.1c1.7,0,3.4-0.3,5.1-0.9l0.5,2.2
					c-1.6,0.7-3.5,1.1-5.7,1.1c-2.7,0-4.9-0.9-6.6-2.6c-1.7-1.7-2.5-4.1-2.5-7.1c0-2.9,0.8-5.2,2.3-6.9c1.5-1.7,3.4-2.6,5.8-2.6
					c2.1,0,3.9,0.8,5.3,2.4c1.4,1.6,2.1,3.7,2.1,6.4V23.8z M110,21.6c0-1.4-0.4-2.7-1.3-3.6c-0.9-1-1.9-1.4-3-1.4
					c-1.4,0-2.6,0.5-3.5,1.4c-0.9,0.9-1.4,2.2-1.5,3.7H110z"/>
				<path class="st1" d="M132.1,32.9h-2.7V21.1c0-1.6-0.3-2.8-0.8-3.6c-0.5-0.7-1.3-1.1-2.4-1.1c-1.7,0-3.5,1-5.4,3.1v13.2H118V14.6
					h2.7v2.7c2-2.1,4-3.1,6.2-3.1c3.4,0,5.1,2.1,5.1,6.2V32.9z"/>
				<path class="st1" d="M152.5,14.6l-6.9,18.3h-2.5l-6.9-18.3h3l5.2,14.6l5.2-14.6H152.5z"/>
				<path class="st1" d="M170.2,16.7c1.5,1.8,2.2,4.1,2.2,6.9c0,2.9-0.8,5.2-2.2,7c-1.5,1.8-3.5,2.7-6,2.7c-2.6,0-4.5-0.9-6-2.7
					c-1.5-1.8-2.2-4.1-2.2-7c0-2.9,0.8-5.2,2.2-6.9c1.5-1.8,3.5-2.6,6-2.6C166.7,14.1,168.8,15,170.2,16.7z M168.1,28.8
					c1-1.4,1.4-3.1,1.4-5.1c0-2.1-0.4-3.9-1.4-5.2c-0.9-1.3-2.3-2-4-2c-1.7,0-3,0.7-4,2c-0.9,1.3-1.4,3.1-1.4,5.2
					c0,2.1,0.5,3.7,1.4,5.1c0.9,1.4,2.2,2.1,3.9,2.1C165.9,31,167.2,30.2,168.1,28.8z"/>
				<path class="st1" d="M191.8,14.6l-6.9,18.3c-1,2.7-2,4.6-3,5.7c-1,1-2.1,1.6-3.4,1.6c-1.1,0-2.2-0.2-3.3-0.6l0.5-2.2
					c0.9,0.3,1.7,0.4,2.4,0.4c1,0,1.8-0.4,2.4-1.2c0.6-0.8,1.3-2,1.9-3.7l-6.9-18.3h3l5.2,14.6l5.2-14.6H191.8z"/>
			</g>
		</g>
	</g>
</g>
</svg>
