<?xml version="1.0" encoding="utf-8"?>
<!-- Generator: Adobe Illustrator 20.0.0, SVG Export Plug-In . SVG Version: 6.00 Build 0)  -->
<svg version="1.2" baseProfile="tiny" id="Layer_1" xmlns="http://www.w3.org/2000/svg" xmlns:xlink="http://www.w3.org/1999/xlink"
	 x="0px" y="0px" width="206.1px" height="219px" viewBox="0 0 206.1 219" xml:space="preserve">
<g>
	<g>
		<path fill="#CFE5BE" d="M190.9,213.7c1.5,0,2.7,1.2,2.7,2.7s-1.2,2.7-2.7,2.7h-16.1h-10.7h-10.6h-31.8c0,0,0,0-0.1,0H89.3
			c0,0,0,0,0,0H62.5H48.8H18.3c-1.5,0-2.7-1.2-2.7-2.7s1.2-2.7,2.7-2.7h27.8v-6.2c0-1.5,1.2-2.7,2.7-2.7c1.5,0,2.7,1.2,2.7,2.7v6.2
			h8.3v-18.9c0-1.5,1.2-2.7,2.7-2.7c1.5,0,2.7,1.2,2.7,2.7v18.9h59h26.6v-13.5c0-1.5,1.2-2.7,2.7-2.7s2.7,1.2,2.7,2.7v13.5h5.2v-8.1
			c0-1.5,1.2-2.7,2.7-2.7s2.7,1.2,2.7,2.7v8.1h5.4v-25.2c0-1.5,1.2-2.7,2.7-2.7s2.7,1.2,2.7,2.7v25.2L190.9,213.7L190.9,213.7z"/>
		<polygon fill="#CECECB" points="118,172.5 118.9,208.3 92,208.3 92.7,171.6 		"/>
		<polygon fill="#F6E2B3" points="150.7,127.3 149.3,168.2 120.9,167.2 120.6,167.2 90.1,166.1 90,166.1 21.6,163.8 0,142.6 
			23,122.9 90.8,125.2 90.9,125.2 119.2,126.2 119.6,126.2 		"/>
		<polygon fill="#CECECB" points="116.4,108.4 116.8,120.8 93.6,120 93.8,109.6 		"/>
		<polygon fill="#F3D58E" points="206.1,77.7 184.9,99.3 91.2,104.4 90.9,104.4 57.3,106.2 55.1,65.4 91.9,63.4 92.3,63.4 117.9,62 
			118,62 182.7,58.5 		"/>
		<path fill="#CECECB" d="M135.5,15.7L115.6,51l-0.1,0.2c-0.1,0.2-0.2,0.4-0.2,0.5c0,0.2-0.1,0.3-0.1,0.5c0,0.1,0,0.2,0,0.3
			c0,0,0,0,0,0.1l0.1,4.2l-20.5,1.1l0.9-49L113.7,0l0.6,23c0,0.2,0,0.4,0.1,0.6c0,0.1,0,0.2,0.1,0.3c0,0.1,0.1,0.2,0.1,0.3
			c0.1,0.2,0.2,0.4,0.4,0.6c0.1,0.1,0.2,0.2,0.3,0.3c0.1,0.1,0.3,0.2,0.4,0.3c0.1,0.1,0.3,0.1,0.4,0.2c0.1,0,0.2,0.1,0.4,0.1
			c0,0,0,0,0.1,0c0.2,0,0.3,0,0.4,0c0.4,0,0.8-0.1,1.1-0.2c0.1,0,0.2-0.1,0.3-0.1c0.2-0.1,0.3-0.2,0.5-0.4c0.1-0.1,0.2-0.2,0.2-0.2
			l0,0l11.4-13.6L135.5,15.7z"/>
	</g>
	
		<text transform="matrix(0.999 -4.568000e-02 4.568000e-02 0.999 89.691 96.66)" fill="#FFFFFF" font-family="'SFUIDisplay-Heavy'" font-size="36px">PHP</text>
	
		<text transform="matrix(0.9997 2.523000e-02 -2.523000e-02 0.9997 42.3099 158.9734)" fill="#FFFFFF" font-family="'SFUIDisplay-Heavy'" font-size="36px">Ook!</text>
</g>
</svg>
