<?xml version="1.0" encoding="UTF-8" standalone="no"?>
<svg
   xmlns:dc="http://purl.org/dc/elements/1.1/"
   xmlns:cc="http://creativecommons.org/ns#"
   xmlns:rdf="http://www.w3.org/1999/02/22-rdf-syntax-ns#"
   xmlns:svg="http://www.w3.org/2000/svg"
   xmlns="http://www.w3.org/2000/svg"
   xmlns:sodipodi="http://sodipodi.sourceforge.net/DTD/sodipodi-0.dtd"
   xmlns:inkscape="http://www.inkscape.org/namespaces/inkscape"
   inkscape:version="1.0 (4035a4f, 2020-05-01)"
   sodipodi:docname="service_to_service_ingress_listener.svg"
   id="svg1688"
   stroke-miterlimit="10"
   stroke-linecap="square"
   stroke="none"
   fill="none"
   viewBox="0 0 447.2126 261.38058"
   version="1.1"
   width="447.21259"
   height="261.38058">
  <metadata
     id="metadata1694">
    <rdf:RDF>
      <cc:Work
         rdf:about="">
        <dc:format>image/svg+xml</dc:format>
        <dc:type
           rdf:resource="http://purl.org/dc/dcmitype/StillImage" />
        <dc:title />
      </cc:Work>
    </rdf:RDF>
  </metadata>
  <defs
     id="defs1692" />
  <sodipodi:namedview
     inkscape:current-layer="svg1688"
     inkscape:window-maximized="0"
     inkscape:window-y="116"
     inkscape:window-x="110"
     inkscape:cy="280.46631"
     inkscape:cx="-66.136029"
     inkscape:zoom="0.99675777"
     showgrid="false"
     id="namedview1690"
     inkscape:window-height="1146"
     inkscape:window-width="1902"
     inkscape:pageshadow="2"
     inkscape:pageopacity="0"
     guidetolerance="10"
     gridtolerance="10"
     objecttolerance="10"
     borderopacity="1"
     bordercolor="#666666"
     pagecolor="#ffffff"
     inkscape:document-rotation="0" />
  <clipPath
     id="p.0">
    <path
       id="path1543"
       clip-rule="nonzero"
       d="M 0,0 H 528.2126 V 377.38058 H 0 Z" />
  </clipPath>
  <path
     fill="#000000"
     fill-opacity="0"
     d="M 0,0 H 528.2126 V 377.38058 H 0 Z"
     fill-rule="nonzero"
     id="path1546" />
  <path
     style="opacity:0.25"
     fill="#d9d9d9"
     d="M 30.299213,64 H 180.59842 V 200 H 30.299213 Z"
     fill-rule="nonzero"
     id="path1562" />
  <path
     style="opacity:0.25"
     stroke="#000000"
     stroke-width="1"
     stroke-linejoin="round"
     stroke-linecap="butt"
     d="M 30.299213,64 H 180.59842 V 200 H 30.299213 Z"
     fill-rule="nonzero"
     id="path1564" />
  <path
     fill="#cfe2f3"
     d="M 36.598427,144 H 172.59843 v 48 H 36.598427 Z"
     fill-rule="nonzero"
     id="path1566" />
  <path
     style="opacity:0.25"
     stroke="#000000"
     stroke-width="1"
     stroke-linejoin="round"
     stroke-linecap="butt"
     d="M 36.598427,144 H 172.59843 v 48 H 36.598427 Z"
     fill-rule="nonzero"
     id="path1568" />
  <path
     fill="#000000"
     d="m 80.1728,174.92 v -13.59375 h 9.84375 V 162.92 h -8.046875 v 4.17187 h 7.53125 v 1.59375 h -7.53125 v 4.625 H 90.32905 V 174.92 Z m 12.193573,0 v -9.85938 h 1.5 v 1.40625 q 1.09375,-1.625 3.140625,-1.625 0.890625,0 1.640625,0.32813 0.75,0.3125 1.109375,0.84375 0.375002,0.51562 0.531252,1.21875 0.0937,0.46875 0.0937,1.625 v 6.0625 h -1.671877 v -6 q 0,-1.01563 -0.203125,-1.51563 -0.1875,-0.51562 -0.6875,-0.8125 -0.5,-0.29687 -1.171875,-0.29687 -1.0625,0 -1.84375,0.67187 -0.765625,0.67188 -0.765625,2.57813 v 5.375 z m 13.110087,0 -3.75,-9.85938 h 1.76563 l 2.125,5.90625 q 0.34375,0.95313 0.625,1.98438 0.21875,-0.78125 0.625,-1.875 l 2.1875,-6.01563 h 1.71875 l -3.73438,9.85938 z m 5.96875,-4.92188 q 0,-2.73437 1.53125,-4.0625 1.26563,-1.09375 3.09375,-1.09375 2.03125,0 3.3125,1.34375 1.29688,1.32813 1.29688,3.67188 0,1.90625 -0.57813,3 -0.5625,1.07812 -1.65625,1.6875 -1.07812,0.59375 -2.375,0.59375 -2.0625,0 -3.34375,-1.32813 -1.28125,-1.32812 -1.28125,-3.8125 z m 1.71875,0 q 0,1.89063 0.82813,2.82813 0.82812,0.9375 2.07812,0.9375 1.25,0 2.0625,-0.9375 0.82813,-0.95313 0.82813,-2.89063 0,-1.82812 -0.82813,-2.76562 -0.82812,-0.9375 -2.0625,-0.9375 -1.25,0 -2.07812,0.9375 -0.82813,0.9375 -0.82813,2.82812 z m 9.20385,8.71875 -0.17188,-1.5625 q 0.54688,0.14063 0.95313,0.14063 0.54687,0 0.875,-0.1875 0.34375,-0.1875 0.5625,-0.51563 0.15625,-0.25 0.5,-1.25 0.0469,-0.14062 0.15625,-0.40625 l -3.73438,-9.875 h 1.79688 l 2.04687,5.71875 q 0.40625,1.07813 0.71875,2.28125 0.28125,-1.15625 0.6875,-2.25 l 2.09374,-5.75 h 1.67188 l -3.74999,10.03125 q -0.59375,1.625 -0.9375,2.23438 -0.4375,0.82812 -1.01563,1.20312 -0.57812,0.39063 -1.375,0.39063 -0.48437,0 -1.07812,-0.20313 z"
     fill-rule="nonzero"
     id="path1570" />
  <path
     style="opacity:0.25"
     fill="#cfe2f3"
     d="M 36.598427,72 H 172.59843 v 48 H 36.598427 Z"
     fill-rule="nonzero"
     id="path1572" />
  <path
     style="opacity:0.25"
     stroke="#000000"
     stroke-width="1"
     stroke-linejoin="round"
     stroke-linecap="butt"
     d="M 36.598427,72 H 172.59843 v 48 H 36.598427 Z"
     fill-rule="nonzero"
     id="path1574" />
  <path
     style="opacity:0.25"
     fill="#000000"
     d="m 74.353424,98.545 1.6875,-0.140625 q 0.125,1.015625 0.5625,1.671875 0.4375,0.65625 1.359375,1.0625 0.9375,0.40625 2.09375,0.40625 1.03125,0 1.8125,-0.3125 0.796875,-0.3125 1.1875,-0.84375 0.390625,-0.53125 0.390625,-1.15625 0,-0.640625 -0.375,-1.109375 -0.375,-0.484375 -1.234375,-0.8125 -0.546875,-0.21875 -2.421875,-0.65625 -1.875,-0.453125 -2.625,-0.859375 -0.96875,-0.515625 -1.453125,-1.265625 -0.46875,-0.75 -0.46875,-1.6875 0,-1.03125 0.578125,-1.921875 0.59375,-0.90625 1.703125,-1.359375 1.125,-0.46875 2.5,-0.46875 1.515625,0 2.671875,0.484375 1.15625,0.484375 1.765625,1.4375 0.625,0.9375 0.671875,2.140625 l -1.71875,0.125 q -0.140625,-1.28125 -0.953125,-1.9375 Q 81.290924,90.67 79.728424,90.67 q -1.625,0 -2.375,0.609375 -0.75,0.59375 -0.75,1.4375 0,0.734375 0.53125,1.203125 0.515625,0.46875 2.703125,0.96875 2.203125,0.5 3.015625,0.875 1.1875,0.546875 1.75,1.390625 0.578125,0.828125 0.578125,1.921875 0,1.09375 -0.625,2.0625 -0.625,0.95313 -1.796875,1.48438 -1.15625,0.53125 -2.609375,0.53125 -1.84375,0 -3.09375,-0.53125 -1.25,-0.54688 -1.96875,-1.625 Q 74.384674,99.92 74.353424,98.545 Z m 19.584198,1.203125 1.71875,0.21875 q -0.40625,1.500005 -1.515625,2.343755 -1.09375,0.82812 -2.8125,0.82812 -2.15625,0 -3.421875,-1.32812 -1.265625,-1.32813 -1.265625,-3.73438 0,-2.484375 1.265625,-3.859375 1.28125,-1.375 3.328125,-1.375 1.984375,0 3.234375,1.34375 1.25,1.34375 1.25,3.796875 0,0.140625 -0.01563,0.4375 h -7.34375 q 0.09375,1.625 0.921875,2.48438 0.828125,0.85937 2.0625,0.85937 0.90625,0 1.546875,-0.46875 0.65625,-0.48437 1.046875,-1.546875 z M 88.453247,97.045 h 5.5 q -0.109375,-1.234375 -0.625,-1.859375 -0.796875,-0.96875 -2.078125,-0.96875 -1.140625,0 -1.9375,0.78125 -0.78125,0.765625 -0.859375,2.046875 z m 9.094467,5.875 v -9.859375 h 1.5 v 1.5 q 0.578125,-1.046875 1.062496,-1.375 0.48438,-0.34375 1.07813,-0.34375 0.84375,0 1.71875,0.546875 l -0.57813,1.546875 q -0.60937,-0.359375 -1.23437,-0.359375 -0.54688,0 -0.98438,0.328125 -0.421871,0.328125 -0.609371,0.90625 -0.28125,0.890625 -0.28125,1.953125 V 102.92 Z m 8.962676,0 -3.75,-9.859375 h 1.76563 l 2.125,5.90625 q 0.34375,0.953125 0.625,1.984375 0.21875,-0.78125 0.625,-1.875 l 2.1875,-6.015625 h 1.71875 L 108.07289,102.92 Z m 6.60938,-11.6875 v -1.90625 h 1.67187 v 1.90625 z m 0,11.6875 v -9.859375 h 1.67187 V 102.92 Z m 10.56669,-3.609375 1.64063,0.21875 q -0.26563,1.687505 -1.375,2.656255 -1.10938,0.95312 -2.73438,0.95312 -2.01562,0 -3.25,-1.3125 -1.21875,-1.32812 -1.21875,-3.796875 0,-1.59375 0.51563,-2.78125 0.53125,-1.203125 1.60937,-1.796875 1.09375,-0.609375 2.35938,-0.609375 1.60937,0 2.625,0.8125 1.01562,0.8125 1.3125,2.3125 l -1.625,0.25 q -0.23438,-1 -0.82813,-1.5 -0.59375,-0.5 -1.42187,-0.5 -1.26563,0 -2.0625,0.90625 -0.78125,0.90625 -0.78125,2.859375 0,1.984375 0.76562,2.89063 0.76563,0.89062 1.98438,0.89062 0.98437,0 1.64062,-0.59375 0.65625,-0.60937 0.84375,-1.859375 z m 9.64063,0.4375 1.71875,0.21875 q -0.40625,1.500005 -1.51563,2.343755 -1.09375,0.82812 -2.8125,0.82812 -2.15625,0 -3.42187,-1.32812 -1.26563,-1.32813 -1.26563,-3.73438 0,-2.484375 1.26563,-3.859375 1.28125,-1.375 3.32812,-1.375 1.98438,0 3.23438,1.34375 1.25,1.34375 1.25,3.796875 0,0.140625 -0.0156,0.4375 h -7.34375 q 0.0937,1.625 0.92188,2.48438 0.82812,0.85937 2.0625,0.85937 0.90625,0 1.54687,-0.46875 0.65625,-0.48437 1.04688,-1.546875 z M 127.84271,97.045 h 5.5 q -0.10937,-1.234375 -0.625,-1.859375 -0.79687,-0.96875 -2.07812,-0.96875 -1.14063,0 -1.9375,0.78125 -0.78125,0.765625 -0.85938,2.046875 z"
     fill-rule="nonzero"
     id="path1576" />
  <path
     style="opacity:0.25"
     fill="#000000"
     fill-opacity="0"
     d="m 104.59843,120 v 24"
     fill-rule="nonzero"
     id="path1578" />
  <path
     style="opacity:0.25"
     stroke="#000000"
     stroke-width="1.09539"
     stroke-linejoin="round"
     stroke-linecap="butt"
     d="M 104.59843,123.42709 V 144"
     fill-rule="evenodd"
     id="path1580" />
  <path
     style="opacity:0.25"
     fill="#000000"
     stroke="#000000"
     stroke-width="1"
     stroke-linecap="butt"
     d="m 104.59843,123.42709 1.12458,1.12458 -1.12458,-3.08977 -1.12459,3.08977 z"
     fill-rule="evenodd"
     id="path1582" />
  <path
     style="opacity:0.25"
     fill="#d9d9d9"
     d="m 262.29922,64 h 150.2992 v 136 h -150.2992 z"
     fill-rule="nonzero"
     id="path1606" />
  <path
     style="opacity:0.25"
     stroke="#000000"
     stroke-width="1"
     stroke-linejoin="round"
     stroke-linecap="butt"
     d="m 262.29922,64 h 150.2992 v 136 h -150.2992 z"
     fill-rule="nonzero"
     id="path1608" />
  <path
     style="opacity:1"
     fill="#cfe2f3"
     d="m 268.59842,144 h 136 v 48 h -136 z"
     fill-rule="nonzero"
     id="path1610" />
  <path
     style="opacity:1"
     stroke="#000000"
     stroke-width="1"
     stroke-linejoin="round"
     stroke-linecap="butt"
     d="m 268.59842,144 h 136 v 48 h -136 z"
     fill-rule="nonzero"
     id="path1612" />
  <path
     style="opacity:1"
     fill="#000000"
     d="m 312.1728,174.92 v -13.59375 h 9.84375 V 162.92 h -8.04688 v 4.17187 h 7.53125 v 1.59375 h -7.53125 v 4.625 h 8.35938 V 174.92 Z m 12.19357,0 v -9.85938 h 1.5 v 1.40625 q 1.09375,-1.625 3.14063,-1.625 0.89062,0 1.64062,0.32813 0.75,0.3125 1.10938,0.84375 0.375,0.51562 0.53125,1.21875 0.0937,0.46875 0.0937,1.625 v 6.0625 h -1.67188 v -6 q 0,-1.01563 -0.20312,-1.51563 -0.1875,-0.51562 -0.6875,-0.8125 -0.5,-0.29687 -1.17188,-0.29687 -1.0625,0 -1.84375,0.67187 -0.76562,0.67188 -0.76562,2.57813 v 5.375 z m 13.11011,0 -3.75,-9.85938 h 1.76563 l 2.125,5.90625 q 0.34375,0.95313 0.625,1.98438 0.21875,-0.78125 0.625,-1.875 l 2.1875,-6.01563 h 1.71875 l -3.73438,9.85938 z m 5.96875,-4.92188 q 0,-2.73437 1.53125,-4.0625 1.26563,-1.09375 3.09375,-1.09375 2.03125,0 3.3125,1.34375 1.29688,1.32813 1.29688,3.67188 0,1.90625 -0.57813,3 -0.5625,1.07812 -1.65625,1.6875 -1.07812,0.59375 -2.375,0.59375 -2.0625,0 -3.34375,-1.32813 -1.28125,-1.32812 -1.28125,-3.8125 z m 1.71875,0 q 0,1.89063 0.82813,2.82813 0.82812,0.9375 2.07812,0.9375 1.25,0 2.0625,-0.9375 0.82813,-0.95313 0.82813,-2.89063 0,-1.82812 -0.82813,-2.76562 -0.82812,-0.9375 -2.0625,-0.9375 -1.25,0 -2.07812,0.9375 -0.82813,0.9375 -0.82813,2.82812 z m 9.20383,8.71875 -0.17188,-1.5625 q 0.54688,0.14063 0.95313,0.14063 0.54687,0 0.875,-0.1875 0.34375,-0.1875 0.5625,-0.51563 0.15625,-0.25 0.5,-1.25 0.0469,-0.14062 0.15625,-0.40625 l -3.73438,-9.875 h 1.79688 l 2.04687,5.71875 q 0.40625,1.07813 0.71875,2.28125 0.28125,-1.15625 0.6875,-2.25 l 2.09375,-5.75 h 1.67188 l -3.75,10.03125 q -0.59375,1.625 -0.9375,2.23438 -0.4375,0.82812 -1.01563,1.20312 -0.57812,0.39063 -1.375,0.39063 -0.48437,0 -1.07812,-0.20313 z"
     fill-rule="nonzero"
     id="path1614" />
  <path
     style="opacity:0.25"
     fill="#cfe2f3"
     d="m 268.59842,72 h 136 v 48 h -136 z"
     fill-rule="nonzero"
     id="path1616" />
  <path
     style="opacity:0.25"
     stroke="#000000"
     stroke-width="1"
     stroke-linejoin="round"
     stroke-linecap="butt"
     d="m 268.59842,72 h 136 v 48 h -136 z"
     fill-rule="nonzero"
     id="path1618" />
  <path
     style="opacity:0.25"
     fill="#000000"
     d="m 306.35342,98.545 1.6875,-0.140625 q 0.125,1.015625 0.5625,1.671875 0.4375,0.65625 1.35938,1.0625 0.9375,0.40625 2.09375,0.40625 1.03125,0 1.8125,-0.3125 0.79687,-0.3125 1.1875,-0.84375 0.39062,-0.53125 0.39062,-1.15625 0,-0.640625 -0.375,-1.109375 -0.375,-0.484375 -1.23437,-0.8125 -0.54688,-0.21875 -2.42188,-0.65625 -1.875,-0.453125 -2.625,-0.859375 -0.96875,-0.515625 -1.45312,-1.265625 -0.46875,-0.75 -0.46875,-1.6875 0,-1.03125 0.57812,-1.921875 0.59375,-0.90625 1.70313,-1.359375 1.125,-0.46875 2.5,-0.46875 1.51562,0 2.67187,0.484375 1.15625,0.484375 1.76563,1.4375 0.625,0.9375 0.67187,2.140625 l -1.71875,0.125 q -0.14062,-1.28125 -0.95312,-1.9375 Q 313.29092,90.67 311.72842,90.67 q -1.625,0 -2.375,0.609375 -0.75,0.59375 -0.75,1.4375 0,0.734375 0.53125,1.203125 0.51563,0.46875 2.70313,0.96875 2.20312,0.5 3.01562,0.875 1.1875,0.546875 1.75,1.390625 0.57813,0.828125 0.57813,1.921875 0,1.09375 -0.625,2.0625 -0.625,0.95313 -1.79688,1.48438 -1.15625,0.53125 -2.60937,0.53125 -1.84375,0 -3.09375,-0.53125 -1.25,-0.54688 -1.96875,-1.625 Q 306.38467,99.92 306.35342,98.545 Z m 19.5842,1.203125 1.71875,0.21875 q -0.40625,1.500005 -1.51563,2.343755 -1.09375,0.82812 -2.8125,0.82812 -2.15625,0 -3.42187,-1.32812 -1.26563,-1.32813 -1.26563,-3.73438 0,-2.484375 1.26563,-3.859375 1.28125,-1.375 3.32812,-1.375 1.98438,0 3.23438,1.34375 1.25,1.34375 1.25,3.796875 0,0.140625 -0.0156,0.4375 h -7.34375 q 0.0937,1.625 0.92188,2.48438 0.82812,0.85937 2.0625,0.85937 0.90625,0 1.54687,-0.46875 0.65625,-0.48437 1.04688,-1.546875 z M 320.45324,97.045 h 5.5 q -0.10937,-1.234375 -0.625,-1.859375 -0.79687,-0.96875 -2.07812,-0.96875 -1.14063,0 -1.9375,0.78125 -0.78125,0.765625 -0.85938,2.046875 z m 9.09446,5.875 v -9.859375 h 1.5 v 1.5 q 0.57812,-1.046875 1.0625,-1.375 0.48437,-0.34375 1.07812,-0.34375 0.84375,0 1.71875,0.546875 l -0.57812,1.546875 q -0.60938,-0.359375 -1.23438,-0.359375 -0.54687,0 -0.98437,0.328125 -0.42188,0.328125 -0.60938,0.90625 -0.28125,0.890625 -0.28125,1.953125 V 102.92 Z m 8.96267,0 -3.75,-9.859375 h 1.76563 l 2.125,5.90625 q 0.34375,0.953125 0.625,1.984375 0.21875,-0.78125 0.625,-1.875 l 2.1875,-6.015625 h 1.71875 L 340.07287,102.92 Z m 6.60938,-11.6875 v -1.90625 h 1.67187 v 1.90625 z m 0,11.6875 v -9.859375 h 1.67187 V 102.92 Z m 10.56671,-3.609375 1.64062,0.21875 q -0.26562,1.687505 -1.375,2.656255 -1.10937,0.95312 -2.73437,0.95312 -2.01563,0 -3.25,-1.3125 -1.21875,-1.32812 -1.21875,-3.796875 0,-1.59375 0.51562,-2.78125 0.53125,-1.203125 1.60938,-1.796875 1.09375,-0.609375 2.35937,-0.609375 1.60938,0 2.625,0.8125 1.01563,0.8125 1.3125,2.3125 l -1.625,0.25 q -0.23437,-1 -0.82812,-1.5 -0.59375,-0.5 -1.42188,-0.5 -1.26562,0 -2.0625,0.90625 -0.78125,0.90625 -0.78125,2.859375 0,1.984375 0.76563,2.89063 0.76562,0.89062 1.98437,0.89062 0.98438,0 1.64063,-0.59375 0.65625,-0.60937 0.84375,-1.859375 z m 9.64062,0.4375 1.71875,0.21875 q -0.40625,1.500005 -1.51562,2.343755 -1.09375,0.82812 -2.8125,0.82812 -2.15625,0 -3.42188,-1.32812 -1.26562,-1.32813 -1.26562,-3.73438 0,-2.484375 1.26562,-3.859375 1.28125,-1.375 3.32813,-1.375 1.98437,0 3.23437,1.34375 1.25,1.34375 1.25,3.796875 0,0.140625 -0.0156,0.4375 h -7.34375 q 0.0937,1.625 0.92187,2.48438 0.82813,0.85937 2.0625,0.85937 0.90625,0 1.54688,-0.46875 0.65625,-0.48437 1.04687,-1.546875 z M 359.84271,97.045 h 5.5 q -0.10938,-1.234375 -0.625,-1.859375 -0.79688,-0.96875 -2.07813,-0.96875 -1.14062,0 -1.9375,0.78125 -0.78125,0.765625 -0.85937,2.046875 z"
     fill-rule="nonzero"
     id="path1620" />
  <path
     style="opacity:0.25"
     fill="#000000"
     fill-opacity="0"
     d="m 336.59842,120 v 24"
     fill-rule="nonzero"
     id="path1622" />
  <path
     style="opacity:0.25"
     stroke="#000000"
     stroke-width="1"
     stroke-linejoin="round"
     stroke-linecap="butt"
     d="m 336.59842,123.42709 v 17.14583"
     fill-rule="evenodd"
     id="path1624" />
  <path
     style="opacity:0.25"
     fill="#000000"
     stroke="#000000"
     stroke-width="1"
     stroke-linecap="butt"
     d="m 336.59842,123.42709 1.1246,1.12458 -1.1246,-3.08977 -1.12457,3.08977 z"
     fill-rule="evenodd"
     id="path1626" />
  <path
     style="opacity:0.25"
     fill="#000000"
     stroke="#000000"
     stroke-width="1"
     stroke-linecap="butt"
     d="m 336.59842,140.5729 -1.12457,-1.12457 1.12457,3.08976 1.1246,-3.08976 z"
     fill-rule="evenodd"
     id="path1628" />
  <path
     fill="#000000"
     fill-opacity="0"
     d="m 172.59842,168 h 192"
     fill-rule="nonzero"
     id="path1636" />
  <path
     stroke="#000000"
     stroke-width="0.705512"
     stroke-linejoin="round"
     stroke-linecap="butt"
     d="m 176.02551,168 h 92.15558"
     fill-rule="evenodd"
     id="path1638" />
  <path
     fill="#000000"
     stroke="#000000"
     stroke-width="1"
     stroke-linecap="butt"
     d="m 176.02551,168 1.12459,-1.12459 -3.08977,1.12459 3.08977,1.12459 z"
     fill-rule="evenodd"
     id="path1640" />
  <path
     fill="#000000"
     fill-opacity="0"
     d="m 192,136 h 144 v 24 H 192 Z"
     fill-rule="nonzero"
     id="path1644" />
  <path
     fill="#000000"
     fill-opacity="0"
     d="m 192,160 h 144 v 40 H 192 Z"
     fill-rule="nonzero"
     id="path1648" />
  <path
     fill="#000000"
     fill-opacity="0"
     d="M 104.59843,192 168,264"
     fill-rule="nonzero"
     id="path1656" />
  <path
     fill="#000000"
     fill-opacity="0"
     d="M 104.59843,192 168,336"
     fill-rule="nonzero"
     id="path1664" />
  <path
     fill="#000000"
     fill-opacity="0"
     d="M 432.59842,192 360,264"
     fill-rule="nonzero"
     id="path1670" />
  <path
     fill="#000000"
     fill-opacity="0"
     d="M 432.59842,192 360,336"
     fill-rule="nonzero"
     id="path1678" />
  <text
     id="text1768"
     y="178.77054"
     x="182.31755"
     style="font-style:normal;font-weight:normal;font-size:40px;line-height:1.25;font-family:sans-serif;fill:#000000;fill-opacity:1;stroke:none"
     xml:space="preserve"><tspan
       style="font-size:10.6667px"
       y="178.77054"
       x="182.31755"
       id="tspan1766"
       sodipodi:role="line">:9221</tspan></text>
</svg>
