<svg xmlns="http://www.w3.org/2000/svg" xmlns:svg="http://www.w3.org/2000/svg" id="svg344" width="292.213" height="263.381" fill="none" stroke="none" stroke-linecap="square" stroke-miterlimit="10" version="1.1" viewBox="0 0 292.213 263.381"><metadata id="metadata350"/><defs id="defs348"><marker style="overflow:visible" id="Arrow1Mstart" orient="auto" refX="0" refY="0"><path style="fill-rule:evenodd;stroke:#000;stroke-width:1pt;stroke-opacity:1" id="path1251" d="M 0,0 5,-5 -12.5,0 5,5 Z" transform="matrix(0.4,0,0,0.4,4,0)"/></marker></defs><clipPath id="p.0"><path id="path199" d="M 0,0 H 528.2126 V 377.38058 H 0 Z" clip-rule="nonzero"/></clipPath><path id="path202" fill="#000" fill-opacity="0" fill-rule="nonzero" d="M 0,0 H 528.2126 V 377.38058 H 0 Z"/><path style="opacity:.25" id="path218" fill="#d9d9d9" fill-rule="nonzero" d="M 30.299213,64 H 180.59842 V 200 H 30.299213 Z"/><path style="opacity:.25" id="path220" fill-rule="nonzero" stroke="#000" stroke-linecap="butt" stroke-linejoin="round" stroke-width="1" d="M 30.299213,64 H 180.59842 V 200 H 30.299213 Z"/><path style="opacity:1" id="path222" fill="#cfe2f3" fill-rule="nonzero" d="M 36.598427,144 H 172.59843 v 48 H 36.598427 Z"/><path style="opacity:1" id="path224" fill-rule="nonzero" stroke="#000" stroke-linecap="butt" stroke-linejoin="round" stroke-width="1" d="M 36.598427,144 H 172.59843 v 48 H 36.598427 Z"/><path style="opacity:1" id="path226" fill="#000" fill-rule="nonzero" d="m 80.1728,174.92 v -13.59375 h 9.84375 V 162.92 h -8.046875 v 4.17187 h 7.53125 v 1.59375 h -7.53125 v 4.625 H 90.32905 V 174.92 Z m 12.193573,0 v -9.85938 h 1.5 v 1.40625 q 1.09375,-1.625 3.140625,-1.625 0.890625,0 1.640625,0.32813 0.75,0.3125 1.109375,0.84375 0.375002,0.51562 0.531252,1.21875 0.0937,0.46875 0.0937,1.625 v 6.0625 h -1.671877 v -6 q 0,-1.01563 -0.203125,-1.51563 -0.1875,-0.51562 -0.6875,-0.8125 -0.5,-0.29687 -1.171875,-0.29687 -1.0625,0 -1.84375,0.67187 -0.765625,0.67188 -0.765625,2.57813 v 5.375 z m 13.110087,0 -3.75,-9.85938 h 1.76563 l 2.125,5.90625 q 0.34375,0.95313 0.625,1.98438 0.21875,-0.78125 0.625,-1.875 l 2.1875,-6.01563 h 1.71875 l -3.73438,9.85938 z m 5.96875,-4.92188 q 0,-2.73437 1.53125,-4.0625 1.26563,-1.09375 3.09375,-1.09375 2.03125,0 3.3125,1.34375 1.29688,1.32813 1.29688,3.67188 0,1.90625 -0.57813,3 -0.5625,1.07812 -1.65625,1.6875 -1.07812,0.59375 -2.375,0.59375 -2.0625,0 -3.34375,-1.32813 -1.28125,-1.32812 -1.28125,-3.8125 z m 1.71875,0 q 0,1.89063 0.82813,2.82813 0.82812,0.9375 2.07812,0.9375 1.25,0 2.0625,-0.9375 0.82813,-0.95313 0.82813,-2.89063 0,-1.82812 -0.82813,-2.76562 -0.82812,-0.9375 -2.0625,-0.9375 -1.25,0 -2.07812,0.9375 -0.82813,0.9375 -0.82813,2.82812 z m 9.20385,8.71875 -0.17188,-1.5625 q 0.54688,0.14063 0.95313,0.14063 0.54687,0 0.875,-0.1875 0.34375,-0.1875 0.5625,-0.51563 0.15625,-0.25 0.5,-1.25 0.0469,-0.14062 0.15625,-0.40625 l -3.73438,-9.875 h 1.79688 l 2.04687,5.71875 q 0.40625,1.07813 0.71875,2.28125 0.28125,-1.15625 0.6875,-2.25 l 2.09374,-5.75 h 1.67188 l -3.74999,10.03125 q -0.59375,1.625 -0.9375,2.23438 -0.4375,0.82812 -1.01563,1.20312 -0.57812,0.39063 -1.375,0.39063 -0.48437,0 -1.07812,-0.20313 z"/><path style="opacity:1" id="path228" fill="#cfe2f3" fill-rule="nonzero" d="M 36.598427,72 H 172.59843 v 48 H 36.598427 Z"/><path style="opacity:1" id="path230" fill-rule="nonzero" stroke="#000" stroke-linecap="butt" stroke-linejoin="round" stroke-width="1" d="M 36.598427,72 H 172.59843 v 48 H 36.598427 Z"/><path style="opacity:1" id="path232" fill="#000" fill-rule="nonzero" d="m 74.353424,98.545 1.6875,-0.140625 q 0.125,1.015625 0.5625,1.671875 0.4375,0.65625 1.359375,1.0625 0.9375,0.40625 2.09375,0.40625 1.03125,0 1.8125,-0.3125 0.796875,-0.3125 1.1875,-0.84375 0.390625,-0.53125 0.390625,-1.15625 0,-0.640625 -0.375,-1.109375 -0.375,-0.484375 -1.234375,-0.8125 -0.546875,-0.21875 -2.421875,-0.65625 -1.875,-0.453125 -2.625,-0.859375 -0.96875,-0.515625 -1.453125,-1.265625 -0.46875,-0.75 -0.46875,-1.6875 0,-1.03125 0.578125,-1.921875 0.59375,-0.90625 1.703125,-1.359375 1.125,-0.46875 2.5,-0.46875 1.515625,0 2.671875,0.484375 1.15625,0.484375 1.765625,1.4375 0.625,0.9375 0.671875,2.140625 l -1.71875,0.125 q -0.140625,-1.28125 -0.953125,-1.9375 Q 81.290924,90.67 79.728424,90.67 q -1.625,0 -2.375,0.609375 -0.75,0.59375 -0.75,1.4375 0,0.734375 0.53125,1.203125 0.515625,0.46875 2.703125,0.96875 2.203125,0.5 3.015625,0.875 1.1875,0.546875 1.75,1.390625 0.578125,0.828125 0.578125,1.921875 0,1.09375 -0.625,2.0625 -0.625,0.95313 -1.796875,1.48438 -1.15625,0.53125 -2.609375,0.53125 -1.84375,0 -3.09375,-0.53125 -1.25,-0.54688 -1.96875,-1.625 Q 74.384674,99.92 74.353424,98.545 Z m 19.584198,1.203125 1.71875,0.21875 q -0.40625,1.500005 -1.515625,2.343755 -1.09375,0.82812 -2.8125,0.82812 -2.15625,0 -3.421875,-1.32812 -1.265625,-1.32813 -1.265625,-3.73438 0,-2.484375 1.265625,-3.859375 1.28125,-1.375 3.328125,-1.375 1.984375,0 3.234375,1.34375 1.25,1.34375 1.25,3.796875 0,0.140625 -0.01563,0.4375 h -7.34375 q 0.09375,1.625 0.921875,2.48438 0.828125,0.85937 2.0625,0.85937 0.90625,0 1.546875,-0.46875 0.65625,-0.48437 1.046875,-1.546875 z M 88.453247,97.045 h 5.5 q -0.109375,-1.234375 -0.625,-1.859375 -0.796875,-0.96875 -2.078125,-0.96875 -1.140625,0 -1.9375,0.78125 -0.78125,0.765625 -0.859375,2.046875 z m 9.094467,5.875 v -9.859375 h 1.5 v 1.5 q 0.578125,-1.046875 1.062496,-1.375 0.48438,-0.34375 1.07813,-0.34375 0.84375,0 1.71875,0.546875 l -0.57813,1.546875 q -0.60937,-0.359375 -1.23437,-0.359375 -0.54688,0 -0.98438,0.328125 -0.421871,0.328125 -0.609371,0.90625 -0.28125,0.890625 -0.28125,1.953125 V 102.92 Z m 8.962676,0 -3.75,-9.859375 h 1.76563 l 2.125,5.90625 q 0.34375,0.953125 0.625,1.984375 0.21875,-0.78125 0.625,-1.875 l 2.1875,-6.015625 h 1.71875 L 108.07289,102.92 Z m 6.60938,-11.6875 v -1.90625 h 1.67187 v 1.90625 z m 0,11.6875 v -9.859375 h 1.67187 V 102.92 Z m 10.56669,-3.609375 1.64063,0.21875 q -0.26563,1.687505 -1.375,2.656255 -1.10938,0.95312 -2.73438,0.95312 -2.01562,0 -3.25,-1.3125 -1.21875,-1.32812 -1.21875,-3.796875 0,-1.59375 0.51563,-2.78125 0.53125,-1.203125 1.60937,-1.796875 1.09375,-0.609375 2.35938,-0.609375 1.60937,0 2.625,0.8125 1.01562,0.8125 1.3125,2.3125 l -1.625,0.25 q -0.23438,-1 -0.82813,-1.5 -0.59375,-0.5 -1.42187,-0.5 -1.26563,0 -2.0625,0.90625 -0.78125,0.90625 -0.78125,2.859375 0,1.984375 0.76562,2.89063 0.76563,0.89062 1.98438,0.89062 0.98437,0 1.64062,-0.59375 0.65625,-0.60937 0.84375,-1.859375 z m 9.64063,0.4375 1.71875,0.21875 q -0.40625,1.500005 -1.51563,2.343755 -1.09375,0.82812 -2.8125,0.82812 -2.15625,0 -3.42187,-1.32812 -1.26563,-1.32813 -1.26563,-3.73438 0,-2.484375 1.26563,-3.859375 1.28125,-1.375 3.32812,-1.375 1.98438,0 3.23438,1.34375 1.25,1.34375 1.25,3.796875 0,0.140625 -0.0156,0.4375 h -7.34375 q 0.0937,1.625 0.92188,2.48438 0.82812,0.85937 2.0625,0.85937 0.90625,0 1.54687,-0.46875 0.65625,-0.48437 1.04688,-1.546875 z M 127.84271,97.045 h 5.5 q -0.10937,-1.234375 -0.625,-1.859375 -0.79687,-0.96875 -2.07812,-0.96875 -1.14063,0 -1.9375,0.78125 -0.78125,0.765625 -0.85938,2.046875 z"/><path style="opacity:1" id="path234" fill="#000" fill-opacity="0" fill-rule="nonzero" d="m 104.59843,120 v 24"/><path style="opacity:1" id="path236" fill-rule="evenodd" stroke="#000" stroke-linecap="butt" stroke-linejoin="round" stroke-width="1.095" d="m 104.59843,120 v 20.57292"/><path style="opacity:1" id="path240" fill="#000" fill-rule="evenodd" stroke="#000" stroke-linecap="butt" stroke-width="1" d="m 104.59843,140.5729 -1.12459,-1.12457 1.12459,3.08976 1.12458,-3.08976 z"/><path id="path292" fill="#000" fill-opacity="0" fill-rule="nonzero" d="m 172.59842,168 h 192"/><path style="opacity:.25;stroke:#000;stroke-opacity:1" id="path294" fill-rule="evenodd" stroke="#000" stroke-linecap="butt" stroke-linejoin="round" stroke-width=".491" d="m 172.59842,168 h 44.57291"/><path style="opacity:.25" id="path298" fill="#000" fill-rule="evenodd" stroke="#000" stroke-linecap="butt" stroke-width="1" d="m 217.17133,168 -1.12457,1.12459 3.08978,-1.12459 -3.08978,-1.12459 z"/><path id="path300" fill="#000" fill-opacity="0" fill-rule="nonzero" d="m 192,136 h 144 v 24 H 192 Z"/><path id="path304" fill="#000" fill-opacity="0" fill-rule="nonzero" d="m 192,160 h 144 v 40 H 192 Z"/><path id="path312" fill="#000" fill-opacity="0" fill-rule="nonzero" d="M 104.59843,192 168,264"/><path id="path320" fill="#000" fill-opacity="0" fill-rule="nonzero" d="M 104.59843,192 168,336"/><path id="path326" fill="#000" fill-opacity="0" fill-rule="nonzero" d="M 432.59842,192 360,264"/><path id="path334" fill="#000" fill-opacity="0" fill-rule="nonzero" d="M 432.59842,192 360,336"/><text id="text1523" x="106.766" y="141.881" xml:space="preserve" style="font-style:normal;font-weight:400;font-size:40px;line-height:1.25;font-family:sans-serif;fill:#000;fill-opacity:1;stroke:none"><tspan style="font-size:10.6667px" id="tspan1521" x="106.766" y="141.881">:9901</tspan></text></svg>