<?xml version="1.0" encoding="utf-8" standalone="no"?>
<!DOCTYPE svg PUBLIC "-//W3C//DTD SVG 1.1//EN"
  "http://www.w3.org/Graphics/SVG/1.1/DTD/svg11.dtd">
<svg height="277.314375pt" version="1.1" viewBox="0 0 386.479464 277.314375" width="386.479464pt" xmlns="http://www.w3.org/2000/svg" xmlns:xlink="http://www.w3.org/1999/xlink">
 <metadata>
  <rdf:RDF xmlns:cc="http://creativecommons.org/ns#" xmlns:dc="http://purl.org/dc/elements/1.1/" xmlns:rdf="http://www.w3.org/1999/02/22-rdf-syntax-ns#">
   <cc:Work>
    <dc:type rdf:resource="http://purl.org/dc/dcmitype/StillImage"/>
    <dc:date>2021-04-26T00:13:24.988771</dc:date>
    <dc:format>image/svg+xml</dc:format>
    <dc:creator>
     <cc:Agent>
      <dc:title>Matplotlib v3.4.1, https://matplotlib.org/</dc:title>
     </cc:Agent>
    </dc:creator>
   </cc:Work>
  </rdf:RDF>
 </metadata>
 <defs>
  <style type="text/css">*{stroke-linecap:butt;stroke-linejoin:round;}</style>
 </defs>
 <g id="figure_1">
  <g id="patch_1">
   <path d="M 0 277.314375 
L 386.479464 277.314375 
L 386.479464 0 
L 0 0 
z
" style="fill:none;"/>
  </g>
  <g id="axes_1">
   <g id="patch_2">
    <path d="M 43.78125 239.758125 
L 378.58125 239.758125 
L 378.58125 22.318125 
L 43.78125 22.318125 
z
" style="fill:#ffffff;"/>
   </g>
   <g id="matplotlib.axis_1">
    <g id="xtick_1">
     <g id="line2d_1">
      <defs>
       <path d="M 0 0 
L 0 3.5 
" id="mffc80eadfe" style="stroke:#000000;stroke-width:0.8;"/>
      </defs>
      <g>
       <use style="stroke:#000000;stroke-width:0.8;" x="58.989286" xlink:href="#mffc80eadfe" y="239.758125"/>
      </g>
     </g>
     <g id="text_1">
      <!-- 0 -->
      <g transform="translate(55.808036 254.356562)scale(0.1 -0.1)">
       <defs>
        <path d="M 2034 4250 
Q 1547 4250 1301 3770 
Q 1056 3291 1056 2328 
Q 1056 1369 1301 889 
Q 1547 409 2034 409 
Q 2525 409 2770 889 
Q 3016 1369 3016 2328 
Q 3016 3291 2770 3770 
Q 2525 4250 2034 4250 
z
M 2034 4750 
Q 2819 4750 3233 4129 
Q 3647 3509 3647 2328 
Q 3647 1150 3233 529 
Q 2819 -91 2034 -91 
Q 1250 -91 836 529 
Q 422 1150 422 2328 
Q 422 3509 836 4129 
Q 1250 4750 2034 4750 
z
" id="DejaVuSans-30" transform="scale(0.015625)"/>
       </defs>
       <use xlink:href="#DejaVuSans-30"/>
      </g>
     </g>
    </g>
    <g id="xtick_2">
     <g id="line2d_2">
      <g>
       <use style="stroke:#000000;stroke-width:0.8;" x="109.71994" xlink:href="#mffc80eadfe" y="239.758125"/>
      </g>
     </g>
     <g id="text_2">
      <!-- 5000 -->
      <g transform="translate(96.99494 254.356562)scale(0.1 -0.1)">
       <defs>
        <path d="M 691 4666 
L 3169 4666 
L 3169 4134 
L 1269 4134 
L 1269 2991 
Q 1406 3038 1543 3061 
Q 1681 3084 1819 3084 
Q 2600 3084 3056 2656 
Q 3513 2228 3513 1497 
Q 3513 744 3044 326 
Q 2575 -91 1722 -91 
Q 1428 -91 1123 -41 
Q 819 9 494 109 
L 494 744 
Q 775 591 1075 516 
Q 1375 441 1709 441 
Q 2250 441 2565 725 
Q 2881 1009 2881 1497 
Q 2881 1984 2565 2268 
Q 2250 2553 1709 2553 
Q 1456 2553 1204 2497 
Q 953 2441 691 2322 
L 691 4666 
z
" id="DejaVuSans-35" transform="scale(0.015625)"/>
       </defs>
       <use xlink:href="#DejaVuSans-35"/>
       <use x="63.623047" xlink:href="#DejaVuSans-30"/>
       <use x="127.246094" xlink:href="#DejaVuSans-30"/>
       <use x="190.869141" xlink:href="#DejaVuSans-30"/>
      </g>
     </g>
    </g>
    <g id="xtick_3">
     <g id="line2d_3">
      <g>
       <use style="stroke:#000000;stroke-width:0.8;" x="160.450595" xlink:href="#mffc80eadfe" y="239.758125"/>
      </g>
     </g>
     <g id="text_3">
      <!-- 10000 -->
      <g transform="translate(144.544345 254.356562)scale(0.1 -0.1)">
       <defs>
        <path d="M 794 531 
L 1825 531 
L 1825 4091 
L 703 3866 
L 703 4441 
L 1819 4666 
L 2450 4666 
L 2450 531 
L 3481 531 
L 3481 0 
L 794 0 
L 794 531 
z
" id="DejaVuSans-31" transform="scale(0.015625)"/>
       </defs>
       <use xlink:href="#DejaVuSans-31"/>
       <use x="63.623047" xlink:href="#DejaVuSans-30"/>
       <use x="127.246094" xlink:href="#DejaVuSans-30"/>
       <use x="190.869141" xlink:href="#DejaVuSans-30"/>
       <use x="254.492188" xlink:href="#DejaVuSans-30"/>
      </g>
     </g>
    </g>
    <g id="xtick_4">
     <g id="line2d_4">
      <g>
       <use style="stroke:#000000;stroke-width:0.8;" x="211.18125" xlink:href="#mffc80eadfe" y="239.758125"/>
      </g>
     </g>
     <g id="text_4">
      <!-- 15000 -->
      <g transform="translate(195.275 254.356562)scale(0.1 -0.1)">
       <use xlink:href="#DejaVuSans-31"/>
       <use x="63.623047" xlink:href="#DejaVuSans-35"/>
       <use x="127.246094" xlink:href="#DejaVuSans-30"/>
       <use x="190.869141" xlink:href="#DejaVuSans-30"/>
       <use x="254.492188" xlink:href="#DejaVuSans-30"/>
      </g>
     </g>
    </g>
    <g id="xtick_5">
     <g id="line2d_5">
      <g>
       <use style="stroke:#000000;stroke-width:0.8;" x="261.911905" xlink:href="#mffc80eadfe" y="239.758125"/>
      </g>
     </g>
     <g id="text_5">
      <!-- 20000 -->
      <g transform="translate(246.005655 254.356562)scale(0.1 -0.1)">
       <defs>
        <path d="M 1228 531 
L 3431 531 
L 3431 0 
L 469 0 
L 469 531 
Q 828 903 1448 1529 
Q 2069 2156 2228 2338 
Q 2531 2678 2651 2914 
Q 2772 3150 2772 3378 
Q 2772 3750 2511 3984 
Q 2250 4219 1831 4219 
Q 1534 4219 1204 4116 
Q 875 4013 500 3803 
L 500 4441 
Q 881 4594 1212 4672 
Q 1544 4750 1819 4750 
Q 2544 4750 2975 4387 
Q 3406 4025 3406 3419 
Q 3406 3131 3298 2873 
Q 3191 2616 2906 2266 
Q 2828 2175 2409 1742 
Q 1991 1309 1228 531 
z
" id="DejaVuSans-32" transform="scale(0.015625)"/>
       </defs>
       <use xlink:href="#DejaVuSans-32"/>
       <use x="63.623047" xlink:href="#DejaVuSans-30"/>
       <use x="127.246094" xlink:href="#DejaVuSans-30"/>
       <use x="190.869141" xlink:href="#DejaVuSans-30"/>
       <use x="254.492188" xlink:href="#DejaVuSans-30"/>
      </g>
     </g>
    </g>
    <g id="xtick_6">
     <g id="line2d_6">
      <g>
       <use style="stroke:#000000;stroke-width:0.8;" x="312.64256" xlink:href="#mffc80eadfe" y="239.758125"/>
      </g>
     </g>
     <g id="text_6">
      <!-- 25000 -->
      <g transform="translate(296.73631 254.356562)scale(0.1 -0.1)">
       <use xlink:href="#DejaVuSans-32"/>
       <use x="63.623047" xlink:href="#DejaVuSans-35"/>
       <use x="127.246094" xlink:href="#DejaVuSans-30"/>
       <use x="190.869141" xlink:href="#DejaVuSans-30"/>
       <use x="254.492188" xlink:href="#DejaVuSans-30"/>
      </g>
     </g>
    </g>
    <g id="xtick_7">
     <g id="line2d_7">
      <g>
       <use style="stroke:#000000;stroke-width:0.8;" x="363.373214" xlink:href="#mffc80eadfe" y="239.758125"/>
      </g>
     </g>
     <g id="text_7">
      <!-- 30000 -->
      <g transform="translate(347.466964 254.356562)scale(0.1 -0.1)">
       <defs>
        <path d="M 2597 2516 
Q 3050 2419 3304 2112 
Q 3559 1806 3559 1356 
Q 3559 666 3084 287 
Q 2609 -91 1734 -91 
Q 1441 -91 1130 -33 
Q 819 25 488 141 
L 488 750 
Q 750 597 1062 519 
Q 1375 441 1716 441 
Q 2309 441 2620 675 
Q 2931 909 2931 1356 
Q 2931 1769 2642 2001 
Q 2353 2234 1838 2234 
L 1294 2234 
L 1294 2753 
L 1863 2753 
Q 2328 2753 2575 2939 
Q 2822 3125 2822 3475 
Q 2822 3834 2567 4026 
Q 2313 4219 1838 4219 
Q 1578 4219 1281 4162 
Q 984 4106 628 3988 
L 628 4550 
Q 988 4650 1302 4700 
Q 1616 4750 1894 4750 
Q 2613 4750 3031 4423 
Q 3450 4097 3450 3541 
Q 3450 3153 3228 2886 
Q 3006 2619 2597 2516 
z
" id="DejaVuSans-33" transform="scale(0.015625)"/>
       </defs>
       <use xlink:href="#DejaVuSans-33"/>
       <use x="63.623047" xlink:href="#DejaVuSans-30"/>
       <use x="127.246094" xlink:href="#DejaVuSans-30"/>
       <use x="190.869141" xlink:href="#DejaVuSans-30"/>
       <use x="254.492188" xlink:href="#DejaVuSans-30"/>
      </g>
     </g>
    </g>
    <g id="text_8">
     <!-- time (ms) -->
     <g transform="translate(186.919531 268.034687)scale(0.1 -0.1)">
      <defs>
       <path d="M 1172 4494 
L 1172 3500 
L 2356 3500 
L 2356 3053 
L 1172 3053 
L 1172 1153 
Q 1172 725 1289 603 
Q 1406 481 1766 481 
L 2356 481 
L 2356 0 
L 1766 0 
Q 1100 0 847 248 
Q 594 497 594 1153 
L 594 3053 
L 172 3053 
L 172 3500 
L 594 3500 
L 594 4494 
L 1172 4494 
z
" id="DejaVuSans-74" transform="scale(0.015625)"/>
       <path d="M 603 3500 
L 1178 3500 
L 1178 0 
L 603 0 
L 603 3500 
z
M 603 4863 
L 1178 4863 
L 1178 4134 
L 603 4134 
L 603 4863 
z
" id="DejaVuSans-69" transform="scale(0.015625)"/>
       <path d="M 3328 2828 
Q 3544 3216 3844 3400 
Q 4144 3584 4550 3584 
Q 5097 3584 5394 3201 
Q 5691 2819 5691 2113 
L 5691 0 
L 5113 0 
L 5113 2094 
Q 5113 2597 4934 2840 
Q 4756 3084 4391 3084 
Q 3944 3084 3684 2787 
Q 3425 2491 3425 1978 
L 3425 0 
L 2847 0 
L 2847 2094 
Q 2847 2600 2669 2842 
Q 2491 3084 2119 3084 
Q 1678 3084 1418 2786 
Q 1159 2488 1159 1978 
L 1159 0 
L 581 0 
L 581 3500 
L 1159 3500 
L 1159 2956 
Q 1356 3278 1631 3431 
Q 1906 3584 2284 3584 
Q 2666 3584 2933 3390 
Q 3200 3197 3328 2828 
z
" id="DejaVuSans-6d" transform="scale(0.015625)"/>
       <path d="M 3597 1894 
L 3597 1613 
L 953 1613 
Q 991 1019 1311 708 
Q 1631 397 2203 397 
Q 2534 397 2845 478 
Q 3156 559 3463 722 
L 3463 178 
Q 3153 47 2828 -22 
Q 2503 -91 2169 -91 
Q 1331 -91 842 396 
Q 353 884 353 1716 
Q 353 2575 817 3079 
Q 1281 3584 2069 3584 
Q 2775 3584 3186 3129 
Q 3597 2675 3597 1894 
z
M 3022 2063 
Q 3016 2534 2758 2815 
Q 2500 3097 2075 3097 
Q 1594 3097 1305 2825 
Q 1016 2553 972 2059 
L 3022 2063 
z
" id="DejaVuSans-65" transform="scale(0.015625)"/>
       <path id="DejaVuSans-20" transform="scale(0.015625)"/>
       <path d="M 1984 4856 
Q 1566 4138 1362 3434 
Q 1159 2731 1159 2009 
Q 1159 1288 1364 580 
Q 1569 -128 1984 -844 
L 1484 -844 
Q 1016 -109 783 600 
Q 550 1309 550 2009 
Q 550 2706 781 3412 
Q 1013 4119 1484 4856 
L 1984 4856 
z
" id="DejaVuSans-28" transform="scale(0.015625)"/>
       <path d="M 2834 3397 
L 2834 2853 
Q 2591 2978 2328 3040 
Q 2066 3103 1784 3103 
Q 1356 3103 1142 2972 
Q 928 2841 928 2578 
Q 928 2378 1081 2264 
Q 1234 2150 1697 2047 
L 1894 2003 
Q 2506 1872 2764 1633 
Q 3022 1394 3022 966 
Q 3022 478 2636 193 
Q 2250 -91 1575 -91 
Q 1294 -91 989 -36 
Q 684 19 347 128 
L 347 722 
Q 666 556 975 473 
Q 1284 391 1588 391 
Q 1994 391 2212 530 
Q 2431 669 2431 922 
Q 2431 1156 2273 1281 
Q 2116 1406 1581 1522 
L 1381 1569 
Q 847 1681 609 1914 
Q 372 2147 372 2553 
Q 372 3047 722 3315 
Q 1072 3584 1716 3584 
Q 2034 3584 2315 3537 
Q 2597 3491 2834 3397 
z
" id="DejaVuSans-73" transform="scale(0.015625)"/>
       <path d="M 513 4856 
L 1013 4856 
Q 1481 4119 1714 3412 
Q 1947 2706 1947 2009 
Q 1947 1309 1714 600 
Q 1481 -109 1013 -844 
L 513 -844 
Q 928 -128 1133 580 
Q 1338 1288 1338 2009 
Q 1338 2731 1133 3434 
Q 928 4138 513 4856 
z
" id="DejaVuSans-29" transform="scale(0.015625)"/>
      </defs>
      <use xlink:href="#DejaVuSans-74"/>
      <use x="39.208984" xlink:href="#DejaVuSans-69"/>
      <use x="66.992188" xlink:href="#DejaVuSans-6d"/>
      <use x="164.404297" xlink:href="#DejaVuSans-65"/>
      <use x="225.927734" xlink:href="#DejaVuSans-20"/>
      <use x="257.714844" xlink:href="#DejaVuSans-28"/>
      <use x="296.728516" xlink:href="#DejaVuSans-6d"/>
      <use x="394.140625" xlink:href="#DejaVuSans-73"/>
      <use x="446.240234" xlink:href="#DejaVuSans-29"/>
     </g>
    </g>
   </g>
   <g id="matplotlib.axis_2">
    <g id="ytick_1">
     <g id="line2d_8">
      <defs>
       <path d="M 0 0 
L -3.5 0 
" id="meb83f1fc46" style="stroke:#000000;stroke-width:0.8;"/>
      </defs>
      <g>
       <use style="stroke:#000000;stroke-width:0.8;" x="43.78125" xlink:href="#meb83f1fc46" y="229.881078"/>
      </g>
     </g>
     <g id="text_9">
      <!-- 0.0 -->
      <g transform="translate(20.878125 233.680297)scale(0.1 -0.1)">
       <defs>
        <path d="M 684 794 
L 1344 794 
L 1344 0 
L 684 0 
L 684 794 
z
" id="DejaVuSans-2e" transform="scale(0.015625)"/>
       </defs>
       <use xlink:href="#DejaVuSans-30"/>
       <use x="63.623047" xlink:href="#DejaVuSans-2e"/>
       <use x="95.410156" xlink:href="#DejaVuSans-30"/>
      </g>
     </g>
    </g>
    <g id="ytick_2">
     <g id="line2d_9">
      <g>
       <use style="stroke:#000000;stroke-width:0.8;" x="43.78125" xlink:href="#meb83f1fc46" y="190.345039"/>
      </g>
     </g>
     <g id="text_10">
      <!-- 0.2 -->
      <g transform="translate(20.878125 194.144258)scale(0.1 -0.1)">
       <use xlink:href="#DejaVuSans-30"/>
       <use x="63.623047" xlink:href="#DejaVuSans-2e"/>
       <use x="95.410156" xlink:href="#DejaVuSans-32"/>
      </g>
     </g>
    </g>
    <g id="ytick_3">
     <g id="line2d_10">
      <g>
       <use style="stroke:#000000;stroke-width:0.8;" x="43.78125" xlink:href="#meb83f1fc46" y="150.809"/>
      </g>
     </g>
     <g id="text_11">
      <!-- 0.4 -->
      <g transform="translate(20.878125 154.608219)scale(0.1 -0.1)">
       <defs>
        <path d="M 2419 4116 
L 825 1625 
L 2419 1625 
L 2419 4116 
z
M 2253 4666 
L 3047 4666 
L 3047 1625 
L 3713 1625 
L 3713 1100 
L 3047 1100 
L 3047 0 
L 2419 0 
L 2419 1100 
L 313 1100 
L 313 1709 
L 2253 4666 
z
" id="DejaVuSans-34" transform="scale(0.015625)"/>
       </defs>
       <use xlink:href="#DejaVuSans-30"/>
       <use x="63.623047" xlink:href="#DejaVuSans-2e"/>
       <use x="95.410156" xlink:href="#DejaVuSans-34"/>
      </g>
     </g>
    </g>
    <g id="ytick_4">
     <g id="line2d_11">
      <g>
       <use style="stroke:#000000;stroke-width:0.8;" x="43.78125" xlink:href="#meb83f1fc46" y="111.272961"/>
      </g>
     </g>
     <g id="text_12">
      <!-- 0.6 -->
      <g transform="translate(20.878125 115.07218)scale(0.1 -0.1)">
       <defs>
        <path d="M 2113 2584 
Q 1688 2584 1439 2293 
Q 1191 2003 1191 1497 
Q 1191 994 1439 701 
Q 1688 409 2113 409 
Q 2538 409 2786 701 
Q 3034 994 3034 1497 
Q 3034 2003 2786 2293 
Q 2538 2584 2113 2584 
z
M 3366 4563 
L 3366 3988 
Q 3128 4100 2886 4159 
Q 2644 4219 2406 4219 
Q 1781 4219 1451 3797 
Q 1122 3375 1075 2522 
Q 1259 2794 1537 2939 
Q 1816 3084 2150 3084 
Q 2853 3084 3261 2657 
Q 3669 2231 3669 1497 
Q 3669 778 3244 343 
Q 2819 -91 2113 -91 
Q 1303 -91 875 529 
Q 447 1150 447 2328 
Q 447 3434 972 4092 
Q 1497 4750 2381 4750 
Q 2619 4750 2861 4703 
Q 3103 4656 3366 4563 
z
" id="DejaVuSans-36" transform="scale(0.015625)"/>
       </defs>
       <use xlink:href="#DejaVuSans-30"/>
       <use x="63.623047" xlink:href="#DejaVuSans-2e"/>
       <use x="95.410156" xlink:href="#DejaVuSans-36"/>
      </g>
     </g>
    </g>
    <g id="ytick_5">
     <g id="line2d_12">
      <g>
       <use style="stroke:#000000;stroke-width:0.8;" x="43.78125" xlink:href="#meb83f1fc46" y="71.736922"/>
      </g>
     </g>
     <g id="text_13">
      <!-- 0.8 -->
      <g transform="translate(20.878125 75.536141)scale(0.1 -0.1)">
       <defs>
        <path d="M 2034 2216 
Q 1584 2216 1326 1975 
Q 1069 1734 1069 1313 
Q 1069 891 1326 650 
Q 1584 409 2034 409 
Q 2484 409 2743 651 
Q 3003 894 3003 1313 
Q 3003 1734 2745 1975 
Q 2488 2216 2034 2216 
z
M 1403 2484 
Q 997 2584 770 2862 
Q 544 3141 544 3541 
Q 544 4100 942 4425 
Q 1341 4750 2034 4750 
Q 2731 4750 3128 4425 
Q 3525 4100 3525 3541 
Q 3525 3141 3298 2862 
Q 3072 2584 2669 2484 
Q 3125 2378 3379 2068 
Q 3634 1759 3634 1313 
Q 3634 634 3220 271 
Q 2806 -91 2034 -91 
Q 1263 -91 848 271 
Q 434 634 434 1313 
Q 434 1759 690 2068 
Q 947 2378 1403 2484 
z
M 1172 3481 
Q 1172 3119 1398 2916 
Q 1625 2713 2034 2713 
Q 2441 2713 2670 2916 
Q 2900 3119 2900 3481 
Q 2900 3844 2670 4047 
Q 2441 4250 2034 4250 
Q 1625 4250 1398 4047 
Q 1172 3844 1172 3481 
z
" id="DejaVuSans-38" transform="scale(0.015625)"/>
       </defs>
       <use xlink:href="#DejaVuSans-30"/>
       <use x="63.623047" xlink:href="#DejaVuSans-2e"/>
       <use x="95.410156" xlink:href="#DejaVuSans-38"/>
      </g>
     </g>
    </g>
    <g id="ytick_6">
     <g id="line2d_13">
      <g>
       <use style="stroke:#000000;stroke-width:0.8;" x="43.78125" xlink:href="#meb83f1fc46" y="32.200883"/>
      </g>
     </g>
     <g id="text_14">
      <!-- 1.0 -->
      <g transform="translate(20.878125 36.000102)scale(0.1 -0.1)">
       <use xlink:href="#DejaVuSans-31"/>
       <use x="63.623047" xlink:href="#DejaVuSans-2e"/>
       <use x="95.410156" xlink:href="#DejaVuSans-30"/>
      </g>
     </g>
    </g>
    <g id="text_15">
     <!-- Fraction of target weight -->
     <g transform="translate(14.798438 192.645156)rotate(-90)scale(0.1 -0.1)">
      <defs>
       <path d="M 628 4666 
L 3309 4666 
L 3309 4134 
L 1259 4134 
L 1259 2759 
L 3109 2759 
L 3109 2228 
L 1259 2228 
L 1259 0 
L 628 0 
L 628 4666 
z
" id="DejaVuSans-46" transform="scale(0.015625)"/>
       <path d="M 2631 2963 
Q 2534 3019 2420 3045 
Q 2306 3072 2169 3072 
Q 1681 3072 1420 2755 
Q 1159 2438 1159 1844 
L 1159 0 
L 581 0 
L 581 3500 
L 1159 3500 
L 1159 2956 
Q 1341 3275 1631 3429 
Q 1922 3584 2338 3584 
Q 2397 3584 2469 3576 
Q 2541 3569 2628 3553 
L 2631 2963 
z
" id="DejaVuSans-72" transform="scale(0.015625)"/>
       <path d="M 2194 1759 
Q 1497 1759 1228 1600 
Q 959 1441 959 1056 
Q 959 750 1161 570 
Q 1363 391 1709 391 
Q 2188 391 2477 730 
Q 2766 1069 2766 1631 
L 2766 1759 
L 2194 1759 
z
M 3341 1997 
L 3341 0 
L 2766 0 
L 2766 531 
Q 2569 213 2275 61 
Q 1981 -91 1556 -91 
Q 1019 -91 701 211 
Q 384 513 384 1019 
Q 384 1609 779 1909 
Q 1175 2209 1959 2209 
L 2766 2209 
L 2766 2266 
Q 2766 2663 2505 2880 
Q 2244 3097 1772 3097 
Q 1472 3097 1187 3025 
Q 903 2953 641 2809 
L 641 3341 
Q 956 3463 1253 3523 
Q 1550 3584 1831 3584 
Q 2591 3584 2966 3190 
Q 3341 2797 3341 1997 
z
" id="DejaVuSans-61" transform="scale(0.015625)"/>
       <path d="M 3122 3366 
L 3122 2828 
Q 2878 2963 2633 3030 
Q 2388 3097 2138 3097 
Q 1578 3097 1268 2742 
Q 959 2388 959 1747 
Q 959 1106 1268 751 
Q 1578 397 2138 397 
Q 2388 397 2633 464 
Q 2878 531 3122 666 
L 3122 134 
Q 2881 22 2623 -34 
Q 2366 -91 2075 -91 
Q 1284 -91 818 406 
Q 353 903 353 1747 
Q 353 2603 823 3093 
Q 1294 3584 2113 3584 
Q 2378 3584 2631 3529 
Q 2884 3475 3122 3366 
z
" id="DejaVuSans-63" transform="scale(0.015625)"/>
       <path d="M 1959 3097 
Q 1497 3097 1228 2736 
Q 959 2375 959 1747 
Q 959 1119 1226 758 
Q 1494 397 1959 397 
Q 2419 397 2687 759 
Q 2956 1122 2956 1747 
Q 2956 2369 2687 2733 
Q 2419 3097 1959 3097 
z
M 1959 3584 
Q 2709 3584 3137 3096 
Q 3566 2609 3566 1747 
Q 3566 888 3137 398 
Q 2709 -91 1959 -91 
Q 1206 -91 779 398 
Q 353 888 353 1747 
Q 353 2609 779 3096 
Q 1206 3584 1959 3584 
z
" id="DejaVuSans-6f" transform="scale(0.015625)"/>
       <path d="M 3513 2113 
L 3513 0 
L 2938 0 
L 2938 2094 
Q 2938 2591 2744 2837 
Q 2550 3084 2163 3084 
Q 1697 3084 1428 2787 
Q 1159 2491 1159 1978 
L 1159 0 
L 581 0 
L 581 3500 
L 1159 3500 
L 1159 2956 
Q 1366 3272 1645 3428 
Q 1925 3584 2291 3584 
Q 2894 3584 3203 3211 
Q 3513 2838 3513 2113 
z
" id="DejaVuSans-6e" transform="scale(0.015625)"/>
       <path d="M 2375 4863 
L 2375 4384 
L 1825 4384 
Q 1516 4384 1395 4259 
Q 1275 4134 1275 3809 
L 1275 3500 
L 2222 3500 
L 2222 3053 
L 1275 3053 
L 1275 0 
L 697 0 
L 697 3053 
L 147 3053 
L 147 3500 
L 697 3500 
L 697 3744 
Q 697 4328 969 4595 
Q 1241 4863 1831 4863 
L 2375 4863 
z
" id="DejaVuSans-66" transform="scale(0.015625)"/>
       <path d="M 2906 1791 
Q 2906 2416 2648 2759 
Q 2391 3103 1925 3103 
Q 1463 3103 1205 2759 
Q 947 2416 947 1791 
Q 947 1169 1205 825 
Q 1463 481 1925 481 
Q 2391 481 2648 825 
Q 2906 1169 2906 1791 
z
M 3481 434 
Q 3481 -459 3084 -895 
Q 2688 -1331 1869 -1331 
Q 1566 -1331 1297 -1286 
Q 1028 -1241 775 -1147 
L 775 -588 
Q 1028 -725 1275 -790 
Q 1522 -856 1778 -856 
Q 2344 -856 2625 -561 
Q 2906 -266 2906 331 
L 2906 616 
Q 2728 306 2450 153 
Q 2172 0 1784 0 
Q 1141 0 747 490 
Q 353 981 353 1791 
Q 353 2603 747 3093 
Q 1141 3584 1784 3584 
Q 2172 3584 2450 3431 
Q 2728 3278 2906 2969 
L 2906 3500 
L 3481 3500 
L 3481 434 
z
" id="DejaVuSans-67" transform="scale(0.015625)"/>
       <path d="M 269 3500 
L 844 3500 
L 1563 769 
L 2278 3500 
L 2956 3500 
L 3675 769 
L 4391 3500 
L 4966 3500 
L 4050 0 
L 3372 0 
L 2619 2869 
L 1863 0 
L 1184 0 
L 269 3500 
z
" id="DejaVuSans-77" transform="scale(0.015625)"/>
       <path d="M 3513 2113 
L 3513 0 
L 2938 0 
L 2938 2094 
Q 2938 2591 2744 2837 
Q 2550 3084 2163 3084 
Q 1697 3084 1428 2787 
Q 1159 2491 1159 1978 
L 1159 0 
L 581 0 
L 581 4863 
L 1159 4863 
L 1159 2956 
Q 1366 3272 1645 3428 
Q 1925 3584 2291 3584 
Q 2894 3584 3203 3211 
Q 3513 2838 3513 2113 
z
" id="DejaVuSans-68" transform="scale(0.015625)"/>
      </defs>
      <use xlink:href="#DejaVuSans-46"/>
      <use x="50.269531" xlink:href="#DejaVuSans-72"/>
      <use x="91.382812" xlink:href="#DejaVuSans-61"/>
      <use x="152.662109" xlink:href="#DejaVuSans-63"/>
      <use x="207.642578" xlink:href="#DejaVuSans-74"/>
      <use x="246.851562" xlink:href="#DejaVuSans-69"/>
      <use x="274.634766" xlink:href="#DejaVuSans-6f"/>
      <use x="335.816406" xlink:href="#DejaVuSans-6e"/>
      <use x="399.195312" xlink:href="#DejaVuSans-20"/>
      <use x="430.982422" xlink:href="#DejaVuSans-6f"/>
      <use x="492.164062" xlink:href="#DejaVuSans-66"/>
      <use x="527.369141" xlink:href="#DejaVuSans-20"/>
      <use x="559.15625" xlink:href="#DejaVuSans-74"/>
      <use x="598.365234" xlink:href="#DejaVuSans-61"/>
      <use x="659.644531" xlink:href="#DejaVuSans-72"/>
      <use x="699.007812" xlink:href="#DejaVuSans-67"/>
      <use x="762.484375" xlink:href="#DejaVuSans-65"/>
      <use x="824.007812" xlink:href="#DejaVuSans-74"/>
      <use x="863.216797" xlink:href="#DejaVuSans-20"/>
      <use x="895.003906" xlink:href="#DejaVuSans-77"/>
      <use x="976.791016" xlink:href="#DejaVuSans-65"/>
      <use x="1038.314453" xlink:href="#DejaVuSans-69"/>
      <use x="1066.097656" xlink:href="#DejaVuSans-67"/>
      <use x="1129.574219" xlink:href="#DejaVuSans-68"/>
      <use x="1192.953125" xlink:href="#DejaVuSans-74"/>
     </g>
    </g>
   </g>
   <g id="line2d_14">
    <path clip-path="url(#p24fb6761c0)" d="M 58.999432 229.874489 
L 363.363068 32.207472 
L 363.363068 32.207472 
" style="fill:none;stroke:#1f77b4;stroke-linecap:square;stroke-width:1.5;"/>
   </g>
   <g id="line2d_15">
    <path clip-path="url(#p24fb6761c0)" d="M 58.999432 229.676332 
L 59.232793 228.177522 
L 59.79083 226.111434 
L 60.693836 223.647245 
L 61.962102 220.848867 
L 63.615921 217.751131 
L 65.675586 214.376048 
L 68.151242 210.752876 
L 71.073328 206.876011 
L 74.462135 202.754466 
L 78.337957 198.395177 
L 82.731232 193.793348 
L 87.652106 188.964941 
L 93.131016 183.904247 
L 99.188257 178.615565 
L 105.844118 173.102443 
L 113.12904 167.360036 
L 121.063315 161.391897 
L 129.667234 155.201021 
L 138.971236 148.783103 
L 148.995613 142.141129 
L 159.760658 135.277666 
L 171.296809 128.188814 
L 183.624358 120.877138 
L 196.763598 113.344879 
L 210.73482 105.594004 
L 225.568464 97.620883 
L 241.294967 89.422322 
L 257.924475 81.005627 
L 275.487428 72.367451 
L 294.014263 63.504816 
L 313.525273 54.419723 
L 334.04075 45.113972 
L 355.580986 35.589186 
L 363.363068 32.205276 
L 363.363068 32.205276 
" style="fill:none;stroke:#ff7f0e;stroke-linecap:square;stroke-width:1.5;"/>
   </g>
   <g id="line2d_16">
    <path clip-path="url(#p24fb6761c0)" d="M 58.999432 228.739771 
L 59.192208 224.776997 
L 59.6082 220.967184 
L 60.247406 217.17202 
L 61.119973 213.341966 
L 62.225901 209.496681 
L 63.575337 205.616555 
L 65.168279 201.715986 
L 67.025021 197.761848 
L 69.145563 193.771736 
L 71.550196 189.72393 
L 74.249067 185.619545 
L 77.252321 181.459517 
L 80.580252 177.232294 
L 84.243006 172.941403 
L 88.260873 168.578965 
L 92.654148 164.139409 
L 97.443122 159.618814 
L 102.637941 155.023161 
L 108.269044 150.340895 
L 114.356722 145.570996 
L 120.911123 140.720224 
L 127.962684 135.780322 
L 135.531698 130.751473 
L 143.648602 125.627809 
L 152.33369 120.410743 
L 161.607254 115.101663 
L 171.499732 109.696505 
L 182.041562 104.192119 
L 193.253037 98.591065 
L 205.164594 92.890937 
L 217.796527 87.094478 
L 231.18942 81.195432 
L 245.363565 75.197115 
L 260.349401 69.098485 
L 276.187511 62.894933 
L 292.898189 56.590209 
L 310.522018 50.180466 
L 329.079292 43.669552 
L 348.610594 37.054205 
L 363.363068 32.204177 
L 363.363068 32.204177 
" style="fill:none;stroke:#2ca02c;stroke-linecap:square;stroke-width:1.5;"/>
   </g>
   <g id="line2d_17">
    <path clip-path="url(#p24fb6761c0)" d="M 58.999432 226.681338 
L 59.171916 219.713356 
L 59.537177 214.102344 
L 60.095214 208.984015 
L 60.835882 204.227779 
L 61.769326 199.666615 
L 62.895546 195.263319 
L 64.224689 190.960925 
L 65.756755 186.752515 
L 67.50189 182.607394 
L 69.470239 178.505729 
L 71.671949 174.434 
L 74.117167 170.382619 
L 76.816038 166.344567 
L 79.778708 162.314575 
L 83.02547 158.276517 
L 86.56647 154.230119 
L 90.421999 150.164761 
L 94.602205 146.082335 
L 99.137526 141.966463 
L 104.038107 137.82174 
L 109.334387 133.636258 
L 115.036513 129.415768 
L 121.174922 125.151222 
L 127.769907 120.842316 
L 134.851907 116.483021 
L 142.441213 112.074641 
L 150.568264 107.613083 
L 159.263498 103.095406 
L 168.557354 98.519585 
L 178.470124 93.888947 
L 189.042392 89.197707 
L 200.304598 84.445667 
L 212.287178 79.632992 
L 225.030719 74.756339 
L 238.565657 69.816899 
L 252.932579 64.812511 
L 268.172068 59.741697 
L 284.314562 54.606698 
L 301.410793 49.403634 
L 319.491198 44.135347 
L 338.606509 38.798962 
L 358.797309 33.395004 
L 363.363068 32.203519 
L 363.363068 32.203519 
" style="fill:none;stroke:#d62728;stroke-linecap:square;stroke-width:1.5;"/>
   </g>
   <g id="line2d_18">
    <path clip-path="url(#p24fb6761c0)" d="M 58.999432 223.51914 
L 59.171916 213.208085 
L 59.516884 206.135075 
L 60.034337 200.059189 
L 60.724274 194.569149 
L 61.586695 189.485292 
L 62.621601 184.707577 
L 63.839136 180.13807 
L 65.239302 175.74963 
L 66.822099 171.519301 
L 68.597672 167.406106 
L 70.576167 163.38264 
L 72.767732 159.429726 
L 75.182511 155.533463 
L 77.830651 151.683486 
L 80.732444 147.85912 
L 83.898037 144.057508 
L 87.337576 140.276223 
L 91.071352 136.503337 
L 95.119658 132.730199 
L 99.502787 128.950557 
L 104.251176 125.152112 
L 109.374972 121.34062 
L 114.904613 117.506981 
L 120.860392 113.650995 
L 127.272747 109.766856 
L 134.16197 105.856067 
L 141.568646 101.909627 
L 149.513066 97.930849 
L 158.035816 93.913401 
L 167.167334 89.857135 
L 176.938058 85.762358 
L 187.398719 81.621908 
L 198.569609 77.441646 
L 210.501459 73.216157 
L 223.234854 68.944854 
L 236.810377 64.6277 
L 251.27876 60.262106 
L 266.680586 55.849247 
L 283.066588 51.387795 
L 300.487495 46.877087 
L 318.994038 42.316993 
L 338.647093 37.705481 
L 359.497392 33.043512 
L 363.363068 32.203079 
L 363.363068 32.203079 
" style="fill:none;stroke:#9467bd;stroke-linecap:square;stroke-width:1.5;"/>
   </g>
   <g id="line2d_19">
    <path clip-path="url(#p24fb6761c0)" d="M 58.999432 219.487007 
L 59.16177 206.528088 
L 59.486446 198.280224 
L 59.97346 191.471925 
L 60.622813 185.488809 
L 61.434503 180.065869 
L 62.408532 175.05772 
L 63.544898 170.373767 
L 64.853749 165.92116 
L 66.335084 161.670171 
L 67.99905 157.572576 
L 69.845646 153.616323 
L 71.885018 149.77151 
L 74.137459 146.000794 
L 76.602969 142.307863 
L 79.30184 138.66716 
L 82.244218 135.072643 
L 85.450395 131.508616 
L 88.940664 127.96388 
L 92.725171 124.439512 
L 96.824208 120.927718 
L 101.268213 117.415157 
L 106.077479 113.899513 
L 111.282445 110.372701 
L 116.903401 106.835278 
L 122.970787 103.28226 
L 129.515042 99.710313 
L 136.566603 96.117365 
L 144.155909 92.5023 
L 152.323544 88.860341 
L 161.110094 85.188338 
L 170.545996 81.488264 
L 180.68198 77.754899 
L 191.558633 73.988149 
L 203.216537 70.188488 
L 215.706424 66.353788 
L 229.079025 62.482909 
L 243.395216 58.572799 
L 258.695581 54.626696 
L 275.040998 50.642872 
L 292.50249 46.618196 
L 311.130786 42.55502 
L 330.99691 38.451654 
L 352.171886 34.307255 
L 363.363068 32.202765 
L 363.363068 32.202765 
" style="fill:none;stroke:#8c564b;stroke-linecap:square;stroke-width:1.5;"/>
   </g>
   <g id="line2d_20">
    <path clip-path="url(#p24fb6761c0)" d="M 58.999432 214.860631 
L 59.16177 199.381412 
L 59.486446 190.140712 
L 59.963314 182.864539 
L 60.592374 176.627705 
L 61.373626 171.071263 
L 62.307071 166.007715 
L 63.402853 161.284072 
L 64.650827 156.877962 
L 66.071285 152.675851 
L 67.664228 148.658948 
L 69.429654 144.809069 
L 71.387858 141.073373 
L 73.538837 137.449549 
L 75.902886 133.904172 
L 78.490149 130.427321 
L 81.310774 127.011131 
L 84.385051 123.638632 
L 87.733275 120.297749 
L 91.375736 116.979875 
L 95.332727 113.678907 
L 99.62454 110.390551 
L 104.281614 107.104961 
L 109.324241 103.821702 
L 114.793006 100.528967 
L 120.7082 97.229536 
L 127.110409 93.915748 
L 134.03007 90.587186 
L 141.507769 87.239695 
L 149.573943 83.874846 
L 158.279323 80.486736 
L 167.664494 77.075097 
L 177.780187 73.637014 
L 188.677132 70.170916 
L 200.395913 66.679192 
L 213.007554 63.156053 
L 226.552638 59.605449 
L 241.10219 56.023786 
L 256.717086 52.411194 
L 273.468348 48.766271 
L 291.427 45.088561 
L 310.664064 41.378343 
L 331.26071 37.634664 
L 353.298106 33.857392 
L 363.363068 32.20253 
L 363.363068 32.20253 
" style="fill:none;stroke:#e377c2;stroke-linecap:square;stroke-width:1.5;"/>
   </g>
   <g id="line2d_21">
    <path clip-path="url(#p24fb6761c0)" d="M 58.999432 209.88028 
L 59.16177 192.342275 
L 59.4763 182.603362 
L 59.943022 174.987671 
L 60.55179 168.623046 
L 61.31275 162.976596 
L 62.215755 157.912613 
L 63.270953 153.242031 
L 64.478343 148.892365 
L 65.84807 144.782095 
L 67.380136 140.882742 
L 69.084686 137.148948 
L 70.971866 133.549311 
L 73.051823 130.061223 
L 75.334703 126.667882 
L 77.830651 123.356463 
L 80.55996 120.105476 
L 83.542923 116.899848 
L 86.799831 113.728966 
L 90.34083 110.59393 
L 94.19636 107.479445 
L 98.396858 104.37495 
L 102.962617 101.279925 
L 107.924075 98.188204 
L 113.311671 95.095781 
L 119.155842 92.000236 
L 125.497174 88.895531 
L 132.376251 85.777869 
L 139.833657 82.645134 
L 147.909977 79.496463 
L 156.645796 76.331902 
L 166.10199 73.145553 
L 176.32929 69.936847 
L 187.378427 66.706119 
L 199.310277 63.451683 
L 212.185717 60.173014 
L 226.07577 56.868121 
L 241.041313 53.538437 
L 257.163515 50.18169 
L 274.523546 46.796885 
L 293.202573 43.38401 
L 313.291912 39.942108 
L 334.872732 36.472762 
L 358.056642 32.973441 
L 363.363068 32.202347 
L 363.363068 32.202347 
" style="fill:none;stroke:#7f7f7f;stroke-linecap:square;stroke-width:1.5;"/>
   </g>
   <g id="line2d_22">
    <path clip-path="url(#p24fb6761c0)" d="M 58.999432 204.731025 
L 59.16177 185.558124 
L 59.4763 175.332032 
L 59.932876 167.617296 
L 60.531498 161.188846 
L 61.272165 155.58337 
L 62.154879 150.56343 
L 63.189784 145.946874 
L 64.376881 141.662955 
L 65.716171 137.657575 
L 67.217798 133.865195 
L 68.881763 130.262616 
L 70.728359 126.793679 
L 72.757585 123.453328 
L 74.989734 120.206683 
L 77.434952 117.042479 
L 80.11353 113.940608 
L 83.045762 110.887035 
L 86.25194 107.871916 
L 89.752355 104.888349 
L 93.5673 101.931509 
L 97.727214 98.99119 
L 102.262534 96.060557 
L 107.2037 93.135215 
L 112.581149 90.212539 
L 118.435467 87.286304 
L 124.807237 84.3527 
L 131.737045 81.409699 
L 139.27562 78.452744 
L 147.463548 75.482887 
L 156.351558 72.49839 
L 166.000529 69.495727 
L 176.471336 66.473151 
L 187.81471 63.432866 
L 200.111821 60.369998 
L 213.423545 57.286341 
L 227.831051 54.179851 
L 243.415508 51.049853 
L 260.258085 47.8967 
L 278.450098 44.719781 
L 298.093008 41.517867 
L 319.288275 38.290868 
L 342.147508 35.038147 
L 363.363068 32.202201 
L 363.363068 32.202201 
" style="fill:none;stroke:#bcbd22;stroke-linecap:square;stroke-width:1.5;"/>
   </g>
   <g id="line2d_23">
    <path clip-path="url(#p24fb6761c0)" d="M 58.999432 199.546279 
L 59.151624 179.66162 
L 59.456008 169.031059 
L 59.902437 161.133416 
L 60.490913 154.626287 
L 61.221434 149.002008 
L 62.094002 144.001389 
L 63.108615 139.470639 
L 64.265274 135.309659 
L 65.574125 131.421418 
L 67.045314 127.744523 
L 68.678841 124.257735 
L 70.484852 120.923951 
L 72.48364 117.701413 
L 74.675204 114.589552 
L 77.089983 111.548639 
L 79.738123 108.57422 
L 82.629771 105.662187 
L 85.795364 102.791272 
L 89.26534 99.947105 
L 93.059993 97.127359 
L 97.209761 94.324019 
L 101.734935 91.537901 
L 106.686247 88.753441 
L 112.094135 85.970506 
L 117.999183 83.185076 
L 124.441976 80.395059 
L 131.463099 77.599739 
L 139.123428 74.792222 
L 147.473694 71.971776 
L 156.564627 69.138794 
L 166.467251 66.28882 
L 177.242442 63.422192 
L 188.961223 60.537696 
L 201.694618 57.635397 
L 215.523794 54.714213 
L 230.540068 51.772368 
L 246.834754 48.809514 
L 264.509314 45.824698 
L 283.66521 42.818173 
L 304.414047 39.789641 
L 326.867435 36.739808 
L 351.167419 33.666386 
L 363.363068 32.202081 
L 363.363068 32.202081 
" style="fill:none;stroke:#17becf;stroke-linecap:square;stroke-width:1.5;"/>
   </g>
   <g id="line2d_24">
    <path clip-path="url(#p24fb6761c0)" d="M 58.999432 194.418012 
L 59.151624 173.586969 
L 59.445862 162.9987 
L 59.882145 155.088805 
L 60.460475 148.597224 
L 61.170704 143.081817 
L 62.022979 138.177105 
L 63.0173 133.74021 
L 64.153666 129.674573 
L 65.442225 125.884479 
L 66.882976 122.332117 
L 68.486064 118.966424 
L 70.261637 115.752266 
L 72.229987 112.649475 
L 74.391112 109.657888 
L 76.775453 106.738964 
L 79.393155 103.8885 
L 82.26451 101.093141 
L 85.409811 98.343518 
L 88.859495 95.625423 
L 92.644002 92.929451 
L 96.79377 90.24957 
L 101.339236 87.582129 
L 106.31084 84.925129 
L 111.759313 82.268252 
L 117.725238 79.60949 
L 124.2492 76.948283 
L 131.392076 74.277794 
L 139.204597 71.597538 
L 147.737493 68.908164 
L 157.061787 66.205424 
L 167.248503 63.487323 
L 178.368662 60.753501 
L 190.493289 58.004762 
L 203.713698 55.238618 
L 218.121204 52.454331 
L 233.807122 49.652427 
L 250.88306 46.831097 
L 269.460626 43.990076 
L 289.651427 41.130223 
L 311.597508 38.249333 
L 335.420624 35.349211 
L 361.283111 32.427767 
L 363.363068 32.201981 
L 363.363068 32.201981 
" style="fill:none;stroke:#1f77b4;stroke-linecap:square;stroke-width:1.5;"/>
   </g>
   <g id="line2d_25">
    <path clip-path="url(#p24fb6761c0)" d="M 58.999432 189.407157 
L 59.151624 167.876393 
L 59.445862 157.184216 
L 59.882145 149.282671 
L 60.450329 142.938794 
L 61.160558 137.475014 
L 62.002687 132.696054 
L 62.986861 128.377258 
L 64.113082 124.426301 
L 65.391494 120.749855 
L 66.822099 117.310709 
L 68.415041 114.05854 
L 70.180468 110.958637 
L 72.128525 107.986045 
L 74.279505 105.109469 
L 76.6537 102.307804 
L 79.261255 99.576643 
L 82.13261 96.89385 
L 85.288057 94.252911 
L 88.758034 91.642048 
L 92.562833 89.060187 
L 96.743039 86.494819 
L 101.339236 83.938053 
L 106.381863 81.390167 
L 111.921651 78.843096 
L 118.009329 76.292207 
L 124.685484 73.739035 
L 132.01099 71.178786 
L 140.046726 68.60917 
L 148.853568 66.029683 
L 158.502538 63.438445 
L 169.074807 60.832851 
L 180.641396 58.214433 
L 193.293621 55.581334 
L 207.132944 52.931504 
L 222.250679 50.26637 
L 238.76858 47.583328 
L 256.798255 44.883137 
L 276.471603 42.164786 
L 297.920524 39.428689 
L 321.297209 36.673964 
L 346.753852 33.901095 
L 363.363068 32.201897 
L 363.363068 32.201897 
" style="fill:none;stroke:#ff7f0e;stroke-linecap:square;stroke-width:1.5;"/>
   </g>
   <g id="line2d_26">
    <path clip-path="url(#p24fb6761c0)" d="M 58.999432 184.552258 
L 59.151624 162.522711 
L 59.445862 151.799672 
L 59.871999 144.088723 
L 60.440182 137.776852 
L 61.140265 132.447623 
L 61.972248 127.788197 
L 62.946277 123.582734 
L 64.062351 119.74197 
L 65.320471 116.200442 
L 66.730784 112.887067 
L 68.303434 109.754902 
L 70.058715 106.75519 
L 71.996626 103.884597 
L 74.137459 101.112018 
L 76.501508 98.416483 
L 79.109063 95.78363 
L 81.980418 93.203506 
L 85.135865 90.669143 
L 88.615988 88.161744 
L 92.451226 85.675637 
L 96.672016 83.207521 
L 101.318944 80.750585 
L 106.44274 78.296345 
L 112.083989 75.844268 
L 118.293421 73.391116 
L 125.121767 70.935705 
L 132.64005 68.471895 
L 140.909147 65.999572 
L 150.00008 63.517196 
L 159.983873 61.02491 
L 170.951841 58.519554 
L 182.985152 56.002211 
L 196.185268 53.471112 
L 210.663797 50.924538 
L 226.532346 48.362542 
L 243.912668 45.784971 
L 262.936664 43.191622 
L 283.756525 40.581133 
L 306.524443 37.953776 
L 331.402756 35.309936 
L 358.574094 32.649172 
L 363.363068 32.201824 
L 363.363068 32.201824 
" style="fill:none;stroke:#2ca02c;stroke-linecap:square;stroke-width:1.5;"/>
   </g>
   <g id="line2d_27">
    <path clip-path="url(#p24fb6761c0)" d="M 58.999432 179.876052 
L 59.151624 157.510342 
L 59.445862 146.811502 
L 59.871999 139.179211 
L 60.430036 133.056539 
L 61.119973 127.871042 
L 61.951956 123.287418 
L 62.915838 119.208051 
L 64.021767 115.484978 
L 65.269741 112.055635 
L 66.669907 108.851056 
L 68.232411 105.825553 
L 69.977546 102.931638 
L 71.90531 100.165904 
L 74.035998 97.497998 
L 76.3899 94.907464 
L 78.997456 92.370983 
L 81.868811 89.890158 
L 85.04455 87.442926 
L 88.544965 85.028668 
L 92.410641 82.635089 
L 96.682162 80.254698 
L 101.400113 77.883326 
L 106.605078 75.519076 
L 112.357935 73.153619 
L 118.709412 70.78614 
L 125.710243 68.417254 
L 133.431448 66.042515 
L 141.954198 63.65741 
L 151.349516 61.26269 
L 161.698569 58.857932 
L 173.092674 56.442087 
L 185.633292 54.013864 
L 199.43203 51.571979 
L 214.600496 49.116895 
L 231.270589 46.647378 
L 249.584356 44.162584 
L 269.683841 41.663272 
L 291.731384 39.149065 
L 315.909614 36.618963 
L 342.411308 34.072636 
L 363.363068 32.201761 
L 363.363068 32.201761 
" style="fill:none;stroke:#d62728;stroke-linecap:square;stroke-width:1.5;"/>
   </g>
   <g id="patch_3">
    <path d="M 43.78125 239.758125 
L 43.78125 22.318125 
" style="fill:none;stroke:#000000;stroke-linecap:square;stroke-linejoin:miter;stroke-width:0.8;"/>
   </g>
   <g id="patch_4">
    <path d="M 378.58125 239.758125 
L 378.58125 22.318125 
" style="fill:none;stroke:#000000;stroke-linecap:square;stroke-linejoin:miter;stroke-width:0.8;"/>
   </g>
   <g id="patch_5">
    <path d="M 43.78125 239.758125 
L 378.58125 239.758125 
" style="fill:none;stroke:#000000;stroke-linecap:square;stroke-linejoin:miter;stroke-width:0.8;"/>
   </g>
   <g id="patch_6">
    <path d="M 43.78125 22.318125 
L 378.58125 22.318125 
" style="fill:none;stroke:#000000;stroke-linecap:square;stroke-linejoin:miter;stroke-width:0.8;"/>
   </g>
   <g id="text_16">
    <!-- Fraction of target weight during 30s slow-start -->
    <g transform="translate(71.90625 16.318125)scale(0.12 -0.12)">
     <defs>
      <path d="M 2906 2969 
L 2906 4863 
L 3481 4863 
L 3481 0 
L 2906 0 
L 2906 525 
Q 2725 213 2448 61 
Q 2172 -91 1784 -91 
Q 1150 -91 751 415 
Q 353 922 353 1747 
Q 353 2572 751 3078 
Q 1150 3584 1784 3584 
Q 2172 3584 2448 3432 
Q 2725 3281 2906 2969 
z
M 947 1747 
Q 947 1113 1208 752 
Q 1469 391 1925 391 
Q 2381 391 2643 752 
Q 2906 1113 2906 1747 
Q 2906 2381 2643 2742 
Q 2381 3103 1925 3103 
Q 1469 3103 1208 2742 
Q 947 2381 947 1747 
z
" id="DejaVuSans-64" transform="scale(0.015625)"/>
      <path d="M 544 1381 
L 544 3500 
L 1119 3500 
L 1119 1403 
Q 1119 906 1312 657 
Q 1506 409 1894 409 
Q 2359 409 2629 706 
Q 2900 1003 2900 1516 
L 2900 3500 
L 3475 3500 
L 3475 0 
L 2900 0 
L 2900 538 
Q 2691 219 2414 64 
Q 2138 -91 1772 -91 
Q 1169 -91 856 284 
Q 544 659 544 1381 
z
M 1991 3584 
L 1991 3584 
z
" id="DejaVuSans-75" transform="scale(0.015625)"/>
      <path d="M 603 4863 
L 1178 4863 
L 1178 0 
L 603 0 
L 603 4863 
z
" id="DejaVuSans-6c" transform="scale(0.015625)"/>
      <path d="M 313 2009 
L 1997 2009 
L 1997 1497 
L 313 1497 
L 313 2009 
z
" id="DejaVuSans-2d" transform="scale(0.015625)"/>
     </defs>
     <use xlink:href="#DejaVuSans-46"/>
     <use x="50.269531" xlink:href="#DejaVuSans-72"/>
     <use x="91.382812" xlink:href="#DejaVuSans-61"/>
     <use x="152.662109" xlink:href="#DejaVuSans-63"/>
     <use x="207.642578" xlink:href="#DejaVuSans-74"/>
     <use x="246.851562" xlink:href="#DejaVuSans-69"/>
     <use x="274.634766" xlink:href="#DejaVuSans-6f"/>
     <use x="335.816406" xlink:href="#DejaVuSans-6e"/>
     <use x="399.195312" xlink:href="#DejaVuSans-20"/>
     <use x="430.982422" xlink:href="#DejaVuSans-6f"/>
     <use x="492.164062" xlink:href="#DejaVuSans-66"/>
     <use x="527.369141" xlink:href="#DejaVuSans-20"/>
     <use x="559.15625" xlink:href="#DejaVuSans-74"/>
     <use x="598.365234" xlink:href="#DejaVuSans-61"/>
     <use x="659.644531" xlink:href="#DejaVuSans-72"/>
     <use x="699.007812" xlink:href="#DejaVuSans-67"/>
     <use x="762.484375" xlink:href="#DejaVuSans-65"/>
     <use x="824.007812" xlink:href="#DejaVuSans-74"/>
     <use x="863.216797" xlink:href="#DejaVuSans-20"/>
     <use x="895.003906" xlink:href="#DejaVuSans-77"/>
     <use x="976.791016" xlink:href="#DejaVuSans-65"/>
     <use x="1038.314453" xlink:href="#DejaVuSans-69"/>
     <use x="1066.097656" xlink:href="#DejaVuSans-67"/>
     <use x="1129.574219" xlink:href="#DejaVuSans-68"/>
     <use x="1192.953125" xlink:href="#DejaVuSans-74"/>
     <use x="1232.162109" xlink:href="#DejaVuSans-20"/>
     <use x="1263.949219" xlink:href="#DejaVuSans-64"/>
     <use x="1327.425781" xlink:href="#DejaVuSans-75"/>
     <use x="1390.804688" xlink:href="#DejaVuSans-72"/>
     <use x="1431.917969" xlink:href="#DejaVuSans-69"/>
     <use x="1459.701172" xlink:href="#DejaVuSans-6e"/>
     <use x="1523.080078" xlink:href="#DejaVuSans-67"/>
     <use x="1586.556641" xlink:href="#DejaVuSans-20"/>
     <use x="1618.34375" xlink:href="#DejaVuSans-33"/>
     <use x="1681.966797" xlink:href="#DejaVuSans-30"/>
     <use x="1745.589844" xlink:href="#DejaVuSans-73"/>
     <use x="1797.689453" xlink:href="#DejaVuSans-20"/>
     <use x="1829.476562" xlink:href="#DejaVuSans-73"/>
     <use x="1881.576172" xlink:href="#DejaVuSans-6c"/>
     <use x="1909.359375" xlink:href="#DejaVuSans-6f"/>
     <use x="1970.541016" xlink:href="#DejaVuSans-77"/>
     <use x="2052.328125" xlink:href="#DejaVuSans-2d"/>
     <use x="2088.412109" xlink:href="#DejaVuSans-73"/>
     <use x="2140.511719" xlink:href="#DejaVuSans-74"/>
     <use x="2179.720703" xlink:href="#DejaVuSans-61"/>
     <use x="2241" xlink:href="#DejaVuSans-72"/>
     <use x="2282.113281" xlink:href="#DejaVuSans-74"/>
    </g>
   </g>
   <g id="legend_1">
    <g id="patch_7">
     <path d="M 50.78125 235.811875 
L 161.58125 235.811875 
Q 163.58125 235.811875 163.58125 233.811875 
L 163.58125 29.318125 
Q 163.58125 27.318125 161.58125 27.318125 
L 50.78125 27.318125 
Q 48.78125 27.318125 48.78125 29.318125 
L 48.78125 233.811875 
Q 48.78125 235.811875 50.78125 235.811875 
z
" style="fill:#ffffff;opacity:0.8;stroke:#cccccc;stroke-linejoin:miter;"/>
    </g>
    <g id="line2d_28">
     <path d="M 52.78125 35.416562 
L 72.78125 35.416562 
" style="fill:none;stroke:#1f77b4;stroke-linecap:square;stroke-width:1.5;"/>
    </g>
    <g id="line2d_29"/>
    <g id="text_17">
     <!-- aggression=1.0 -->
     <g transform="translate(80.78125 38.916562)scale(0.1 -0.1)">
      <defs>
       <path d="M 678 2906 
L 4684 2906 
L 4684 2381 
L 678 2381 
L 678 2906 
z
M 678 1631 
L 4684 1631 
L 4684 1100 
L 678 1100 
L 678 1631 
z
" id="DejaVuSans-3d" transform="scale(0.015625)"/>
      </defs>
      <use xlink:href="#DejaVuSans-61"/>
      <use x="61.279297" xlink:href="#DejaVuSans-67"/>
      <use x="124.755859" xlink:href="#DejaVuSans-67"/>
      <use x="188.232422" xlink:href="#DejaVuSans-72"/>
      <use x="227.095703" xlink:href="#DejaVuSans-65"/>
      <use x="288.619141" xlink:href="#DejaVuSans-73"/>
      <use x="340.71875" xlink:href="#DejaVuSans-73"/>
      <use x="392.818359" xlink:href="#DejaVuSans-69"/>
      <use x="420.601562" xlink:href="#DejaVuSans-6f"/>
      <use x="481.783203" xlink:href="#DejaVuSans-6e"/>
      <use x="545.162109" xlink:href="#DejaVuSans-3d"/>
      <use x="628.951172" xlink:href="#DejaVuSans-31"/>
      <use x="692.574219" xlink:href="#DejaVuSans-2e"/>
      <use x="724.361328" xlink:href="#DejaVuSans-30"/>
     </g>
    </g>
    <g id="line2d_30">
     <path d="M 52.78125 50.094687 
L 72.78125 50.094687 
" style="fill:none;stroke:#ff7f0e;stroke-linecap:square;stroke-width:1.5;"/>
    </g>
    <g id="line2d_31"/>
    <g id="text_18">
     <!-- aggression=1.5 -->
     <g transform="translate(80.78125 53.594687)scale(0.1 -0.1)">
      <use xlink:href="#DejaVuSans-61"/>
      <use x="61.279297" xlink:href="#DejaVuSans-67"/>
      <use x="124.755859" xlink:href="#DejaVuSans-67"/>
      <use x="188.232422" xlink:href="#DejaVuSans-72"/>
      <use x="227.095703" xlink:href="#DejaVuSans-65"/>
      <use x="288.619141" xlink:href="#DejaVuSans-73"/>
      <use x="340.71875" xlink:href="#DejaVuSans-73"/>
      <use x="392.818359" xlink:href="#DejaVuSans-69"/>
      <use x="420.601562" xlink:href="#DejaVuSans-6f"/>
      <use x="481.783203" xlink:href="#DejaVuSans-6e"/>
      <use x="545.162109" xlink:href="#DejaVuSans-3d"/>
      <use x="628.951172" xlink:href="#DejaVuSans-31"/>
      <use x="692.574219" xlink:href="#DejaVuSans-2e"/>
      <use x="724.361328" xlink:href="#DejaVuSans-35"/>
     </g>
    </g>
    <g id="line2d_32">
     <path d="M 52.78125 64.772812 
L 72.78125 64.772812 
" style="fill:none;stroke:#2ca02c;stroke-linecap:square;stroke-width:1.5;"/>
    </g>
    <g id="line2d_33"/>
    <g id="text_19">
     <!-- aggression=2.0 -->
     <g transform="translate(80.78125 68.272812)scale(0.1 -0.1)">
      <use xlink:href="#DejaVuSans-61"/>
      <use x="61.279297" xlink:href="#DejaVuSans-67"/>
      <use x="124.755859" xlink:href="#DejaVuSans-67"/>
      <use x="188.232422" xlink:href="#DejaVuSans-72"/>
      <use x="227.095703" xlink:href="#DejaVuSans-65"/>
      <use x="288.619141" xlink:href="#DejaVuSans-73"/>
      <use x="340.71875" xlink:href="#DejaVuSans-73"/>
      <use x="392.818359" xlink:href="#DejaVuSans-69"/>
      <use x="420.601562" xlink:href="#DejaVuSans-6f"/>
      <use x="481.783203" xlink:href="#DejaVuSans-6e"/>
      <use x="545.162109" xlink:href="#DejaVuSans-3d"/>
      <use x="628.951172" xlink:href="#DejaVuSans-32"/>
      <use x="692.574219" xlink:href="#DejaVuSans-2e"/>
      <use x="724.361328" xlink:href="#DejaVuSans-30"/>
     </g>
    </g>
    <g id="line2d_34">
     <path d="M 52.78125 79.450937 
L 72.78125 79.450937 
" style="fill:none;stroke:#d62728;stroke-linecap:square;stroke-width:1.5;"/>
    </g>
    <g id="line2d_35"/>
    <g id="text_20">
     <!-- aggression=2.5 -->
     <g transform="translate(80.78125 82.950937)scale(0.1 -0.1)">
      <use xlink:href="#DejaVuSans-61"/>
      <use x="61.279297" xlink:href="#DejaVuSans-67"/>
      <use x="124.755859" xlink:href="#DejaVuSans-67"/>
      <use x="188.232422" xlink:href="#DejaVuSans-72"/>
      <use x="227.095703" xlink:href="#DejaVuSans-65"/>
      <use x="288.619141" xlink:href="#DejaVuSans-73"/>
      <use x="340.71875" xlink:href="#DejaVuSans-73"/>
      <use x="392.818359" xlink:href="#DejaVuSans-69"/>
      <use x="420.601562" xlink:href="#DejaVuSans-6f"/>
      <use x="481.783203" xlink:href="#DejaVuSans-6e"/>
      <use x="545.162109" xlink:href="#DejaVuSans-3d"/>
      <use x="628.951172" xlink:href="#DejaVuSans-32"/>
      <use x="692.574219" xlink:href="#DejaVuSans-2e"/>
      <use x="724.361328" xlink:href="#DejaVuSans-35"/>
     </g>
    </g>
    <g id="line2d_36">
     <path d="M 52.78125 94.129062 
L 72.78125 94.129062 
" style="fill:none;stroke:#9467bd;stroke-linecap:square;stroke-width:1.5;"/>
    </g>
    <g id="line2d_37"/>
    <g id="text_21">
     <!-- aggression=3.0 -->
     <g transform="translate(80.78125 97.629062)scale(0.1 -0.1)">
      <use xlink:href="#DejaVuSans-61"/>
      <use x="61.279297" xlink:href="#DejaVuSans-67"/>
      <use x="124.755859" xlink:href="#DejaVuSans-67"/>
      <use x="188.232422" xlink:href="#DejaVuSans-72"/>
      <use x="227.095703" xlink:href="#DejaVuSans-65"/>
      <use x="288.619141" xlink:href="#DejaVuSans-73"/>
      <use x="340.71875" xlink:href="#DejaVuSans-73"/>
      <use x="392.818359" xlink:href="#DejaVuSans-69"/>
      <use x="420.601562" xlink:href="#DejaVuSans-6f"/>
      <use x="481.783203" xlink:href="#DejaVuSans-6e"/>
      <use x="545.162109" xlink:href="#DejaVuSans-3d"/>
      <use x="628.951172" xlink:href="#DejaVuSans-33"/>
      <use x="692.574219" xlink:href="#DejaVuSans-2e"/>
      <use x="724.361328" xlink:href="#DejaVuSans-30"/>
     </g>
    </g>
    <g id="line2d_38">
     <path d="M 52.78125 108.807187 
L 72.78125 108.807187 
" style="fill:none;stroke:#8c564b;stroke-linecap:square;stroke-width:1.5;"/>
    </g>
    <g id="line2d_39"/>
    <g id="text_22">
     <!-- aggression=3.5 -->
     <g transform="translate(80.78125 112.307187)scale(0.1 -0.1)">
      <use xlink:href="#DejaVuSans-61"/>
      <use x="61.279297" xlink:href="#DejaVuSans-67"/>
      <use x="124.755859" xlink:href="#DejaVuSans-67"/>
      <use x="188.232422" xlink:href="#DejaVuSans-72"/>
      <use x="227.095703" xlink:href="#DejaVuSans-65"/>
      <use x="288.619141" xlink:href="#DejaVuSans-73"/>
      <use x="340.71875" xlink:href="#DejaVuSans-73"/>
      <use x="392.818359" xlink:href="#DejaVuSans-69"/>
      <use x="420.601562" xlink:href="#DejaVuSans-6f"/>
      <use x="481.783203" xlink:href="#DejaVuSans-6e"/>
      <use x="545.162109" xlink:href="#DejaVuSans-3d"/>
      <use x="628.951172" xlink:href="#DejaVuSans-33"/>
      <use x="692.574219" xlink:href="#DejaVuSans-2e"/>
      <use x="724.361328" xlink:href="#DejaVuSans-35"/>
     </g>
    </g>
    <g id="line2d_40">
     <path d="M 52.78125 123.485312 
L 72.78125 123.485312 
" style="fill:none;stroke:#e377c2;stroke-linecap:square;stroke-width:1.5;"/>
    </g>
    <g id="line2d_41"/>
    <g id="text_23">
     <!-- aggression=4.0 -->
     <g transform="translate(80.78125 126.985312)scale(0.1 -0.1)">
      <use xlink:href="#DejaVuSans-61"/>
      <use x="61.279297" xlink:href="#DejaVuSans-67"/>
      <use x="124.755859" xlink:href="#DejaVuSans-67"/>
      <use x="188.232422" xlink:href="#DejaVuSans-72"/>
      <use x="227.095703" xlink:href="#DejaVuSans-65"/>
      <use x="288.619141" xlink:href="#DejaVuSans-73"/>
      <use x="340.71875" xlink:href="#DejaVuSans-73"/>
      <use x="392.818359" xlink:href="#DejaVuSans-69"/>
      <use x="420.601562" xlink:href="#DejaVuSans-6f"/>
      <use x="481.783203" xlink:href="#DejaVuSans-6e"/>
      <use x="545.162109" xlink:href="#DejaVuSans-3d"/>
      <use x="628.951172" xlink:href="#DejaVuSans-34"/>
      <use x="692.574219" xlink:href="#DejaVuSans-2e"/>
      <use x="724.361328" xlink:href="#DejaVuSans-30"/>
     </g>
    </g>
    <g id="line2d_42">
     <path d="M 52.78125 138.163437 
L 72.78125 138.163437 
" style="fill:none;stroke:#7f7f7f;stroke-linecap:square;stroke-width:1.5;"/>
    </g>
    <g id="line2d_43"/>
    <g id="text_24">
     <!-- aggression=4.5 -->
     <g transform="translate(80.78125 141.663437)scale(0.1 -0.1)">
      <use xlink:href="#DejaVuSans-61"/>
      <use x="61.279297" xlink:href="#DejaVuSans-67"/>
      <use x="124.755859" xlink:href="#DejaVuSans-67"/>
      <use x="188.232422" xlink:href="#DejaVuSans-72"/>
      <use x="227.095703" xlink:href="#DejaVuSans-65"/>
      <use x="288.619141" xlink:href="#DejaVuSans-73"/>
      <use x="340.71875" xlink:href="#DejaVuSans-73"/>
      <use x="392.818359" xlink:href="#DejaVuSans-69"/>
      <use x="420.601562" xlink:href="#DejaVuSans-6f"/>
      <use x="481.783203" xlink:href="#DejaVuSans-6e"/>
      <use x="545.162109" xlink:href="#DejaVuSans-3d"/>
      <use x="628.951172" xlink:href="#DejaVuSans-34"/>
      <use x="692.574219" xlink:href="#DejaVuSans-2e"/>
      <use x="724.361328" xlink:href="#DejaVuSans-35"/>
     </g>
    </g>
    <g id="line2d_44">
     <path d="M 52.78125 152.841562 
L 72.78125 152.841562 
" style="fill:none;stroke:#bcbd22;stroke-linecap:square;stroke-width:1.5;"/>
    </g>
    <g id="line2d_45"/>
    <g id="text_25">
     <!-- aggression=5.0 -->
     <g transform="translate(80.78125 156.341562)scale(0.1 -0.1)">
      <use xlink:href="#DejaVuSans-61"/>
      <use x="61.279297" xlink:href="#DejaVuSans-67"/>
      <use x="124.755859" xlink:href="#DejaVuSans-67"/>
      <use x="188.232422" xlink:href="#DejaVuSans-72"/>
      <use x="227.095703" xlink:href="#DejaVuSans-65"/>
      <use x="288.619141" xlink:href="#DejaVuSans-73"/>
      <use x="340.71875" xlink:href="#DejaVuSans-73"/>
      <use x="392.818359" xlink:href="#DejaVuSans-69"/>
      <use x="420.601562" xlink:href="#DejaVuSans-6f"/>
      <use x="481.783203" xlink:href="#DejaVuSans-6e"/>
      <use x="545.162109" xlink:href="#DejaVuSans-3d"/>
      <use x="628.951172" xlink:href="#DejaVuSans-35"/>
      <use x="692.574219" xlink:href="#DejaVuSans-2e"/>
      <use x="724.361328" xlink:href="#DejaVuSans-30"/>
     </g>
    </g>
    <g id="line2d_46">
     <path d="M 52.78125 167.519687 
L 72.78125 167.519687 
" style="fill:none;stroke:#17becf;stroke-linecap:square;stroke-width:1.5;"/>
    </g>
    <g id="line2d_47"/>
    <g id="text_26">
     <!-- aggression=5.5 -->
     <g transform="translate(80.78125 171.019687)scale(0.1 -0.1)">
      <use xlink:href="#DejaVuSans-61"/>
      <use x="61.279297" xlink:href="#DejaVuSans-67"/>
      <use x="124.755859" xlink:href="#DejaVuSans-67"/>
      <use x="188.232422" xlink:href="#DejaVuSans-72"/>
      <use x="227.095703" xlink:href="#DejaVuSans-65"/>
      <use x="288.619141" xlink:href="#DejaVuSans-73"/>
      <use x="340.71875" xlink:href="#DejaVuSans-73"/>
      <use x="392.818359" xlink:href="#DejaVuSans-69"/>
      <use x="420.601562" xlink:href="#DejaVuSans-6f"/>
      <use x="481.783203" xlink:href="#DejaVuSans-6e"/>
      <use x="545.162109" xlink:href="#DejaVuSans-3d"/>
      <use x="628.951172" xlink:href="#DejaVuSans-35"/>
      <use x="692.574219" xlink:href="#DejaVuSans-2e"/>
      <use x="724.361328" xlink:href="#DejaVuSans-35"/>
     </g>
    </g>
    <g id="line2d_48">
     <path d="M 52.78125 182.197812 
L 72.78125 182.197812 
" style="fill:none;stroke:#1f77b4;stroke-linecap:square;stroke-width:1.5;"/>
    </g>
    <g id="line2d_49"/>
    <g id="text_27">
     <!-- aggression=6.0 -->
     <g transform="translate(80.78125 185.697812)scale(0.1 -0.1)">
      <use xlink:href="#DejaVuSans-61"/>
      <use x="61.279297" xlink:href="#DejaVuSans-67"/>
      <use x="124.755859" xlink:href="#DejaVuSans-67"/>
      <use x="188.232422" xlink:href="#DejaVuSans-72"/>
      <use x="227.095703" xlink:href="#DejaVuSans-65"/>
      <use x="288.619141" xlink:href="#DejaVuSans-73"/>
      <use x="340.71875" xlink:href="#DejaVuSans-73"/>
      <use x="392.818359" xlink:href="#DejaVuSans-69"/>
      <use x="420.601562" xlink:href="#DejaVuSans-6f"/>
      <use x="481.783203" xlink:href="#DejaVuSans-6e"/>
      <use x="545.162109" xlink:href="#DejaVuSans-3d"/>
      <use x="628.951172" xlink:href="#DejaVuSans-36"/>
      <use x="692.574219" xlink:href="#DejaVuSans-2e"/>
      <use x="724.361328" xlink:href="#DejaVuSans-30"/>
     </g>
    </g>
    <g id="line2d_50">
     <path d="M 52.78125 196.875937 
L 72.78125 196.875937 
" style="fill:none;stroke:#ff7f0e;stroke-linecap:square;stroke-width:1.5;"/>
    </g>
    <g id="line2d_51"/>
    <g id="text_28">
     <!-- aggression=6.5 -->
     <g transform="translate(80.78125 200.375937)scale(0.1 -0.1)">
      <use xlink:href="#DejaVuSans-61"/>
      <use x="61.279297" xlink:href="#DejaVuSans-67"/>
      <use x="124.755859" xlink:href="#DejaVuSans-67"/>
      <use x="188.232422" xlink:href="#DejaVuSans-72"/>
      <use x="227.095703" xlink:href="#DejaVuSans-65"/>
      <use x="288.619141" xlink:href="#DejaVuSans-73"/>
      <use x="340.71875" xlink:href="#DejaVuSans-73"/>
      <use x="392.818359" xlink:href="#DejaVuSans-69"/>
      <use x="420.601562" xlink:href="#DejaVuSans-6f"/>
      <use x="481.783203" xlink:href="#DejaVuSans-6e"/>
      <use x="545.162109" xlink:href="#DejaVuSans-3d"/>
      <use x="628.951172" xlink:href="#DejaVuSans-36"/>
      <use x="692.574219" xlink:href="#DejaVuSans-2e"/>
      <use x="724.361328" xlink:href="#DejaVuSans-35"/>
     </g>
    </g>
    <g id="line2d_52">
     <path d="M 52.78125 211.554062 
L 72.78125 211.554062 
" style="fill:none;stroke:#2ca02c;stroke-linecap:square;stroke-width:1.5;"/>
    </g>
    <g id="line2d_53"/>
    <g id="text_29">
     <!-- aggression=7.0 -->
     <g transform="translate(80.78125 215.054062)scale(0.1 -0.1)">
      <defs>
       <path d="M 525 4666 
L 3525 4666 
L 3525 4397 
L 1831 0 
L 1172 0 
L 2766 4134 
L 525 4134 
L 525 4666 
z
" id="DejaVuSans-37" transform="scale(0.015625)"/>
      </defs>
      <use xlink:href="#DejaVuSans-61"/>
      <use x="61.279297" xlink:href="#DejaVuSans-67"/>
      <use x="124.755859" xlink:href="#DejaVuSans-67"/>
      <use x="188.232422" xlink:href="#DejaVuSans-72"/>
      <use x="227.095703" xlink:href="#DejaVuSans-65"/>
      <use x="288.619141" xlink:href="#DejaVuSans-73"/>
      <use x="340.71875" xlink:href="#DejaVuSans-73"/>
      <use x="392.818359" xlink:href="#DejaVuSans-69"/>
      <use x="420.601562" xlink:href="#DejaVuSans-6f"/>
      <use x="481.783203" xlink:href="#DejaVuSans-6e"/>
      <use x="545.162109" xlink:href="#DejaVuSans-3d"/>
      <use x="628.951172" xlink:href="#DejaVuSans-37"/>
      <use x="692.574219" xlink:href="#DejaVuSans-2e"/>
      <use x="724.361328" xlink:href="#DejaVuSans-30"/>
     </g>
    </g>
    <g id="line2d_54">
     <path d="M 52.78125 226.232187 
L 72.78125 226.232187 
" style="fill:none;stroke:#d62728;stroke-linecap:square;stroke-width:1.5;"/>
    </g>
    <g id="line2d_55"/>
    <g id="text_30">
     <!-- aggression=7.5 -->
     <g transform="translate(80.78125 229.732187)scale(0.1 -0.1)">
      <use xlink:href="#DejaVuSans-61"/>
      <use x="61.279297" xlink:href="#DejaVuSans-67"/>
      <use x="124.755859" xlink:href="#DejaVuSans-67"/>
      <use x="188.232422" xlink:href="#DejaVuSans-72"/>
      <use x="227.095703" xlink:href="#DejaVuSans-65"/>
      <use x="288.619141" xlink:href="#DejaVuSans-73"/>
      <use x="340.71875" xlink:href="#DejaVuSans-73"/>
      <use x="392.818359" xlink:href="#DejaVuSans-69"/>
      <use x="420.601562" xlink:href="#DejaVuSans-6f"/>
      <use x="481.783203" xlink:href="#DejaVuSans-6e"/>
      <use x="545.162109" xlink:href="#DejaVuSans-3d"/>
      <use x="628.951172" xlink:href="#DejaVuSans-37"/>
      <use x="692.574219" xlink:href="#DejaVuSans-2e"/>
      <use x="724.361328" xlink:href="#DejaVuSans-35"/>
     </g>
    </g>
   </g>
  </g>
 </g>
 <defs>
  <clipPath id="p24fb6761c0">
   <rect height="217.44" width="334.8" x="43.78125" y="22.318125"/>
  </clipPath>
 </defs>
</svg>
