<?xml version="1.0" encoding="utf-8"?>
<!-- Generator: Adobe Illustrator 20.0.0, SVG Export Plug-In . SVG Version: 6.00 Build 0)  -->
<svg version="1.2" baseProfile="tiny" id="Layer_1" xmlns="http://www.w3.org/2000/svg" xmlns:xlink="http://www.w3.org/1999/xlink"
	 x="0px" y="0px" width="302px" height="284.7px" viewBox="0 0 302 284.7" xml:space="preserve">
<g>
	<path fill="#635F49" d="M151.9,80.1V73c0-0.8-0.5-1.3-1.3-1.3h-0.3c-0.8,0-1.3,0.5-1.3,1.3v6.9"/>
	<path fill="#F3D58E" d="M149.3,92.4l13.3,1.6c0.3,0,0.3,0,0.5,0s0.3-0.3,0.5-0.3s0.3-0.3,0.3-0.5c0-0.3,0.3-0.3,0.3-0.5l0.8-10.1
		c0-0.3,0-0.5,0-0.5c0-0.3-0.3-0.3-0.3-0.5c0-0.3-0.3-0.3-0.5-0.3c-0.3,0-0.3-0.3-0.5-0.3L149,79.9"/>
	<path fill="#635F49" d="M151.6,92.6l-2.4-0.3v6.1c0.7,0,1.6,0,2.4,0V92.6z"/>
	<path d="M150.8,128.1c-0.1,0-0.2,0-0.3,0c-0.1,0-0.2,0-0.3,0H150.8z"/>
	<path fill="#F6E2B3" d="M151.6,110.5l16-1.9l5.6-5.9l-6.1-5.3l-15.4,1.1h-2.4L139.1,99c-0.3,0-0.3,0-0.5,0.3
		c-0.3,0-0.3,0.3-0.5,0.3c0,0.3-0.3,0.3-0.3,0.5s0,0.5,0,0.5l0.8,10.1c0,0.3,0,0.5,0.3,0.5c0,0.3,0.3,0.3,0.3,0.5
		c0.3,0,0.3,0.3,0.5,0.3s0.3,0,0.5,0l9.3-1.1"/>
	<path fill="#635F49" d="M149.5,111v25.8c0,0.7,0.4,1.2,1.1,1.3c0.6-0.1,1.1-0.6,1.1-1.3v-26.3"/>
	<path fill="#F3D58E" d="M149,79.9l-13.6-0.8l-6.1,5.3l5.6,6.4l14.4,1.6"/>
	<path fill="#DBDBDB" d="M74.4,113.6l-5.2-2.5l1.5-3.3l6,3c0,0,12.8-15.1,11.3-15.8C61.8,84.8,30.6,79.5,0,79.5c0,0,0,21.5,0,29.8
		c27.7,4.9,47.4,12.8,60.8,21C66.6,124.2,74.4,113.6,74.4,113.6z M22.6,96.9l-10.2-1.5l0.4-2.5l10.2,1.5L22.6,96.9z M51.7,104.2
		c-1.5-0.4-3.3-1.1-5.5-1.8c-4-1.1-8-2.2-8-2.2l0.7-2.9c0,0,4,1.1,8,2.2c2.2,0.7,4,1.1,5.5,1.5c1.5,0.4,2.5,0.7,2.5,0.7l-0.7,3.3
		C54.2,104.9,53.1,104.6,51.7,104.2z"/>
	<path fill="#DBDBDB" d="M302,109.3c0-8.4,0-29.8,0-29.8c-73.5,0-151,30.6-151,88.8c0-27.4-17.1-48.6-42.9-63.4
		c-6,7.2-27.3,33.9-30.8,39.1c9.6,12,9.9,24.6,5.6,34.6c-9.1,21.5-47.7,106.2-47.7,106.2h231.4c0,0-38.6-84.8-47.7-106.2
		C209.9,157,221.6,123.5,302,109.3z M116.8,154.4c0,0,0,0.4,0.4,0.7c0,0.4,0,0.4,0.4,0.7c0,0.4,0.4,0.7,0.4,1.1
		c0.4,1.5,1.1,3.6,1.5,5.8c0.4,2.2,0.7,4.4,1.1,5.8c0,0.7,0,1.5,0.4,1.8c0,0.4,0,0.7,0,0.7l-5.1,0.4c0,0,0-0.4,0-0.7V169
		c0-1.5-0.4-3.3-0.7-5.5c-0.4-1.8-0.7-4-1.5-5.1c0-0.4-0.4-0.7-0.4-1.1s-0.4-0.7-0.4-0.7c0-0.4-0.4-0.7-0.4-0.7L116.8,154.4z
		 M98.6,126.4c0,0,2.9,2.9,5.8,6.2c1.5,1.5,2.5,3.3,3.6,4.7c1.1,1.5,1.5,2.2,1.5,2.2l-3.6,2.5c0,0-0.7-0.7-1.5-2.2
		c-0.7-1.1-2.2-2.9-3.3-4.4c-2.5-3.3-5.5-5.8-5.5-5.8L98.6,126.4z M100.8,266.1h-7.3l4.4-15.3l6.2,1.8L100.8,266.1z M109.2,236.7
		l-6.2-1.8l4.7-15.6l5.8,1.5L109.2,236.7z M119,196.6c-0.4,2.2-0.7,4-1.1,5.5c-0.4,1.5-0.4,2.5-0.4,2.5l-5.5-1.1
		c0,0,0.4-1.1,0.7-2.5c0.4-1.5,0.7-3.6,1.1-5.5c0.7-4,1.5-8,1.5-8l5.5,0.7C120.1,188.3,119.7,192.3,119,196.6z M194.3,137.3
		c1.1-1.5,2.2-2.9,3.6-4.7c2.5-3.3,5.8-6.2,5.8-6.2l2.9,2.9c0,0-2.9,2.9-5.5,5.8c-1.1,1.5-2.5,3.3-3.3,4.4s-1.5,2.2-1.5,2.2
		l-3.6-2.5C192.5,139.5,193.2,138.8,194.3,137.3z M181.2,170.4c0-0.4,0-1.1,0.4-1.8c0-1.5,0.4-3.6,1.1-5.8c0.4-2.2,1.1-4.4,1.5-5.8
		c0-0.4,0.4-0.7,0.4-1.1c0-0.4,0.4-0.7,0.4-0.7c0-0.4,0.4-0.7,0.4-0.7l4.4,1.5c0,0,0,0.4-0.4,0.7c0,0.4,0,0.4-0.4,0.7
		c0,0.4-0.4,0.7-0.4,1.1c-0.4,1.5-1.1,3.3-1.5,5.1c-0.4,1.8-0.7,4-0.7,5.5v1.8c0,0.4,0,0.7,0,0.7l-5.1-0.4
		C181.2,171.2,181.2,171.2,181.2,170.4z M184.1,202.1c-0.4-1.5-0.7-3.6-1.1-5.5c-0.7-4-1.5-8.4-1.5-8.4l5.5-0.7c0,0,0.7,4,1.5,8
		c0.4,1.8,0.7,4,1.1,5.5c0.4,1.5,0.7,2.5,0.7,2.5l-5.5,1.1C184.8,204.6,184.5,203.5,184.1,202.1z M188.5,221l5.8-1.5l4.7,15.6
		l-6.2,1.5L188.5,221z M201.2,266.1l-3.6-13.5l6.2-1.8l4.4,15.3H201.2z M289.6,92.9l0.4,2.5l-10.2,1.5l-0.4-2.5L289.6,92.9z
		 M249.2,100.9c1.5-0.4,3.6-1.1,5.5-1.5c4-1.1,8-2.2,8-2.2l0.7,2.9c0,0-4,1.1-8,2.2c-1.8,0.7-4,1.1-5.5,1.8
		c-1.5,0.4-2.5,0.7-2.5,0.7l-1.1-3.3C246.7,101.7,247.8,101.3,249.2,100.9z M220.9,117.7c-1.1,0.7-2.2,1.5-2.2,1.5l-2.2-3.3
		c0,0,0.7-0.7,2.2-1.5s3.3-1.8,5.1-2.9c3.6-2.2,7.3-3.6,7.3-3.6l1.5,3.3c0,0-3.6,1.8-7.3,3.6C223.8,115.9,222.3,117,220.9,117.7z"/>
	<path fill="#E9E9E6" d="M32.4,194L32.4,194c0-6.4-4.9-11.3-11.3-11.3S9.9,187.6,9.9,194l0,0l0,0v59.3h22.5V194L32.4,194z"/>
	<g>
		<polygon fill="#FF5C5C" points="117.6,61.8 123.3,83.9 132.6,72 127.1,49.7 		"/>
		<polygon fill="#FF5C5C" points="137.2,36.8 142.9,58.9 152.2,47.1 146.5,25 		"/>
		<polygon fill="#FF5C5C" points="98.3,86.5 103.8,108.8 113.1,97 107.6,74.6 		"/>
		<polygon fill="#FF5C5C" points="78.9,111.2 84.2,133.8 93.9,121.4 88.2,99.3 		"/>
		<polygon fill="#FF5C5C" points="59.2,136.4 64.9,158.5 74.4,146.4 68.7,124.3 		"/>
		<polygon fill="#FF5C5C" points="156.6,12.1 162.2,34.2 171.6,22.3 166.1,0 		"/>
		<polygon fill="#FF5C5C" points="179.8,0.8 181.6,9.5 185.1,5 		"/>
		<polygon fill="#FF5C5C" points="20.3,186.1 22.6,195.6 30.8,202 35.3,196.3 29.9,173.7 		"/>
		<polygon fill="#FF5C5C" points="39.8,161.1 45.5,183.2 54.8,171.3 49.3,149 		"/>
	</g>
	<path fill="#CECECB" d="M21.1,182.7c-0.5,0-0.9,0-1.3,0.1c0.2,0.5,0.3,1.1,0.3,1.7c-0.7,14.3,0.5,67.1,0.8,68.8h11.5V194
		C32.4,187.6,27.5,182.7,21.1,182.7z"/>
</g>
</svg>
