<?xml version="1.0" encoding="utf-8"?>
<!-- Generator: Adobe Illustrator 20.0.0, SVG Export Plug-In . SVG Version: 6.00 Build 0)  -->
<svg version="1.2" baseProfile="tiny" id="Layer_1" xmlns="http://www.w3.org/2000/svg" xmlns:xlink="http://www.w3.org/1999/xlink"
	 x="0px" y="0px" width="266px" height="232px" viewBox="0 0 266 232" xml:space="preserve">
<g>
	<g>
		<path fill="#FBF7ED" stroke="#CECECB" stroke-width="10" stroke-miterlimit="10" d="M254,227H12c-3.9,0-7-3.1-7-7V12
			c0-3.9,3.1-7,7-7h242c3.9,0,7,3.1,7,7v208C261,223.9,257.9,227,254,227z"/>
		<rect x="7" y="9" fill="#CECECB" width="250.3" height="25.6"/>
		<circle fill="#E9E9E6" cx="19" cy="17.3" r="8.5"/>
		<circle fill="#E9E9E6" cx="40" cy="17.3" r="8.5"/>
		<circle fill="#E9E9E6" cx="61" cy="17.3" r="8.5"/>
		<path fill="#FFFFFF" d="M247.5,8.8H87c-4.7,0-8.5,3.8-8.5,8.5v0c0,4.7,3.8,8.5,8.5,8.5h160.5c4.7,0,8.5-3.8,8.5-8.5v0
			C256,12.6,252.2,8.8,247.5,8.8z"/>
	</g>
	<g>
		<g>
			<g>
				<radialGradient id="SVGID_1_" cx="86.8113" cy="139.2452" r="115.3015" gradientUnits="userSpaceOnUse">
					<stop  offset="0" style="stop-color:#F3E6C7"/>
					<stop  offset="1" style="stop-color:#F0C578"/>
				</radialGradient>
				<path fill="url(#SVGID_1_)" d="M179.8,88.4c1.5,1.1,2.9,2.3,4.3,3.5c-0.3,0.1-0.5,0.2-0.7,0.3l-2.5,1.2
					c-5.3,2.5-10.6,5-15.9,7.6c-4.4-3.4-9.4-6.3-14.8-8.4c-3.3-1.3-6.7-2.3-10.2-3.1l-1.3-0.3l-1.3-0.2c-0.9-0.1-1.8-0.3-2.6-0.4
					l-1.3-0.1c-0.4-0.1-0.8-0.1-1.4-0.1l-1.5-0.1l-0.8-0.1l-0.4,0l-0.2,0l-0.1,0h-0.1c-7.2-0.2-14.5,0.7-21.3,2.9
					c-6.9,2.2-13.3,5.5-18.9,9.6c-5.6,4.1-10.3,9-14,14.2c-1,1.3-1.8,2.6-2.6,3.9c-0.4,0.7-0.8,1.3-1.2,2c-0.4,0.7-0.7,1.3-1.1,2
					c-1.4,2.7-2.5,5.4-3.4,8c-0.4,1.3-0.9,2.6-1.2,3.9c-0.2,0.6-0.4,1.3-0.5,1.9c-0.2,0.6-0.3,1.3-0.4,1.9c-0.1,0.3-0.1,0.6-0.2,0.9
					c-0.1,0.3-0.1,0.6-0.2,0.9c-0.1,0.6-0.2,1.2-0.3,1.8c-0.2,1.2-0.3,2.3-0.4,3.4c-0.1,1.2-0.2,2.4-0.2,3.5l0,0.2c0,0,0,0.1,0,0.1
					v0.1l0,0.4c0,0.3,0,0.5,0,0.8c0,0.5,0,1,0,1.5c0,2,0.1,3.8,0.3,5.5c0.3,3.3,0.8,5.9,1.2,7.6c0.2,0.9,0.3,1.5,0.5,2
					c0.1,0.5,0.2,0.7,0.2,0.7l-7,2c0,0-0.1-0.2-0.2-0.7c-0.2-0.4-0.4-1.2-0.7-2.2c-0.5-1.9-1.3-4.7-1.9-8.4
					c-0.3-1.8-0.6-3.9-0.7-6.1c-0.1-0.6-0.1-1.1-0.1-1.7c0-0.3,0-0.6,0-0.9l0-0.4v-0.3l0-0.2c0-1.2,0-2.3,0-3.6
					c0.1-1.3,0.1-2.7,0.2-4.1c0.1-0.7,0.1-1.4,0.2-2.1c0-0.4,0.1-0.7,0.1-1.1c0.1-0.4,0.1-0.7,0.2-1.1c0.1-0.7,0.2-1.5,0.3-2.2
					c0.1-0.7,0.3-1.5,0.4-2.2c0.3-1.5,0.7-3.1,1.1-4.6c0.9-3.1,1.9-6.3,3.3-9.5c0.3-0.8,0.7-1.6,1.1-2.4c0.4-0.8,0.8-1.6,1.2-2.4
					c0.9-1.6,1.7-3.2,2.7-4.8c3.9-6.4,9.1-12.6,15.4-18c6.3-5.4,13.8-9.9,22.1-13.2c8.3-3.2,17.3-5,26.4-5.3l3.3,0
					c0.5,0,1.1,0,1.7,0l1.8,0.1c1.2,0,2.3,0.2,3.5,0.3l1.7,0.2l1.7,0.2c4.5,0.6,9,1.6,13.3,3C164.9,79,172.9,83.2,179.8,88.4z"/>
				<radialGradient id="SVGID_2_" cx="86.8113" cy="139.2452" r="115.3015" gradientUnits="userSpaceOnUse">
					<stop  offset="0" style="stop-color:#F3E6C7"/>
					<stop  offset="1" style="stop-color:#F0C578"/>
				</radialGradient>
				<path fill="url(#SVGID_2_)" d="M211.2,159.8c-0.4,4.1-1.1,7.3-1.5,9.5c-0.5,2.2-0.8,3.3-0.8,3.3l-24-6.9c0,0,0.3-0.8,0.7-2.3
					c0.4-1.5,1.1-3.7,1.5-6.6c0.5-2.9,0.9-6.4,0.8-10.5c-0.1-4.1-0.6-8.7-1.9-13.6c-0.3-1-0.6-2.1-0.9-3.1c0.6-0.8,1.1-1.6,1.7-2.4
					l12-17.1l0.4-0.6c1.4,2.3,2.7,4.5,3.9,6.8c1.7,3.3,3.1,6.7,4.2,10c2.2,6.6,3.4,13,3.9,18.7C211.8,150.7,211.6,155.7,211.2,159.8
					z"/>
			</g>
		</g>
		<path fill="#DBDBDB" d="M188.7,101.7c1.4-0.6,2.6,0.8,1.8,2.4c-0.4,0.7-26.5,35.9-39.4,54.3c-3.5,5-8,8.6-14.4,9.3
			c-9.4,1.1-18-4.4-20.7-13.2c-2.7-8.7,1-17.8,9.6-22C138.8,125.9,186.5,102.7,188.7,101.7z"/>
	</g>
</g>
</svg>
